<?xml version="1.0" encoding="utf-8"?>
<!-- Generator: Adobe Illustrator 18.1.0, SVG Export Plug-In . SVG Version: 6.00 Build 0)  -->
<!DOCTYPE svg PUBLIC "-//W3C//DTD SVG 1.1//EN" "http://www.w3.org/Graphics/SVG/1.1/DTD/svg11.dtd">
<svg version="1.1" id="Layer_1" xmlns="http://www.w3.org/2000/svg" xmlns:xlink="http://www.w3.org/1999/xlink" x="0px" y="0px"
	 viewBox="393.5 110 500 42" enable-background="new 393.5 110 500 42" xml:space="preserve">
<g id="white" display="none">
	<rect x="138.1" y="29.6" display="inline" width="1011.4" height="321.9"/>
	<g display="inline">
		<path fill="#FFFFFF" d="M299,229.9c0,2.5,0,7.3,0,10c0,3-2.6,5.5-5.6,5.5c-7.2,0-52.1,0-52.1,0c-13.2,0-22.8-11-22.8-23v-47.5
			c0-12.5,10.1-22.9,22.9-22.9c0,0,46.1,0,52.1,0c3.3,0,5.5,2.7,5.5,5.5c0,2.8,0,7.3,0,10c0,2.8-2.2,5.4-5.5,5.4
			c-6.8,0-44.9,0-44.9,0c-3,0-5.5,2.3-5.5,5.5c0,0,0,37.6,0,40.7c0,3,2.5,5.4,5.5,5.4c0,0,36.9,0,44.7,0
			C296.6,224.5,299,227,299,229.9z"/>
		<path fill="#FFFFFF" d="M382.5,151.9c0,0-54.3,0-60.4,0c-3.3,0-5.5,2.7-5.5,5.5c0,2.6,0,7.4,0,10c0,2.9,2.3,5.4,5.5,5.4
			c7.7,0,53.2,0,53.2,0c3.3,0,5.5,2.7,5.5,5.5c0,1.5,0,6.6,0,6.6h-45.3c-11.9,0-23,9.3-23,22.9v14.6c0,12.6,10.1,23,23,23h70v-70.5
			C405.4,163.1,396.1,151.9,382.5,151.9z M342.4,224.5c-3.2,0-5.5-2.6-5.5-5.4c0-2,0-5.9,0-7.8c0-3,2.5-5.4,5.5-5.4h38.4v18.6
			L342.4,224.5L342.4,224.5z"/>
		<path fill="#FFFFFF" d="M474.4,229.5c0,3,0,7.1,0,10.3c0,3-2.3,5.5-5.6,5.5h-25.1c-13.3,0-22.9-10.3-22.9-23c0-10.8,0-99.3,0-99.3
			H446v28.9c0,0,10.4,0,18,0c3.1,0,5.4,2.5,5.4,5.5c0,3,0,6.7,0,10c0,3.1-2.5,5.4-5.5,5.4c-7.5,0-17.9,0-17.9,0v45.8
			c0,3.4,2.8,5.4,5.4,5.4c2.9,0,17.5,0,17.5,0C471.9,224,474.4,226.4,474.4,229.5z"/>
		<path fill="#FFFFFF" d="M554.9,151.9c0,0-54.3,0-60.4,0c-3.3,0-5.5,2.7-5.5,5.5c0,2.6,0,7.4,0,10c0,2.9,2.3,5.4,5.5,5.4
			c7.7,0,53.2,0,53.2,0c3.3,0,5.5,2.7,5.5,5.5c0,1.5,0,6.6,0,6.6h-45.3c-11.9,0-22.9,9.3-22.9,22.9v14.6c0,12.6,10.1,23,22.9,23h70
			v-70.5C577.8,163.1,568.5,151.9,554.9,151.9z M514.7,224.5c-3.2,0-5.5-2.6-5.5-5.4c0-2,0-5.9,0-7.8c0-3,2.4-5.4,5.5-5.4h38.4v18.6
			L514.7,224.5L514.7,224.5z"/>
		<rect x="595" y="123.1" fill="#FFFFFF" width="24.5" height="122.3"/>
		<path fill="#FFFFFF" d="M727.9,157.1c0,2.5,0,98.9,0,98.9c0,12.2-9.5,23-23,23c0,0-54.8,0-60.7,0c-3,0-5.5-2.5-5.5-5.4
			c0-2.6,0-7.2,0-9.9c0-2.7,2.3-5.4,5.5-5.4c6.4,0,52,0,52,0c3.1,0,5.4-2.5,5.4-5.5v-7.7h-44.4c-12.7,0-23-10-23-22.9
			c0,0,0-62.4,0-65c0-2.9,2.3-5.4,5.4-5.4c6.5,0,7.3,0,13.7,0c3.4,0,5.5,2.8,5.5,5.4c0,2.3,0,61.7,0,61.7c0,2.8,2.3,5.4,5.5,5.4H702
			c0,0,0-64.8,0-67.2c0-2.8,2.2-5.4,5.4-5.4c6.4,0,7.9,0,15,0C725.8,151.7,727.9,154.5,727.9,157.1z"/>
		<path fill="#FFFFFF" d="M838.2,222.4c0,11.4-9,23-23,23c0,0-60.2,0-67.4,0c-3.3,0-5.4-2.8-5.4-5.5c0-2.5,0-7.2,0-10
			c0-2.7,2.2-5.4,5.4-5.4c6,0,61.9,0,61.9,0c3.1,0,5.5-2.5,5.5-5.4c0-1.9,0-5.7,0-7.5c0-3.1-2.5-5.4-5.5-5.4h-44.4
			c-13.2,0-22.9-10.8-22.9-23v-8.4c0-11.8,9.4-22.9,22.9-22.9c0,0,61.5,0,67.4,0c3.3,0,5.5,2.7,5.5,5.4c0,2.6,0,7.4,0,10
			c0,2.8-2.2,5.5-5.5,5.5c-5.4,0-60.8,0-60.8,0c-3.1,0-5.5,2.4-5.5,5.5c0,0.2,0,1.1,0,1.6c0,3,2.4,5.4,5.5,5.4h43.3
			c13.6,0,23,11,23,23L838.2,222.4L838.2,222.4z"/>
		<path fill="#FFFFFF" d="M922.6,229.5c0,3,0,7.1,0,10.3c0,3-2.3,5.5-5.6,5.5h-41.3c-13.3,0-23-10.3-23-23c0-10.8,0-99.3,0-99.3
			h25.2v28.9c0,0,10.4,0,18,0c3.1,0,5.4,2.5,5.4,5.5c0,3,0,6.7,0,10c0,3.1-2.4,5.4-5.5,5.4c-7.5,0-17.9,0-17.9,0v45.8
			c0,3.4,2.8,5.4,5.5,5.4c2.9,0,33.7,0,33.7,0C920.1,224,922.6,226.4,922.6,229.5z"/>
	</g>
	<g display="inline">
		<path fill="#FFFFFF" d="M957.2,244.5c3.1-13.1,6.7-24,11-33.8c0,0,0,0-0.1,0c-0.3-0.1-3.7-1.3-4-1.4c-1.1-0.5-2.6-3.2-1.2-8.1
			c2.6-8.7,6.5-18.6,10-25.7c-0.1,0-3.1-1-4.7-1.6c-2.5-1-3.7-5.6-2.6-8.8c2.1-6.4,12-27.6,21-42h-27c-6.9,0-12.6,5.7-12.6,12.6
			v96.7c0,6,4.4,11.2,10.1,12.4C957.2,244.6,957.2,244.6,957.2,244.5z"/>
		<path fill="#FFFFFF" d="M1030.9,123.1c-0.2,0.2-0.5,0.4-0.7,0.7c-6,5.4-20.2,20.7-20.4,20.8c0.2,0.1,6.4,2,6.7,2.2
			c4.8,1.7,4.1,5.4,1.2,8.5c-17.2,18.6-23.7,27.1-23.8,27.2c0.2,0,6.2,2.1,6.5,2.2c2.1,0.8,3.1,3-0.6,5.7
			c-4.2,3.2-8.1,6.3-13.4,11.2c-9.5,8.8-22.3,22.7-28.9,42.8c-0.1,0.2-0.1,0.3-0.2,0.4c0.8,0.1,1.5,0.2,2.3,0.2h96.7
			c6.9,0,12.6-5.7,12.6-12.6V123.1H1030.9z"/>
	</g>
</g>
<g id="black" display="none">
	<g display="inline">
		<path d="M299,229.9c0,2.5,0,7.3,0,10c0,3-2.6,5.5-5.6,5.5c-7.2,0-52.1,0-52.1,0c-13.2,0-22.8-11-22.8-23v-47.5
			c0-12.5,10.1-22.9,22.9-22.9c0,0,46.1,0,52.1,0c3.3,0,5.5,2.7,5.5,5.5c0,2.8,0,7.3,0,10c0,2.8-2.2,5.4-5.5,5.4
			c-6.8,0-44.9,0-44.9,0c-3,0-5.5,2.3-5.5,5.5c0,0,0,37.6,0,40.7c0,3,2.5,5.4,5.5,5.4c0,0,36.9,0,44.7,0
			C296.6,224.5,299,227,299,229.9z"/>
		<path d="M382.5,151.9c0,0-54.3,0-60.4,0c-3.3,0-5.5,2.7-5.5,5.5c0,2.6,0,7.4,0,10c0,2.9,2.3,5.4,5.5,5.4c7.7,0,53.2,0,53.2,0
			c3.3,0,5.5,2.7,5.5,5.5c0,1.5,0,6.6,0,6.6h-45.3c-11.9,0-23,9.3-23,22.9v14.6c0,12.6,10.1,23,23,23h70v-70.5
			C405.4,163.1,396.1,151.9,382.5,151.9z M342.4,224.5c-3.2,0-5.5-2.6-5.5-5.4c0-2,0-5.9,0-7.8c0-3,2.5-5.4,5.5-5.4h38.4v18.6
			L342.4,224.5L342.4,224.5z"/>
		<path d="M474.4,229.5c0,3,0,7.1,0,10.3c0,3-2.3,5.5-5.6,5.5h-25.1c-13.3,0-22.9-10.3-22.9-23c0-10.8,0-99.3,0-99.3H446v28.9
			c0,0,10.4,0,18,0c3.1,0,5.4,2.5,5.4,5.5c0,3,0,6.7,0,10c0,3.1-2.5,5.4-5.5,5.4c-7.5,0-17.9,0-17.9,0v45.8c0,3.4,2.8,5.4,5.4,5.4
			c2.9,0,17.5,0,17.5,0C471.9,224,474.4,226.4,474.4,229.5z"/>
		<path d="M554.9,151.9c0,0-54.3,0-60.4,0c-3.3,0-5.5,2.7-5.5,5.5c0,2.6,0,7.4,0,10c0,2.9,2.3,5.4,5.5,5.4c7.7,0,53.2,0,53.2,0
			c3.3,0,5.5,2.7,5.5,5.5c0,1.5,0,6.6,0,6.6h-45.3c-11.9,0-22.9,9.3-22.9,22.9v14.6c0,12.6,10.1,23,22.9,23h70v-70.5
			C577.8,163.1,568.5,151.9,554.9,151.9z M514.7,224.5c-3.2,0-5.5-2.6-5.5-5.4c0-2,0-5.9,0-7.8c0-3,2.4-5.4,5.5-5.4h38.4v18.6
			L514.7,224.5L514.7,224.5z"/>
		<rect x="595" y="123.1" width="24.5" height="122.3"/>
		<path d="M727.9,157.1c0,2.5,0,98.9,0,98.9c0,12.2-9.5,23-23,23c0,0-54.8,0-60.7,0c-3,0-5.5-2.5-5.5-5.4c0-2.6,0-7.2,0-9.9
			c0-2.7,2.3-5.4,5.5-5.4c6.4,0,52,0,52,0c3.1,0,5.4-2.5,5.4-5.5v-7.7h-44.4c-12.7,0-23-10-23-22.9c0,0,0-62.4,0-65
			c0-2.9,2.3-5.4,5.4-5.4c6.5,0,7.3,0,13.7,0c3.4,0,5.5,2.8,5.5,5.4c0,2.3,0,61.7,0,61.7c0,2.8,2.3,5.4,5.5,5.4H702
			c0,0,0-64.8,0-67.2c0-2.8,2.2-5.4,5.4-5.4c6.4,0,7.9,0,15,0C725.8,151.7,727.9,154.5,727.9,157.1z"/>
		<path d="M838.2,222.4c0,11.4-9,23-23,23c0,0-60.2,0-67.4,0c-3.3,0-5.4-2.8-5.4-5.5c0-2.5,0-7.2,0-10c0-2.7,2.2-5.4,5.4-5.4
			c6,0,61.9,0,61.9,0c3.1,0,5.5-2.5,5.5-5.4c0-1.9,0-5.7,0-7.5c0-3.1-2.5-5.4-5.5-5.4h-44.4c-13.2,0-22.9-10.8-22.9-23v-8.4
			c0-11.8,9.4-22.9,22.9-22.9c0,0,61.5,0,67.4,0c3.3,0,5.5,2.7,5.5,5.4c0,2.6,0,7.4,0,10c0,2.8-2.2,5.5-5.5,5.5
			c-5.4,0-60.8,0-60.8,0c-3.1,0-5.5,2.4-5.5,5.5c0,0.2,0,1.1,0,1.6c0,3,2.4,5.4,5.5,5.4h43.3c13.6,0,23,11,23,23L838.2,222.4
			L838.2,222.4z"/>
		<path d="M922.6,229.5c0,3,0,7.1,0,10.3c0,3-2.3,5.5-5.6,5.5h-41.3c-13.3,0-23-10.3-23-23c0-10.8,0-99.3,0-99.3h25.2v28.9
			c0,0,10.4,0,18,0c3.1,0,5.4,2.5,5.4,5.5c0,3,0,6.7,0,10c0,3.1-2.4,5.4-5.5,5.4c-7.5,0-17.9,0-17.9,0v45.8c0,3.4,2.8,5.4,5.5,5.4
			c2.9,0,33.7,0,33.7,0C920.1,224,922.6,226.4,922.6,229.5z"/>
	</g>
	<g display="inline">
		<path d="M957.2,244.5c3.1-13.1,6.7-24,11-33.8c0,0,0,0-0.1,0c-0.3-0.1-3.7-1.3-4-1.4c-1.1-0.5-2.6-3.2-1.2-8.1
			c2.6-8.7,6.5-18.6,10-25.7c-0.1,0-3.1-1-4.7-1.6c-2.5-1-3.7-5.6-2.6-8.8c2.1-6.4,12-27.6,21-42h-27c-6.9,0-12.6,5.7-12.6,12.6
			v96.7c0,6,4.4,11.2,10.1,12.4C957.2,244.6,957.2,244.6,957.2,244.5z"/>
		<path d="M1030.9,123.1c-0.2,0.2-0.5,0.4-0.7,0.7c-6,5.4-20.2,20.7-20.4,20.8c0.2,0.1,6.4,2,6.7,2.2c4.8,1.7,4.1,5.4,1.2,8.5
			c-17.2,18.6-23.7,27.1-23.8,27.2c0.2,0,6.2,2.1,6.5,2.2c2.1,0.8,3.1,3-0.6,5.7c-4.2,3.2-8.1,6.3-13.4,11.2
			c-9.5,8.8-22.3,22.7-28.9,42.8c-0.1,0.2-0.1,0.3-0.2,0.4c0.8,0.1,1.5,0.2,2.3,0.2h96.7c6.9,0,12.6-5.7,12.6-12.6V123.1H1030.9z"/>
	</g>
</g>
<g id="inverse" display="none">
	<rect x="138.1" y="29.6" display="inline" width="1011.4" height="321.9"/>
	<g display="inline">
		<path fill="#FFFFFF" d="M299,229.9c0,2.5,0,7.3,0,10c0,3-2.6,5.5-5.6,5.5c-7.2,0-52.1,0-52.1,0c-13.2,0-22.8-11-22.8-23v-47.5
			c0-12.5,10.1-22.9,22.9-22.9c0,0,46.1,0,52.1,0c3.3,0,5.5,2.7,5.5,5.5c0,2.8,0,7.3,0,10c0,2.8-2.2,5.4-5.5,5.4
			c-6.8,0-44.9,0-44.9,0c-3,0-5.5,2.3-5.5,5.5c0,0,0,37.6,0,40.7c0,3,2.5,5.4,5.5,5.4c0,0,36.9,0,44.7,0
			C296.6,224.5,299,227,299,229.9z"/>
		<path fill="#FFFFFF" d="M382.5,151.9c0,0-54.3,0-60.4,0c-3.3,0-5.5,2.7-5.5,5.5c0,2.6,0,7.4,0,10c0,2.9,2.3,5.4,5.5,5.4
			c7.7,0,53.2,0,53.2,0c3.3,0,5.5,2.7,5.5,5.5c0,1.5,0,6.6,0,6.6h-45.3c-11.9,0-23,9.3-23,22.9v14.6c0,12.6,10.1,23,23,23h70v-70.5
			C405.4,163.1,396.1,151.9,382.5,151.9z M342.4,224.5c-3.2,0-5.5-2.6-5.5-5.4c0-2,0-5.9,0-7.8c0-3,2.5-5.4,5.5-5.4h38.4v18.6
			L342.4,224.5L342.4,224.5z"/>
		<path fill="#FFFFFF" d="M474.4,229.5c0,3,0,7.1,0,10.3c0,3-2.3,5.5-5.6,5.5h-25.1c-13.3,0-22.9-10.3-22.9-23c0-10.8,0-99.3,0-99.3
			H446v28.9c0,0,10.4,0,18,0c3.1,0,5.4,2.5,5.4,5.5c0,3,0,6.7,0,10c0,3.1-2.5,5.4-5.5,5.4c-7.5,0-17.9,0-17.9,0v45.8
			c0,3.4,2.8,5.4,5.4,5.4c2.9,0,17.5,0,17.5,0C471.9,224,474.4,226.4,474.4,229.5z"/>
		<path fill="#FFFFFF" d="M554.9,151.9c0,0-54.3,0-60.4,0c-3.3,0-5.5,2.7-5.5,5.5c0,2.6,0,7.4,0,10c0,2.9,2.3,5.4,5.5,5.4
			c7.7,0,53.2,0,53.2,0c3.3,0,5.5,2.7,5.5,5.5c0,1.5,0,6.6,0,6.6h-45.3c-11.9,0-22.9,9.3-22.9,22.9v14.6c0,12.6,10.1,23,22.9,23h70
			v-70.5C577.8,163.1,568.5,151.9,554.9,151.9z M514.7,224.5c-3.2,0-5.5-2.6-5.5-5.4c0-2,0-5.9,0-7.8c0-3,2.4-5.4,5.5-5.4h38.4v18.6
			L514.7,224.5L514.7,224.5z"/>
		<rect x="595" y="123.1" fill="#FFFFFF" width="24.5" height="122.3"/>
		<path fill="#FFFFFF" d="M727.9,157.1c0,2.5,0,98.9,0,98.9c0,12.2-9.5,23-23,23c0,0-54.8,0-60.7,0c-3,0-5.5-2.5-5.5-5.4
			c0-2.6,0-7.2,0-9.9c0-2.7,2.3-5.4,5.5-5.4c6.4,0,52,0,52,0c3.1,0,5.4-2.5,5.4-5.5v-7.7h-44.4c-12.7,0-23-10-23-22.9
			c0,0,0-62.4,0-65c0-2.9,2.3-5.4,5.4-5.4c6.5,0,7.3,0,13.7,0c3.4,0,5.5,2.8,5.5,5.4c0,2.3,0,61.7,0,61.7c0,2.8,2.3,5.4,5.5,5.4H702
			c0,0,0-64.8,0-67.2c0-2.8,2.2-5.4,5.4-5.4c6.4,0,7.9,0,15,0C725.8,151.7,727.9,154.5,727.9,157.1z"/>
		<path fill="#FFFFFF" d="M838.2,222.4c0,11.4-9,23-23,23c0,0-60.2,0-67.4,0c-3.3,0-5.4-2.8-5.4-5.5c0-2.5,0-7.2,0-10
			c0-2.7,2.2-5.4,5.4-5.4c6,0,61.9,0,61.9,0c3.1,0,5.5-2.5,5.5-5.4c0-1.9,0-5.7,0-7.5c0-3.1-2.5-5.4-5.5-5.4h-44.4
			c-13.2,0-22.9-10.8-22.9-23v-8.4c0-11.8,9.4-22.9,22.9-22.9c0,0,61.5,0,67.4,0c3.3,0,5.5,2.7,5.5,5.4c0,2.6,0,7.4,0,10
			c0,2.8-2.2,5.5-5.5,5.5c-5.4,0-60.8,0-60.8,0c-3.1,0-5.5,2.4-5.5,5.5c0,0.2,0,1.1,0,1.6c0,3,2.4,5.4,5.5,5.4h43.3
			c13.6,0,23,11,23,23L838.2,222.4L838.2,222.4z"/>
		<path fill="#FFFFFF" d="M922.6,229.5c0,3,0,7.1,0,10.3c0,3-2.3,5.5-5.6,5.5h-41.3c-13.3,0-23-10.3-23-23c0-10.8,0-99.3,0-99.3
			h25.2v28.9c0,0,10.4,0,18,0c3.1,0,5.4,2.5,5.4,5.5c0,3,0,6.7,0,10c0,3.1-2.4,5.4-5.5,5.4c-7.5,0-17.9,0-17.9,0v45.8
			c0,3.4,2.8,5.4,5.5,5.4c2.9,0,33.7,0,33.7,0C920.1,224,922.6,226.4,922.6,229.5z"/>
	</g>
	<g display="inline">
		<path fill="#BB2025" d="M957.2,244.5c3.1-13.1,6.7-24,11-33.8c0,0,0,0-0.1,0c-0.3-0.1-3.7-1.3-4-1.4c-1.1-0.5-2.6-3.2-1.2-8.1
			c2.6-8.7,6.5-18.6,10-25.7c-0.1,0-3.1-1-4.7-1.6c-2.5-1-3.7-5.6-2.6-8.8c2.1-6.4,12-27.6,21-42h-27c-6.9,0-12.6,5.7-12.6,12.6
			v96.7c0,6,4.4,11.2,10.1,12.4C957.2,244.6,957.2,244.6,957.2,244.5z"/>
		<path fill="#BB2025" d="M1030.9,123.1c-0.2,0.2-0.5,0.4-0.7,0.7c-6,5.4-20.2,20.7-20.4,20.8c0.2,0.1,6.4,2,6.7,2.2
			c4.8,1.7,4.1,5.4,1.2,8.5c-17.2,18.6-23.7,27.1-23.8,27.2c0.2,0,6.2,2.1,6.5,2.2c2.1,0.8,3.1,3-0.6,5.7
			c-4.2,3.2-8.1,6.3-13.4,11.2c-9.5,8.8-22.3,22.7-28.9,42.8c-0.1,0.2-0.1,0.3-0.2,0.4c0.8,0.1,1.5,0.2,2.3,0.2h96.7
			c6.9,0,12.6-5.7,12.6-12.6V123.1H1030.9z"/>
	</g>
</g>
<g>
	<path fill="#50433C" d="M403.9,120.2c1.6,0,3.1,0.3,4.4,0.8c1.3,0.6,2.4,1.3,3.3,2.4c0.9,1,1.6,2.3,2,3.7c0.5,1.4,0.7,3.1,0.7,4.8
		c0,1.8-0.2,3.4-0.7,4.8c-0.5,1.4-1.1,2.7-2,3.7c-0.9,1-2,1.8-3.3,2.4c-1.3,0.5-2.8,0.8-4.4,0.8c-1.6,0-3.1-0.3-4.4-0.8
		c-1.3-0.6-2.4-1.3-3.3-2.4c-0.9-1-1.6-2.3-2-3.7c-0.5-1.4-0.7-3-0.7-4.8c0-1.8,0.2-3.4,0.7-4.8c0.5-1.4,1.1-2.7,2-3.7
		c0.9-1,2-1.8,3.3-2.4C400.8,120.4,402.3,120.2,403.9,120.2z M403.9,141.9c1.4,0,2.5-0.2,3.6-0.7c1-0.5,1.9-1.1,2.5-2
		c0.7-0.9,1.2-1.9,1.5-3.1c0.3-1.2,0.5-2.6,0.5-4.1c0-1.5-0.2-2.9-0.5-4.1c-0.3-1.2-0.8-2.3-1.5-3.2c-0.7-0.9-1.5-1.6-2.5-2
		c-1-0.5-2.2-0.7-3.6-0.7c-1.4,0-2.5,0.2-3.6,0.7c-1,0.5-1.9,1.1-2.5,2c-0.7,0.9-1.2,1.9-1.5,3.2c-0.3,1.2-0.5,2.6-0.5,4.1
		c0,1.5,0.2,2.9,0.5,4.1c0.3,1.2,0.9,2.3,1.5,3.1c0.7,0.9,1.5,1.5,2.5,2C401.4,141.7,402.5,141.9,403.9,141.9z"/>
	<path fill="#50433C" d="M419.1,151.4v-30.9h1.2c0.2,0,0.4,0,0.5,0.1c0.1,0.1,0.2,0.2,0.2,0.4l0.2,3.5c1-1.4,2.2-2.5,3.5-3.3
		c1.4-0.8,2.9-1.2,4.5-1.2c2.8,0,5,1,6.6,2.9c1.6,1.9,2.3,4.8,2.3,8.7c0,1.7-0.2,3.2-0.7,4.7c-0.4,1.4-1.1,2.7-1.9,3.8
		c-0.8,1.1-1.9,1.9-3.1,2.5c-1.2,0.6-2.6,0.9-4.2,0.9c-1.6,0-2.9-0.3-4-0.8c-1.1-0.6-2.1-1.4-2.9-2.5v11.1H419.1z M428.6,121.9
		c-1.5,0-2.9,0.4-4.1,1.2c-1.2,0.8-2.3,1.9-3.3,3.3v12c0.9,1.3,1.8,2.2,2.9,2.8c1.1,0.5,2.3,0.8,3.6,0.8c1.3,0,2.5-0.2,3.5-0.7
		c1-0.5,1.9-1.2,2.5-2.1c0.7-0.9,1.2-2,1.5-3.2c0.3-1.2,0.5-2.6,0.5-4.1c0-3.4-0.6-5.9-1.9-7.5C432.8,122.7,431,121.9,428.6,121.9z"
		/>
	<path fill="#50433C" d="M452.2,120.2c1.3,0,2.5,0.2,3.6,0.7c1.1,0.4,2,1.1,2.8,1.9s1.4,1.9,1.9,3.1c0.5,1.2,0.7,2.7,0.7,4.3
		c0,0.3,0,0.6-0.1,0.7c-0.1,0.1-0.3,0.2-0.5,0.2h-16.4v0.4c0,1.7,0.2,3.2,0.6,4.5c0.4,1.3,1,2.4,1.7,3.3c0.7,0.9,1.6,1.5,2.7,2
		c1,0.4,2.2,0.7,3.5,0.7c1.1,0,2.1-0.1,3-0.4c0.8-0.3,1.5-0.5,2.1-0.8c0.6-0.3,1-0.6,1.4-0.8c0.3-0.3,0.6-0.4,0.7-0.4
		c0.2,0,0.4,0.1,0.5,0.2l0.6,0.7c-0.4,0.5-0.9,0.9-1.5,1.3c-0.6,0.4-1.3,0.7-2,1c-0.7,0.3-1.5,0.5-2.4,0.7c-0.8,0.2-1.7,0.3-2.6,0.3
		c-1.6,0-3-0.3-4.3-0.8c-1.3-0.5-2.4-1.3-3.3-2.4c-0.9-1-1.6-2.3-2.1-3.8c-0.5-1.5-0.8-3.2-0.8-5.2c0-1.6,0.2-3.1,0.7-4.5
		c0.5-1.4,1.1-2.6,2-3.6c0.9-1,2-1.8,3.2-2.3C449.1,120.5,450.6,120.2,452.2,120.2z M452.2,121.8c-1.2,0-2.2,0.2-3.2,0.6
		c-0.9,0.4-1.7,0.9-2.4,1.6c-0.7,0.7-1.2,1.5-1.6,2.5c-0.4,1-0.7,2-0.8,3.2h15c0-1.2-0.2-2.3-0.5-3.3c-0.3-1-0.8-1.8-1.4-2.5
		c-0.6-0.7-1.3-1.2-2.2-1.5C454.2,122,453.2,121.8,452.2,121.8z"/>
	<path fill="#50433C" d="M467,143.3v-22.8h1.2c0.4,0,0.6,0.2,0.7,0.6l0.2,3.4c1-1.3,2.2-2.4,3.6-3.2c1.4-0.8,2.9-1.2,4.6-1.2
		c1.3,0,2.4,0.2,3.3,0.6c1,0.4,1.7,1,2.4,1.7c0.6,0.7,1.1,1.6,1.4,2.7c0.3,1.1,0.5,2.2,0.5,3.6v14.6h-2.2v-14.6c0-2.1-0.5-3.8-1.5-5
		c-1-1.2-2.5-1.8-4.5-1.8c-1.5,0-2.9,0.4-4.2,1.2c-1.3,0.8-2.4,1.8-3.4,3.2v17.1H467z"/>
	<path fill="#50433C" d="M513.2,123.4c-0.1,0.2-0.3,0.3-0.5,0.3c-0.2,0-0.4-0.1-0.7-0.3c-0.3-0.2-0.6-0.4-1.1-0.6
		c-0.4-0.2-1-0.5-1.6-0.6c-0.6-0.2-1.4-0.3-2.3-0.3c-0.8,0-1.6,0.1-2.3,0.4c-0.7,0.2-1.3,0.6-1.7,0.9c-0.5,0.4-0.9,0.9-1.1,1.4
		c-0.3,0.5-0.4,1.1-0.4,1.7c0,0.7,0.2,1.3,0.5,1.8c0.4,0.5,0.8,0.9,1.4,1.2c0.6,0.3,1.3,0.6,2,0.9c0.8,0.2,1.5,0.5,2.3,0.7
		c0.8,0.2,1.6,0.5,2.3,0.8c0.8,0.3,1.4,0.7,2,1.1c0.6,0.4,1.1,1,1.4,1.6c0.4,0.6,0.5,1.4,0.5,2.3c0,1-0.2,1.9-0.5,2.8
		c-0.4,0.9-0.9,1.6-1.6,2.2c-0.7,0.6-1.5,1.1-2.5,1.5c-1,0.4-2.1,0.5-3.4,0.5c-1.6,0-3-0.3-4.1-0.8c-1.2-0.5-2.2-1.2-3.1-2l0.5-0.8
		c0.1-0.1,0.2-0.2,0.3-0.3c0.1-0.1,0.2-0.1,0.4-0.1c0.2,0,0.4,0.1,0.7,0.4c0.3,0.2,0.7,0.5,1.1,0.8c0.5,0.3,1,0.5,1.7,0.8
		c0.7,0.2,1.6,0.4,2.6,0.4c1,0,1.8-0.1,2.5-0.4c0.7-0.3,1.3-0.6,1.8-1.1c0.5-0.5,0.9-1,1.1-1.6c0.3-0.6,0.4-1.3,0.4-2
		c0-0.8-0.2-1.4-0.5-1.9c-0.4-0.5-0.8-0.9-1.4-1.3c-0.6-0.4-1.3-0.6-2-0.9c-0.8-0.2-1.5-0.5-2.3-0.7c-0.8-0.2-1.6-0.5-2.3-0.8
		c-0.8-0.3-1.4-0.7-2-1.1c-0.6-0.4-1.1-1-1.4-1.6c-0.4-0.6-0.5-1.4-0.5-2.4c0-0.8,0.2-1.6,0.5-2.3c0.4-0.7,0.9-1.4,1.5-2
		c0.6-0.6,1.4-1,2.4-1.4c0.9-0.3,2-0.5,3.1-0.5c1.4,0,2.6,0.2,3.7,0.6c1.1,0.4,2.1,1,3,1.8L513.2,123.4z"/>
	<path fill="#50433C" d="M529,120.2c1.6,0,3.1,0.3,4.4,0.8c1.3,0.6,2.4,1.3,3.3,2.4c0.9,1,1.6,2.3,2,3.7c0.5,1.4,0.7,3.1,0.7,4.8
		c0,1.8-0.2,3.4-0.7,4.8c-0.5,1.4-1.1,2.7-2,3.7c-0.9,1-2,1.8-3.3,2.4c-1.3,0.5-2.8,0.8-4.4,0.8c-1.6,0-3.1-0.3-4.4-0.8
		c-1.3-0.6-2.4-1.3-3.3-2.4c-0.9-1-1.6-2.3-2-3.7c-0.5-1.4-0.7-3-0.7-4.8c0-1.8,0.2-3.4,0.7-4.8c0.5-1.4,1.1-2.7,2-3.7
		c0.9-1,2-1.8,3.3-2.4C525.9,120.4,527.4,120.2,529,120.2z M529,141.9c1.4,0,2.5-0.2,3.6-0.7c1-0.5,1.9-1.1,2.5-2
		c0.7-0.9,1.2-1.9,1.5-3.1c0.3-1.2,0.5-2.6,0.5-4.1c0-1.5-0.2-2.9-0.5-4.1c-0.3-1.2-0.8-2.3-1.5-3.2c-0.7-0.9-1.5-1.6-2.5-2
		c-1-0.5-2.2-0.7-3.6-0.7c-1.4,0-2.5,0.2-3.6,0.7c-1,0.5-1.9,1.1-2.5,2c-0.7,0.9-1.2,1.9-1.5,3.2c-0.3,1.2-0.5,2.6-0.5,4.1
		c0,1.5,0.2,2.9,0.5,4.1c0.3,1.2,0.9,2.3,1.5,3.1c0.7,0.9,1.5,1.5,2.5,2C526.4,141.7,527.6,141.9,529,141.9z"/>
	<path fill="#50433C" d="M546.7,120.5v14.6c0,2.1,0.5,3.8,1.5,5c1,1.2,2.5,1.8,4.5,1.8c1.5,0,2.9-0.4,4.2-1.1
		c1.3-0.8,2.4-1.8,3.5-3.1v-17.1h2.2v22.8h-1.2c-0.4,0-0.6-0.2-0.7-0.6l-0.2-3.4c-1.1,1.3-2.3,2.4-3.7,3.2c-1.4,0.8-2.9,1.2-4.6,1.2
		c-1.3,0-2.4-0.2-3.3-0.6c-0.9-0.4-1.7-1-2.4-1.7c-0.6-0.7-1.1-1.6-1.4-2.7c-0.3-1.1-0.5-2.2-0.5-3.6v-14.6H546.7z"/>
	<path fill="#50433C" d="M569.9,143.3v-22.8h1.1c0.3,0,0.4,0.1,0.6,0.2c0.1,0.1,0.2,0.3,0.2,0.5l0.2,4.8c0.7-1.8,1.7-3.3,2.9-4.3
		c1.2-1,2.7-1.6,4.5-1.6c0.7,0,1.3,0.1,1.9,0.2c0.6,0.1,1.1,0.4,1.6,0.6l-0.3,1.5c0,0.2-0.2,0.4-0.5,0.4c-0.1,0-0.2,0-0.4-0.1
		c-0.2-0.1-0.4-0.1-0.6-0.2c-0.3-0.1-0.6-0.1-0.9-0.2c-0.4-0.1-0.8-0.1-1.3-0.1c-1.7,0-3.1,0.5-4.2,1.6c-1.1,1.1-2,2.6-2.7,4.6v14.8
		H569.9z"/>
	<path fill="#50433C" d="M602.1,123.6c-0.1,0.1-0.1,0.1-0.2,0.2c-0.1,0.1-0.2,0.1-0.3,0.1c-0.2,0-0.4-0.1-0.6-0.3
		c-0.3-0.2-0.6-0.4-1.1-0.7c-0.4-0.2-1-0.5-1.7-0.7c-0.7-0.2-1.5-0.3-2.4-0.3c-1.3,0-2.5,0.2-3.5,0.7c-1,0.5-1.9,1.1-2.6,2
		c-0.7,0.9-1.2,1.9-1.6,3.2c-0.4,1.2-0.6,2.6-0.6,4.2c0,1.6,0.2,3,0.6,4.3c0.4,1.2,0.9,2.3,1.6,3.1c0.7,0.8,1.5,1.5,2.5,1.9
		c1,0.4,2.1,0.7,3.3,0.7c1.1,0,2-0.1,2.8-0.4c0.7-0.3,1.4-0.5,1.8-0.8c0.5-0.3,0.9-0.6,1.1-0.8c0.3-0.3,0.5-0.4,0.7-0.4
		c0.2,0,0.4,0.1,0.5,0.2l0.6,0.7c-0.4,0.5-0.8,0.9-1.3,1.3c-0.5,0.4-1.1,0.7-1.8,1c-0.7,0.3-1.4,0.5-2.2,0.7
		c-0.8,0.2-1.6,0.2-2.5,0.2c-1.5,0-2.8-0.3-4-0.8c-1.2-0.5-2.2-1.3-3.1-2.3c-0.9-1-1.5-2.2-2-3.7c-0.5-1.5-0.7-3.1-0.7-4.9
		c0-1.7,0.2-3.3,0.7-4.8c0.5-1.4,1.1-2.7,2-3.7c0.9-1,2-1.8,3.2-2.4c1.3-0.6,2.7-0.9,4.4-0.9c1.5,0,2.8,0.2,4,0.7
		c1.2,0.5,2.2,1.1,3,1.9L602.1,123.6z"/>
	<path fill="#50433C" d="M616.6,120.2c1.3,0,2.5,0.2,3.6,0.7c1.1,0.4,2,1.1,2.8,1.9s1.4,1.9,1.9,3.1c0.5,1.2,0.7,2.7,0.7,4.3
		c0,0.3,0,0.6-0.1,0.7c-0.1,0.1-0.3,0.2-0.5,0.2h-16.4v0.4c0,1.7,0.2,3.2,0.6,4.5c0.4,1.3,1,2.4,1.7,3.3c0.7,0.9,1.6,1.5,2.7,2
		c1,0.4,2.2,0.7,3.5,0.7c1.1,0,2.1-0.1,3-0.4c0.8-0.3,1.5-0.5,2.1-0.8c0.6-0.3,1-0.6,1.4-0.8c0.3-0.3,0.6-0.4,0.7-0.4
		c0.2,0,0.4,0.1,0.5,0.2l0.6,0.7c-0.4,0.5-0.9,0.9-1.5,1.3c-0.6,0.4-1.3,0.7-2,1c-0.7,0.3-1.5,0.5-2.4,0.7c-0.8,0.2-1.7,0.3-2.6,0.3
		c-1.6,0-3-0.3-4.3-0.8c-1.3-0.5-2.4-1.3-3.3-2.4c-0.9-1-1.6-2.3-2.1-3.8c-0.5-1.5-0.8-3.2-0.8-5.2c0-1.6,0.2-3.1,0.7-4.5
		c0.5-1.4,1.1-2.6,2-3.6c0.9-1,2-1.8,3.2-2.3C613.5,120.5,615,120.2,616.6,120.2z M616.6,121.8c-1.2,0-2.2,0.2-3.2,0.6
		c-0.9,0.4-1.7,0.9-2.4,1.6c-0.7,0.7-1.2,1.5-1.6,2.5c-0.4,1-0.7,2-0.8,3.2h15c0-1.2-0.2-2.3-0.5-3.3c-0.3-1-0.8-1.8-1.4-2.5
		c-0.6-0.7-1.3-1.2-2.2-1.5C618.6,122,617.6,121.8,616.6,121.8z"/>
	<path fill="#50433C" d="M646.4,143.7c-1.5,0-2.7-0.4-3.6-1.3c-0.9-0.9-1.3-2.2-1.3-4v-15.6h-3.3c-0.2,0-0.3,0-0.4-0.1
		c-0.1-0.1-0.2-0.2-0.2-0.4v-0.8l3.9-0.3l0.5-8.2c0-0.1,0.1-0.3,0.2-0.4c0.1-0.1,0.2-0.2,0.4-0.2h1v8.7h7.2v1.6h-7.2v15.5
		c0,0.6,0.1,1.2,0.2,1.6c0.2,0.5,0.4,0.8,0.7,1.1c0.3,0.3,0.6,0.5,1,0.6c0.4,0.1,0.8,0.2,1.2,0.2c0.5,0,1-0.1,1.4-0.2
		c0.4-0.2,0.7-0.3,1-0.5c0.3-0.2,0.5-0.4,0.7-0.5c0.2-0.2,0.3-0.2,0.4-0.2c0.1,0,0.2,0.1,0.4,0.2l0.6,1c-0.6,0.6-1.3,1.2-2.2,1.5
		C648.3,143.5,647.4,143.7,646.4,143.7z"/>
	<path fill="#50433C" d="M665.2,120.2c1.3,0,2.5,0.2,3.6,0.7c1.1,0.4,2,1.1,2.8,1.9s1.4,1.9,1.9,3.1c0.5,1.2,0.7,2.7,0.7,4.3
		c0,0.3,0,0.6-0.1,0.7c-0.1,0.1-0.3,0.2-0.5,0.2H657v0.4c0,1.7,0.2,3.2,0.6,4.5c0.4,1.3,1,2.4,1.7,3.3c0.7,0.9,1.6,1.5,2.7,2
		c1,0.4,2.2,0.7,3.5,0.7c1.1,0,2.1-0.1,3-0.4c0.8-0.3,1.5-0.5,2.1-0.8c0.6-0.3,1-0.6,1.4-0.8c0.3-0.3,0.6-0.4,0.7-0.4
		c0.2,0,0.4,0.1,0.5,0.2l0.6,0.7c-0.4,0.5-0.9,0.9-1.5,1.3c-0.6,0.4-1.3,0.7-2,1c-0.7,0.3-1.5,0.5-2.4,0.7c-0.8,0.2-1.7,0.3-2.6,0.3
		c-1.6,0-3-0.3-4.3-0.8c-1.3-0.5-2.4-1.3-3.3-2.4c-0.9-1-1.6-2.3-2.1-3.8c-0.5-1.5-0.8-3.2-0.8-5.2c0-1.6,0.2-3.1,0.7-4.5
		c0.5-1.4,1.1-2.6,2-3.6c0.9-1,2-1.8,3.2-2.3C662.1,120.5,663.5,120.2,665.2,120.2z M665.2,121.8c-1.2,0-2.2,0.2-3.2,0.6
		c-0.9,0.4-1.7,0.9-2.4,1.6c-0.7,0.7-1.2,1.5-1.6,2.5c-0.4,1-0.7,2-0.8,3.2h15c0-1.2-0.2-2.3-0.5-3.3c-0.3-1-0.8-1.8-1.4-2.5
		c-0.6-0.7-1.3-1.2-2.2-1.5C667.2,122,666.2,121.8,665.2,121.8z"/>
	<path fill="#50433C" d="M695,123.6c-0.1,0.1-0.1,0.1-0.2,0.2c-0.1,0.1-0.2,0.1-0.3,0.1c-0.2,0-0.4-0.1-0.6-0.3
		c-0.3-0.2-0.6-0.4-1.1-0.7c-0.4-0.2-1-0.5-1.7-0.7c-0.7-0.2-1.5-0.3-2.4-0.3c-1.3,0-2.5,0.2-3.5,0.7c-1,0.5-1.9,1.1-2.6,2
		c-0.7,0.9-1.2,1.9-1.6,3.2c-0.4,1.2-0.5,2.6-0.5,4.2c0,1.6,0.2,3,0.6,4.3c0.4,1.2,0.9,2.3,1.6,3.1c0.7,0.8,1.5,1.5,2.5,1.9
		c1,0.4,2.1,0.7,3.3,0.7c1.1,0,2-0.1,2.8-0.4c0.7-0.3,1.4-0.5,1.8-0.8c0.5-0.3,0.9-0.6,1.1-0.8c0.3-0.3,0.5-0.4,0.7-0.4
		c0.2,0,0.4,0.1,0.5,0.2l0.6,0.7c-0.4,0.5-0.8,0.9-1.3,1.3c-0.5,0.4-1.1,0.7-1.8,1c-0.7,0.3-1.4,0.5-2.2,0.7
		c-0.8,0.2-1.6,0.2-2.5,0.2c-1.5,0-2.8-0.3-4-0.8c-1.2-0.5-2.2-1.3-3.1-2.3c-0.9-1-1.5-2.2-2-3.7c-0.5-1.5-0.7-3.1-0.7-4.9
		c0-1.7,0.2-3.3,0.7-4.8c0.5-1.4,1.1-2.7,2-3.7c0.9-1,2-1.8,3.2-2.4c1.3-0.6,2.7-0.9,4.4-0.9c1.5,0,2.8,0.2,4,0.7
		c1.2,0.5,2.2,1.1,3,1.9L695,123.6z"/>
	<path fill="#50433C" d="M700.8,143.3V110h2.2v14.4c1.1-1.3,2.3-2.3,3.6-3.1c1.4-0.8,2.9-1.2,4.5-1.2c1.3,0,2.4,0.2,3.3,0.6
		c1,0.4,1.7,1,2.4,1.7c0.6,0.7,1.1,1.6,1.4,2.7c0.3,1.1,0.5,2.2,0.5,3.6v14.6h-2.2v-14.6c0-2.1-0.5-3.8-1.5-5
		c-1-1.2-2.5-1.8-4.5-1.8c-1.5,0-2.9,0.4-4.2,1.2c-1.3,0.8-2.4,1.8-3.4,3.2v17.1H700.8z"/>
	<path fill="#50433C" d="M725.6,143.3v-22.8h1.2c0.4,0,0.6,0.2,0.7,0.6l0.2,3.4c1-1.3,2.2-2.4,3.6-3.2c1.4-0.8,2.9-1.2,4.6-1.2
		c1.3,0,2.4,0.2,3.3,0.6c1,0.4,1.7,1,2.4,1.7c0.6,0.7,1.1,1.6,1.4,2.7c0.3,1.1,0.5,2.2,0.5,3.6v14.6h-2.2v-14.6c0-2.1-0.5-3.8-1.5-5
		c-1-1.2-2.5-1.8-4.5-1.8c-1.5,0-2.9,0.4-4.2,1.2c-1.3,0.8-2.4,1.8-3.4,3.2v17.1H725.6z"/>
	<path fill="#50433C" d="M759.1,120.2c1.6,0,3.1,0.3,4.4,0.8c1.3,0.6,2.4,1.3,3.3,2.4c0.9,1,1.6,2.3,2,3.7c0.5,1.4,0.7,3.1,0.7,4.8
		c0,1.8-0.2,3.4-0.7,4.8c-0.5,1.4-1.1,2.7-2,3.7c-0.9,1-2,1.8-3.3,2.4c-1.3,0.5-2.8,0.8-4.4,0.8c-1.6,0-3.1-0.3-4.4-0.8
		c-1.3-0.6-2.4-1.3-3.3-2.4c-0.9-1-1.6-2.3-2-3.7c-0.5-1.4-0.7-3-0.7-4.8c0-1.8,0.2-3.4,0.7-4.8c0.5-1.4,1.1-2.7,2-3.7
		c0.9-1,2-1.8,3.3-2.4C756,120.4,757.4,120.2,759.1,120.2z M759.1,141.9c1.4,0,2.5-0.2,3.6-0.7c1-0.5,1.9-1.1,2.5-2
		c0.7-0.9,1.2-1.9,1.5-3.1c0.3-1.2,0.5-2.6,0.5-4.1c0-1.5-0.2-2.9-0.5-4.1c-0.3-1.2-0.8-2.3-1.5-3.2c-0.7-0.9-1.5-1.6-2.5-2
		c-1-0.5-2.2-0.7-3.6-0.7c-1.4,0-2.5,0.2-3.6,0.7c-1,0.5-1.9,1.1-2.5,2c-0.7,0.9-1.2,1.9-1.5,3.2c-0.3,1.2-0.5,2.6-0.5,4.1
		c0,1.5,0.2,2.9,0.5,4.1c0.3,1.2,0.9,2.3,1.5,3.1c0.7,0.9,1.5,1.5,2.5,2C756.5,141.7,757.7,141.9,759.1,141.9z"/>
	<path fill="#50433C" d="M778,110v33.3h-2.2V110H778z"/>
	<path fill="#50433C" d="M793.8,120.2c1.6,0,3.1,0.3,4.4,0.8c1.3,0.6,2.4,1.3,3.3,2.4c0.9,1,1.6,2.3,2,3.7c0.5,1.4,0.7,3.1,0.7,4.8
		c0,1.8-0.2,3.4-0.7,4.8c-0.5,1.4-1.1,2.7-2,3.7c-0.9,1-2,1.8-3.3,2.4c-1.3,0.5-2.8,0.8-4.4,0.8c-1.6,0-3.1-0.3-4.4-0.8
		c-1.3-0.6-2.4-1.3-3.3-2.4c-0.9-1-1.6-2.3-2-3.7c-0.5-1.4-0.7-3-0.7-4.8c0-1.8,0.2-3.4,0.7-4.8c0.5-1.4,1.1-2.7,2-3.7
		c0.9-1,2-1.8,3.3-2.4C790.7,120.4,792.2,120.2,793.8,120.2z M793.8,141.9c1.4,0,2.5-0.2,3.6-0.7c1-0.5,1.9-1.1,2.5-2
		c0.7-0.9,1.2-1.9,1.5-3.1c0.3-1.2,0.5-2.6,0.5-4.1c0-1.5-0.2-2.9-0.5-4.1c-0.3-1.2-0.8-2.3-1.5-3.2c-0.7-0.9-1.5-1.6-2.5-2
		c-1-0.5-2.2-0.7-3.6-0.7c-1.4,0-2.5,0.2-3.6,0.7c-1,0.5-1.9,1.1-2.5,2c-0.7,0.9-1.2,1.9-1.5,3.2c-0.3,1.2-0.5,2.6-0.5,4.1
		c0,1.5,0.2,2.9,0.5,4.1c0.3,1.2,0.9,2.3,1.5,3.1c0.7,0.9,1.5,1.5,2.5,2C791.3,141.7,792.4,141.9,793.8,141.9z"/>
	<path fill="#50433C" d="M817.4,120.1c1,0,1.9,0.1,2.8,0.4c0.8,0.2,1.6,0.6,2.3,1h5.8v0.8c0,0.4-0.2,0.6-0.6,0.6l-3.5,0.3
		c0.4,0.6,0.8,1.2,1,2c0.2,0.7,0.3,1.5,0.3,2.3c0,1.1-0.2,2.1-0.6,3c-0.4,0.9-1,1.7-1.7,2.3c-0.7,0.6-1.6,1.1-2.6,1.5
		c-1,0.4-2.1,0.5-3.3,0.5c-1.3,0-2.5-0.2-3.6-0.6c-0.6,0.4-1.1,0.8-1.5,1.3c-0.4,0.5-0.5,1-0.5,1.5c0,0.7,0.2,1.2,0.7,1.5
		c0.5,0.4,1.1,0.6,1.8,0.8c0.8,0.2,1.6,0.3,2.6,0.3c1,0,2,0.1,3,0.1c1,0.1,2,0.1,3,0.3c1,0.1,1.8,0.4,2.6,0.7
		c0.8,0.3,1.4,0.8,1.8,1.4c0.5,0.6,0.7,1.4,0.7,2.5c0,0.9-0.2,1.9-0.7,2.7c-0.5,0.9-1.2,1.6-2,2.3c-0.9,0.7-2,1.2-3.2,1.6
		c-1.3,0.4-2.7,0.6-4.3,0.6c-1.6,0-3-0.2-4.2-0.5c-1.2-0.3-2.2-0.8-3-1.3c-0.8-0.6-1.4-1.2-1.8-1.9c-0.4-0.7-0.6-1.5-0.6-2.3
		c0-1.2,0.4-2.2,1.2-3.1c0.8-0.9,1.9-1.5,3.3-2c-0.8-0.3-1.4-0.6-1.8-1.1c-0.5-0.5-0.7-1.2-0.7-2c0-0.3,0.1-0.7,0.2-1
		c0.1-0.4,0.3-0.7,0.5-1c0.2-0.3,0.5-0.7,0.9-1c0.3-0.3,0.7-0.6,1.2-0.8c-1.1-0.6-1.9-1.5-2.5-2.5c-0.6-1-0.9-2.3-0.9-3.6
		c0-1.1,0.2-2.1,0.6-3c0.4-0.9,0.9-1.7,1.6-2.3c0.7-0.6,1.6-1.1,2.6-1.5C815.1,120.3,816.2,120.1,817.4,120.1z M825.9,144.9
		c0-0.7-0.2-1.3-0.6-1.7c-0.4-0.4-0.9-0.8-1.5-1c-0.6-0.2-1.3-0.4-2.2-0.5c-0.8-0.1-1.7-0.2-2.6-0.2c-0.9,0-1.8-0.1-2.7-0.1
		c-0.9,0-1.7-0.1-2.5-0.3c-0.6,0.2-1.1,0.5-1.6,0.8c-0.5,0.3-0.9,0.6-1.3,1c-0.4,0.4-0.6,0.8-0.8,1.2c-0.2,0.5-0.3,0.9-0.3,1.5
		c0,0.7,0.2,1.3,0.5,1.9c0.3,0.6,0.8,1.1,1.5,1.5c0.7,0.4,1.5,0.8,2.4,1c1,0.2,2.1,0.4,3.3,0.4c1.2,0,2.2-0.1,3.2-0.4
		c1-0.3,1.9-0.6,2.6-1.1c0.7-0.5,1.3-1,1.7-1.7C825.7,146.4,825.9,145.6,825.9,144.9z M817.4,133.2c1,0,1.8-0.1,2.6-0.4
		c0.8-0.3,1.4-0.7,1.9-1.2c0.5-0.5,0.9-1.1,1.2-1.8c0.3-0.7,0.4-1.5,0.4-2.3c0-0.9-0.1-1.6-0.4-2.3c-0.3-0.7-0.7-1.3-1.2-1.8
		c-0.5-0.5-1.2-0.9-1.9-1.2c-0.8-0.3-1.6-0.4-2.6-0.4c-1,0-1.8,0.1-2.6,0.4c-0.8,0.3-1.4,0.7-1.9,1.2c-0.5,0.5-0.9,1.1-1.2,1.8
		c-0.3,0.7-0.4,1.5-0.4,2.3c0,0.9,0.1,1.6,0.4,2.3c0.3,0.7,0.7,1.3,1.2,1.8c0.5,0.5,1.2,0.9,1.9,1.2
		C815.6,133.1,816.5,133.2,817.4,133.2z"/>
	<path fill="#50433C" d="M836.8,112.7c0,0.3-0.1,0.5-0.2,0.8c-0.1,0.2-0.3,0.4-0.4,0.6c-0.2,0.2-0.4,0.3-0.6,0.4
		c-0.2,0.1-0.5,0.2-0.8,0.2c-0.3,0-0.5-0.1-0.8-0.2c-0.2-0.1-0.5-0.3-0.6-0.4c-0.2-0.2-0.3-0.4-0.4-0.6c-0.1-0.2-0.2-0.5-0.2-0.8
		c0-0.3,0.1-0.5,0.2-0.8c0.1-0.3,0.3-0.5,0.4-0.7c0.2-0.2,0.4-0.3,0.6-0.4c0.2-0.1,0.5-0.2,0.8-0.2c0.3,0,0.5,0.1,0.8,0.2
		c0.2,0.1,0.5,0.3,0.6,0.4c0.2,0.2,0.3,0.4,0.4,0.7C836.7,112.1,836.8,112.4,836.8,112.7z M835.8,120.5v22.8h-2.2v-22.8H835.8z"/>
	<path fill="#50433C" d="M856.4,123.4c-0.1,0.2-0.3,0.3-0.5,0.3c-0.2,0-0.4-0.1-0.7-0.3c-0.3-0.2-0.6-0.4-1.1-0.6
		c-0.4-0.2-1-0.5-1.6-0.6c-0.6-0.2-1.4-0.3-2.3-0.3c-0.8,0-1.6,0.1-2.3,0.4c-0.7,0.2-1.3,0.6-1.7,0.9c-0.5,0.4-0.9,0.9-1.1,1.4
		c-0.3,0.5-0.4,1.1-0.4,1.7c0,0.7,0.2,1.3,0.5,1.8c0.4,0.5,0.8,0.9,1.4,1.2c0.6,0.3,1.3,0.6,2,0.9c0.8,0.2,1.5,0.5,2.3,0.7
		c0.8,0.2,1.6,0.5,2.3,0.8c0.8,0.3,1.4,0.7,2,1.1c0.6,0.4,1.1,1,1.4,1.6c0.4,0.6,0.5,1.4,0.5,2.3c0,1-0.2,1.9-0.5,2.8
		c-0.4,0.9-0.9,1.6-1.6,2.2c-0.7,0.6-1.5,1.1-2.5,1.5c-1,0.4-2.1,0.5-3.4,0.5c-1.6,0-3-0.3-4.1-0.8c-1.2-0.5-2.2-1.2-3.1-2l0.5-0.8
		c0.1-0.1,0.2-0.2,0.3-0.3c0.1-0.1,0.2-0.1,0.4-0.1c0.2,0,0.4,0.1,0.7,0.4c0.3,0.2,0.7,0.5,1.1,0.8c0.5,0.3,1,0.5,1.7,0.8
		c0.7,0.2,1.6,0.4,2.6,0.4c1,0,1.8-0.1,2.5-0.4c0.7-0.3,1.3-0.6,1.8-1.1c0.5-0.5,0.9-1,1.1-1.6c0.3-0.6,0.4-1.3,0.4-2
		c0-0.8-0.2-1.4-0.5-1.9c-0.4-0.5-0.8-0.9-1.4-1.3c-0.6-0.4-1.3-0.6-2-0.9c-0.8-0.2-1.5-0.5-2.3-0.7c-0.8-0.2-1.6-0.5-2.3-0.8
		c-0.8-0.3-1.4-0.7-2-1.1c-0.6-0.4-1.1-1-1.4-1.6c-0.4-0.6-0.5-1.4-0.5-2.4c0-0.8,0.2-1.6,0.5-2.3c0.4-0.7,0.9-1.4,1.5-2
		c0.6-0.6,1.4-1,2.4-1.4c0.9-0.3,2-0.5,3.1-0.5c1.4,0,2.6,0.2,3.7,0.6c1.1,0.4,2.1,1,3,1.8L856.4,123.4z"/>
	<path fill="#50433C" d="M869.8,143.7c-1.5,0-2.7-0.4-3.6-1.3c-0.9-0.9-1.3-2.2-1.3-4v-15.6h-3.3c-0.2,0-0.3,0-0.4-0.1
		c-0.1-0.1-0.2-0.2-0.2-0.4v-0.8l3.9-0.3l0.5-8.2c0-0.1,0.1-0.3,0.2-0.4c0.1-0.1,0.2-0.2,0.4-0.2h1v8.7h7.2v1.6h-7.2v15.5
		c0,0.6,0.1,1.2,0.2,1.6c0.2,0.5,0.4,0.8,0.7,1.1c0.3,0.3,0.6,0.5,1,0.6c0.4,0.1,0.8,0.2,1.2,0.2c0.5,0,1-0.1,1.4-0.2
		c0.4-0.2,0.7-0.3,1-0.5c0.3-0.2,0.5-0.4,0.7-0.5c0.2-0.2,0.3-0.2,0.4-0.2c0.1,0,0.2,0.1,0.4,0.2l0.6,1c-0.6,0.6-1.3,1.2-2.2,1.5
		C871.7,143.5,870.8,143.7,869.8,143.7z"/>
	<path fill="#50433C" d="M892.5,123.4c-0.1,0.2-0.3,0.3-0.5,0.3c-0.2,0-0.4-0.1-0.7-0.3c-0.3-0.2-0.6-0.4-1.1-0.6
		c-0.4-0.2-1-0.5-1.6-0.6c-0.6-0.2-1.4-0.3-2.3-0.3c-0.8,0-1.6,0.1-2.3,0.4c-0.7,0.2-1.3,0.6-1.7,0.9c-0.5,0.4-0.9,0.9-1.1,1.4
		c-0.3,0.5-0.4,1.1-0.4,1.7c0,0.7,0.2,1.3,0.5,1.8c0.4,0.5,0.8,0.9,1.4,1.2c0.6,0.3,1.3,0.6,2,0.9c0.8,0.2,1.5,0.5,2.3,0.7
		c0.8,0.2,1.6,0.5,2.3,0.8c0.8,0.3,1.4,0.7,2,1.1c0.6,0.4,1.1,1,1.4,1.6c0.4,0.6,0.6,1.4,0.6,2.3c0,1-0.2,1.9-0.5,2.8
		c-0.4,0.9-0.9,1.6-1.6,2.2c-0.7,0.6-1.5,1.1-2.5,1.5c-1,0.4-2.1,0.5-3.4,0.5c-1.6,0-3-0.3-4.1-0.8c-1.2-0.5-2.2-1.2-3.1-2l0.5-0.8
		c0.1-0.1,0.2-0.2,0.3-0.3c0.1-0.1,0.2-0.1,0.4-0.1c0.2,0,0.4,0.1,0.7,0.4c0.3,0.2,0.7,0.5,1.1,0.8c0.5,0.3,1,0.5,1.7,0.8
		c0.7,0.2,1.6,0.4,2.6,0.4c1,0,1.8-0.1,2.5-0.4c0.7-0.3,1.3-0.6,1.8-1.1c0.5-0.5,0.9-1,1.1-1.6c0.3-0.6,0.4-1.3,0.4-2
		c0-0.8-0.2-1.4-0.5-1.9c-0.4-0.5-0.8-0.9-1.4-1.3c-0.6-0.4-1.3-0.6-2-0.9c-0.8-0.2-1.5-0.5-2.3-0.7c-0.8-0.2-1.6-0.5-2.3-0.8
		c-0.8-0.3-1.4-0.7-2-1.1c-0.6-0.4-1.1-1-1.4-1.6c-0.4-0.6-0.6-1.4-0.6-2.4c0-0.8,0.2-1.6,0.5-2.3c0.4-0.7,0.9-1.4,1.5-2
		c0.6-0.6,1.4-1,2.4-1.4c0.9-0.3,2-0.5,3.1-0.5c1.4,0,2.6,0.2,3.7,0.6c1.1,0.4,2.1,1,3,1.8L892.5,123.4z"/>
</g>
</svg>
