<?xml version="1.0" encoding="utf-8"?>
<!-- Generator: Adobe Illustrator 18.1.0, SVG Export Plug-In . SVG Version: 6.00 Build 0)  -->
<!DOCTYPE svg PUBLIC "-//W3C//DTD SVG 1.1//EN" "http://www.w3.org/Graphics/SVG/1.1/DTD/svg11.dtd">
<svg version="1.1" id="Layer_1" xmlns="http://www.w3.org/2000/svg" xmlns:xlink="http://www.w3.org/1999/xlink" x="0px" y="0px"
	 viewBox="-20 0 500 83" enable-background="new -20 0 500 83" xml:space="preserve">
<g id="white" display="none">
	<rect x="158.5" y="216.7" display="inline" width="930.5" height="296.1"/>
	<g display="inline">
		<path fill="#FFFFFF" d="M306.6,401c0,2.3,0,6.7,0,9.2c0,2.8-2.4,5.1-5.2,5.1c-6.6,0-47.9,0-47.9,0c-12.1,0-21-10.1-21-21.2v-43.7
			c0-11.5,9.3-21.1,21.1-21.1c0,0,42.4,0,47.9,0c3,0,5.1,2.5,5.1,5.1c0,2.6,0,6.7,0,9.2c0,2.6-2,5-5.1,5c-6.3,0-41.3,0-41.3,0
			c-2.8,0-5.1,2.1-5.1,5.1c0,0,0,34.6,0,37.4c0,2.8,2.3,5,5.1,5c0,0,33.9,0,41.1,0C304.4,396,306.6,398.3,306.6,401z"/>
		<path fill="#FFFFFF" d="M383.4,329.2c0,0-50,0-55.6,0c-3,0-5.1,2.5-5.1,5.1c0,2.4,0,6.8,0,9.2c0,2.7,2.1,5,5.1,5
			c7.1,0,48.9,0,48.9,0c3,0,5.1,2.5,5.1,5.1c0,1.4,0,6.1,0,6.1h-41.7c-10.9,0-21.2,8.6-21.2,21.1v13.4c0,11.6,9.3,21.2,21.2,21.2
			h64.4v-64.9C404.4,339.5,395.9,329.2,383.4,329.2z M346.5,396c-2.9,0-5.1-2.4-5.1-5c0-1.8,0-5.4,0-7.2c0-2.8,2.3-5,5.1-5h35.3V396
			L346.5,396L346.5,396z"/>
		<path fill="#FFFFFF" d="M467.9,400.6c0,2.8,0,6.5,0,9.5c0,2.8-2.1,5.1-5.2,5.1h-23.1c-12.2,0-21.1-9.5-21.1-21.2
			c0-9.9,0-91.4,0-91.4h23.2v26.6c0,0,9.6,0,16.6,0c2.9,0,5,2.3,5,5.1c0,2.8,0,6.2,0,9.2c0,2.9-2.3,5-5.1,5c-6.9,0-16.5,0-16.5,0
			v42.1c0,3.1,2.6,5,5,5c2.7,0,16.1,0,16.1,0C465.6,395.6,467.9,397.8,467.9,400.6z"/>
		<path fill="#FFFFFF" d="M542,329.2c0,0-50,0-55.6,0c-3,0-5.1,2.5-5.1,5.1c0,2.4,0,6.8,0,9.2c0,2.7,2.1,5,5.1,5
			c7.1,0,48.9,0,48.9,0c3,0,5.1,2.5,5.1,5.1c0,1.4,0,6.1,0,6.1h-41.7c-10.9,0-21.1,8.6-21.1,21.1v13.4c0,11.6,9.3,21.2,21.1,21.2
			h64.4v-64.9C563.1,339.5,554.5,329.2,542,329.2z M505,396c-2.9,0-5.1-2.4-5.1-5c0-1.8,0-5.4,0-7.2c0-2.8,2.2-5,5.1-5h35.3V396
			L505,396L505,396z"/>
		<rect x="578.9" y="302.7" fill="#FFFFFF" width="22.5" height="112.5"/>
		<path fill="#FFFFFF" d="M701.1,334c0,2.3,0,91,0,91c0,11.2-8.7,21.2-21.2,21.2c0,0-50.4,0-55.8,0c-2.8,0-5.1-2.3-5.1-5
			c0-2.4,0-6.6,0-9.1c0-2.5,2.1-5,5.1-5c5.9,0,47.8,0,47.8,0c2.9,0,5-2.3,5-5.1V415h-40.8c-11.7,0-21.2-9.2-21.2-21.1
			c0,0,0-57.4,0-59.8c0-2.7,2.1-5,5-5c6,0,6.7,0,12.6,0c3.1,0,5.1,2.6,5.1,5c0,2.1,0,56.8,0,56.8c0,2.6,2.1,5,5.1,5h34.7
			c0,0,0-59.6,0-61.8c0-2.6,2-5,5-5c5.9,0,7.3,0,13.8,0C699.2,329,701.1,331.6,701.1,334z"/>
		<path fill="#FFFFFF" d="M802.6,394.1c0,10.5-8.3,21.2-21.2,21.2c0,0-55.4,0-62,0c-3,0-5-2.6-5-5.1c0-2.3,0-6.6,0-9.2
			c0-2.5,2-5,5-5c5.5,0,56.9,0,56.9,0c2.9,0,5.1-2.3,5.1-5c0-1.7,0-5.2,0-6.9c0-2.9-2.3-5-5.1-5h-40.8c-12.1,0-21.1-9.9-21.1-21.2
			v-7.7c0-10.9,8.6-21.1,21.1-21.1c0,0,56.6,0,62,0c3,0,5.1,2.5,5.1,5c0,2.4,0,6.8,0,9.2c0,2.6-2,5.1-5.1,5.1c-5,0-55.9,0-55.9,0
			c-2.9,0-5.1,2.2-5.1,5.1c0,0.2,0,1,0,1.5c0,2.8,2.2,5,5.1,5h39.8c12.5,0,21.2,10.1,21.2,21.2V394.1L802.6,394.1z"/>
		<path fill="#FFFFFF" d="M880.3,400.6c0,2.8,0,6.5,0,9.5c0,2.8-2.1,5.1-5.2,5.1h-38c-12.2,0-21.2-9.5-21.2-21.2
			c0-9.9,0-91.4,0-91.4h23.2v26.6c0,0,9.6,0,16.6,0c2.9,0,5,2.3,5,5.1c0,2.8,0,6.2,0,9.2c0,2.9-2.2,5-5.1,5c-6.9,0-16.5,0-16.5,0
			v42.1c0,3.1,2.6,5,5.1,5c2.7,0,31,0,31,0C878,395.6,880.3,397.8,880.3,400.6z"/>
	</g>
	<g display="inline">
		<path fill="#FFFFFF" d="M912.1,414.4c2.9-12.1,6.2-22.1,10.1-31.1c0,0,0,0-0.1,0c-0.3-0.1-3.4-1.2-3.7-1.3c-1-0.5-2.4-2.9-1.1-7.5
			c2.4-8,6-17.1,9.2-23.6c-0.1,0-2.9-0.9-4.3-1.5c-2.3-0.9-3.4-5.2-2.4-8.1c1.9-5.9,11-25.4,19.3-38.6h-24.8
			c-6.3,0-11.6,5.2-11.6,11.6v89c0,5.5,4,10.3,9.3,11.4C912.1,414.5,912.1,414.5,912.1,414.4z"/>
		<path fill="#FFFFFF" d="M979.9,302.7c-0.2,0.2-0.5,0.4-0.6,0.6c-5.5,5-18.6,19-18.8,19.1c0.2,0.1,5.9,1.8,6.2,2
			c4.4,1.6,3.8,5,1.1,7.8c-15.8,17.1-21.8,24.9-21.9,25c0.2,0,5.7,1.9,6,2c1.9,0.7,2.9,2.8-0.6,5.2c-3.9,2.9-7.5,5.8-12.3,10.3
			c-8.7,8.1-20.5,20.9-26.6,39.4c-0.1,0.2-0.1,0.3-0.2,0.4c0.7,0.1,1.4,0.2,2.1,0.2h89c6.3,0,11.6-5.2,11.6-11.6V302.7H979.9z"/>
	</g>
</g>
<g id="black" display="none">
	<g display="inline">
		<path d="M306.6,401c0,2.3,0,6.7,0,9.2c0,2.8-2.4,5.1-5.2,5.1c-6.6,0-47.9,0-47.9,0c-12.1,0-21-10.1-21-21.2v-43.7
			c0-11.5,9.3-21.1,21.1-21.1c0,0,42.4,0,47.9,0c3,0,5.1,2.5,5.1,5.1c0,2.6,0,6.7,0,9.2c0,2.6-2,5-5.1,5c-6.3,0-41.3,0-41.3,0
			c-2.8,0-5.1,2.1-5.1,5.1c0,0,0,34.6,0,37.4c0,2.8,2.3,5,5.1,5c0,0,33.9,0,41.1,0C304.4,396,306.6,398.3,306.6,401z"/>
		<path d="M383.4,329.2c0,0-50,0-55.6,0c-3,0-5.1,2.5-5.1,5.1c0,2.4,0,6.8,0,9.2c0,2.7,2.1,5,5.1,5c7.1,0,48.9,0,48.9,0
			c3,0,5.1,2.5,5.1,5.1c0,1.4,0,6.1,0,6.1h-41.7c-10.9,0-21.2,8.6-21.2,21.1v13.4c0,11.6,9.3,21.2,21.2,21.2h64.4v-64.9
			C404.4,339.5,395.9,329.2,383.4,329.2z M346.5,396c-2.9,0-5.1-2.4-5.1-5c0-1.8,0-5.4,0-7.2c0-2.8,2.3-5,5.1-5h35.3V396L346.5,396
			L346.5,396z"/>
		<path d="M467.9,400.6c0,2.8,0,6.5,0,9.5c0,2.8-2.1,5.1-5.2,5.1h-23.1c-12.2,0-21.1-9.5-21.1-21.2c0-9.9,0-91.4,0-91.4h23.2v26.6
			c0,0,9.6,0,16.6,0c2.9,0,5,2.3,5,5.1c0,2.8,0,6.2,0,9.2c0,2.9-2.3,5-5.1,5c-6.9,0-16.5,0-16.5,0v42.1c0,3.1,2.6,5,5,5
			c2.7,0,16.1,0,16.1,0C465.6,395.6,467.9,397.8,467.9,400.6z"/>
		<path d="M542,329.2c0,0-50,0-55.6,0c-3,0-5.1,2.5-5.1,5.1c0,2.4,0,6.8,0,9.2c0,2.7,2.1,5,5.1,5c7.1,0,48.9,0,48.9,0
			c3,0,5.1,2.5,5.1,5.1c0,1.4,0,6.1,0,6.1h-41.7c-10.9,0-21.1,8.6-21.1,21.1v13.4c0,11.6,9.3,21.2,21.1,21.2h64.4v-64.9
			C563.1,339.5,554.5,329.2,542,329.2z M505,396c-2.9,0-5.1-2.4-5.1-5c0-1.8,0-5.4,0-7.2c0-2.8,2.2-5,5.1-5h35.3V396L505,396
			L505,396z"/>
		<rect x="578.9" y="302.7" width="22.5" height="112.5"/>
		<path d="M701.1,334c0,2.3,0,91,0,91c0,11.2-8.7,21.2-21.2,21.2c0,0-50.4,0-55.8,0c-2.8,0-5.1-2.3-5.1-5c0-2.4,0-6.6,0-9.1
			c0-2.5,2.1-5,5.1-5c5.9,0,47.8,0,47.8,0c2.9,0,5-2.3,5-5.1V415h-40.8c-11.7,0-21.2-9.2-21.2-21.1c0,0,0-57.4,0-59.8
			c0-2.7,2.1-5,5-5c6,0,6.7,0,12.6,0c3.1,0,5.1,2.6,5.1,5c0,2.1,0,56.8,0,56.8c0,2.6,2.1,5,5.1,5h34.7c0,0,0-59.6,0-61.8
			c0-2.6,2-5,5-5c5.9,0,7.3,0,13.8,0C699.2,329,701.1,331.6,701.1,334z"/>
		<path d="M802.6,394.1c0,10.5-8.3,21.2-21.2,21.2c0,0-55.4,0-62,0c-3,0-5-2.6-5-5.1c0-2.3,0-6.6,0-9.2c0-2.5,2-5,5-5
			c5.5,0,56.9,0,56.9,0c2.9,0,5.1-2.3,5.1-5c0-1.7,0-5.2,0-6.9c0-2.9-2.3-5-5.1-5h-40.8c-12.1,0-21.1-9.9-21.1-21.2v-7.7
			c0-10.9,8.6-21.1,21.1-21.1c0,0,56.6,0,62,0c3,0,5.1,2.5,5.1,5c0,2.4,0,6.8,0,9.2c0,2.6-2,5.1-5.1,5.1c-5,0-55.9,0-55.9,0
			c-2.9,0-5.1,2.2-5.1,5.1c0,0.2,0,1,0,1.5c0,2.8,2.2,5,5.1,5h39.8c12.5,0,21.2,10.1,21.2,21.2V394.1L802.6,394.1z"/>
		<path d="M880.3,400.6c0,2.8,0,6.5,0,9.5c0,2.8-2.1,5.1-5.2,5.1h-38c-12.2,0-21.2-9.5-21.2-21.2c0-9.9,0-91.4,0-91.4h23.2v26.6
			c0,0,9.6,0,16.6,0c2.9,0,5,2.3,5,5.1c0,2.8,0,6.2,0,9.2c0,2.9-2.2,5-5.1,5c-6.9,0-16.5,0-16.5,0v42.1c0,3.1,2.6,5,5.1,5
			c2.7,0,31,0,31,0C878,395.6,880.3,397.8,880.3,400.6z"/>
	</g>
	<g display="inline">
		<path d="M912.1,414.4c2.9-12.1,6.2-22.1,10.1-31.1c0,0,0,0-0.1,0c-0.3-0.1-3.4-1.2-3.7-1.3c-1-0.5-2.4-2.9-1.1-7.5
			c2.4-8,6-17.1,9.2-23.6c-0.1,0-2.9-0.9-4.3-1.5c-2.3-0.9-3.4-5.2-2.4-8.1c1.9-5.9,11-25.4,19.3-38.6h-24.8
			c-6.3,0-11.6,5.2-11.6,11.6v89c0,5.5,4,10.3,9.3,11.4C912.1,414.5,912.1,414.5,912.1,414.4z"/>
		<path d="M979.9,302.7c-0.2,0.2-0.5,0.4-0.6,0.6c-5.5,5-18.6,19-18.8,19.1c0.2,0.1,5.9,1.8,6.2,2c4.4,1.6,3.8,5,1.1,7.8
			c-15.8,17.1-21.8,24.9-21.9,25c0.2,0,5.7,1.9,6,2c1.9,0.7,2.9,2.8-0.6,5.2c-3.9,2.9-7.5,5.8-12.3,10.3
			c-8.7,8.1-20.5,20.9-26.6,39.4c-0.1,0.2-0.1,0.3-0.2,0.4c0.7,0.1,1.4,0.2,2.1,0.2h89c6.3,0,11.6-5.2,11.6-11.6V302.7H979.9z"/>
	</g>
</g>
<g id="inverse" display="none">
	<rect x="158.5" y="216.7" display="inline" width="930.5" height="296.1"/>
	<g display="inline">
		<path fill="#FFFFFF" d="M306.6,401c0,2.3,0,6.7,0,9.2c0,2.8-2.4,5.1-5.2,5.1c-6.6,0-47.9,0-47.9,0c-12.1,0-21-10.1-21-21.2v-43.7
			c0-11.5,9.3-21.1,21.1-21.1c0,0,42.4,0,47.9,0c3,0,5.1,2.5,5.1,5.1c0,2.6,0,6.7,0,9.2c0,2.6-2,5-5.1,5c-6.3,0-41.3,0-41.3,0
			c-2.8,0-5.1,2.1-5.1,5.1c0,0,0,34.6,0,37.4c0,2.8,2.3,5,5.1,5c0,0,33.9,0,41.1,0C304.4,396,306.6,398.3,306.6,401z"/>
		<path fill="#FFFFFF" d="M383.4,329.2c0,0-50,0-55.6,0c-3,0-5.1,2.5-5.1,5.1c0,2.4,0,6.8,0,9.2c0,2.7,2.1,5,5.1,5
			c7.1,0,48.9,0,48.9,0c3,0,5.1,2.5,5.1,5.1c0,1.4,0,6.1,0,6.1h-41.7c-10.9,0-21.2,8.6-21.2,21.1v13.4c0,11.6,9.3,21.2,21.2,21.2
			h64.4v-64.9C404.4,339.5,395.9,329.2,383.4,329.2z M346.5,396c-2.9,0-5.1-2.4-5.1-5c0-1.8,0-5.4,0-7.2c0-2.8,2.3-5,5.1-5h35.3V396
			L346.5,396L346.5,396z"/>
		<path fill="#FFFFFF" d="M467.9,400.6c0,2.8,0,6.5,0,9.5c0,2.8-2.1,5.1-5.2,5.1h-23.1c-12.2,0-21.1-9.5-21.1-21.2
			c0-9.9,0-91.4,0-91.4h23.2v26.6c0,0,9.6,0,16.6,0c2.9,0,5,2.3,5,5.1c0,2.8,0,6.2,0,9.2c0,2.9-2.3,5-5.1,5c-6.9,0-16.5,0-16.5,0
			v42.1c0,3.1,2.6,5,5,5c2.7,0,16.1,0,16.1,0C465.6,395.6,467.9,397.8,467.9,400.6z"/>
		<path fill="#FFFFFF" d="M542,329.2c0,0-50,0-55.6,0c-3,0-5.1,2.5-5.1,5.1c0,2.4,0,6.8,0,9.2c0,2.7,2.1,5,5.1,5
			c7.1,0,48.9,0,48.9,0c3,0,5.1,2.5,5.1,5.1c0,1.4,0,6.1,0,6.1h-41.7c-10.9,0-21.1,8.6-21.1,21.1v13.4c0,11.6,9.3,21.2,21.1,21.2
			h64.4v-64.9C563.1,339.5,554.5,329.2,542,329.2z M505,396c-2.9,0-5.1-2.4-5.1-5c0-1.8,0-5.4,0-7.2c0-2.8,2.2-5,5.1-5h35.3V396
			L505,396L505,396z"/>
		<rect x="578.9" y="302.7" fill="#FFFFFF" width="22.5" height="112.5"/>
		<path fill="#FFFFFF" d="M701.1,334c0,2.3,0,91,0,91c0,11.2-8.7,21.2-21.2,21.2c0,0-50.4,0-55.8,0c-2.8,0-5.1-2.3-5.1-5
			c0-2.4,0-6.6,0-9.1c0-2.5,2.1-5,5.1-5c5.9,0,47.8,0,47.8,0c2.9,0,5-2.3,5-5.1V415h-40.8c-11.7,0-21.2-9.2-21.2-21.1
			c0,0,0-57.4,0-59.8c0-2.7,2.1-5,5-5c6,0,6.7,0,12.6,0c3.1,0,5.1,2.6,5.1,5c0,2.1,0,56.8,0,56.8c0,2.6,2.1,5,5.1,5h34.7
			c0,0,0-59.6,0-61.8c0-2.6,2-5,5-5c5.9,0,7.3,0,13.8,0C699.2,329,701.1,331.6,701.1,334z"/>
		<path fill="#FFFFFF" d="M802.6,394.1c0,10.5-8.3,21.2-21.2,21.2c0,0-55.4,0-62,0c-3,0-5-2.6-5-5.1c0-2.3,0-6.6,0-9.2
			c0-2.5,2-5,5-5c5.5,0,56.9,0,56.9,0c2.9,0,5.1-2.3,5.1-5c0-1.7,0-5.2,0-6.9c0-2.9-2.3-5-5.1-5h-40.8c-12.1,0-21.1-9.9-21.1-21.2
			v-7.7c0-10.9,8.6-21.1,21.1-21.1c0,0,56.6,0,62,0c3,0,5.1,2.5,5.1,5c0,2.4,0,6.8,0,9.2c0,2.6-2,5.1-5.1,5.1c-5,0-55.9,0-55.9,0
			c-2.9,0-5.1,2.2-5.1,5.1c0,0.2,0,1,0,1.5c0,2.8,2.2,5,5.1,5h39.8c12.5,0,21.2,10.1,21.2,21.2V394.1L802.6,394.1z"/>
		<path fill="#FFFFFF" d="M880.3,400.6c0,2.8,0,6.5,0,9.5c0,2.8-2.1,5.1-5.2,5.1h-38c-12.2,0-21.2-9.5-21.2-21.2
			c0-9.9,0-91.4,0-91.4h23.2v26.6c0,0,9.6,0,16.6,0c2.9,0,5,2.3,5,5.1c0,2.8,0,6.2,0,9.2c0,2.9-2.2,5-5.1,5c-6.9,0-16.5,0-16.5,0
			v42.1c0,3.1,2.6,5,5.1,5c2.7,0,31,0,31,0C878,395.6,880.3,397.8,880.3,400.6z"/>
	</g>
	<g display="inline">
		<path fill="#BB2025" d="M912.1,414.4c2.9-12.1,6.2-22.1,10.1-31.1c0,0,0,0-0.1,0c-0.3-0.1-3.4-1.2-3.7-1.3c-1-0.5-2.4-2.9-1.1-7.5
			c2.4-8,6-17.1,9.2-23.6c-0.1,0-2.9-0.9-4.3-1.5c-2.3-0.9-3.4-5.2-2.4-8.1c1.9-5.9,11-25.4,19.3-38.6h-24.8
			c-6.3,0-11.6,5.2-11.6,11.6v89c0,5.5,4,10.3,9.3,11.4C912.1,414.5,912.1,414.5,912.1,414.4z"/>
		<path fill="#BB2025" d="M979.9,302.7c-0.2,0.2-0.5,0.4-0.6,0.6c-5.5,5-18.6,19-18.8,19.1c0.2,0.1,5.9,1.8,6.2,2
			c4.4,1.6,3.8,5,1.1,7.8c-15.8,17.1-21.8,24.9-21.9,25c0.2,0,5.7,1.9,6,2c1.9,0.7,2.9,2.8-0.6,5.2c-3.9,2.9-7.5,5.8-12.3,10.3
			c-8.7,8.1-20.5,20.9-26.6,39.4c-0.1,0.2-0.1,0.3-0.2,0.4c0.7,0.1,1.4,0.2,2.1,0.2h89c6.3,0,11.6-5.2,11.6-11.6V302.7H979.9z"/>
	</g>
</g>
<g>
	<path fill="#BA2025" d="M22.7,7.1c0,1.1-0.1,2.2-0.3,3.2c-0.2,1-0.5,2-1,3l0,0c0.3,0.5,0.5,1,0.4,1.5c0,0.5-0.1,1-0.3,1.4
		c-0.2,0.5-0.4,1-0.7,1.4c-0.2,0.5-0.4,0.9-0.5,1.4c-0.6,0.2-0.9,0.5-1,0.9c-0.1,0.4-0.1,0.8-0.2,1.2c0,0.4-0.1,0.8-0.2,1.2
		c-0.1,0.4-0.5,0.7-1.2,0.9l-0.3,0.1c0.5,0.5,0.7,0.9,0.7,1.3c0,0.4-0.2,0.7-0.5,1c-0.3,0.3-0.7,0.6-1.1,0.9
		c-0.4,0.3-0.8,0.6-1.1,0.8c0.1,0.1,0.2,0.1,0.3,0.2c0.1,0.1,0.2,0.1,0.2,0.2c-0.3,0.3-0.7,0.6-1,0.8c-0.4,0.3-0.7,0.6-1,0.9
		c-0.3,0.3-0.6,0.6-0.8,1c-0.2,0.4-0.4,0.8-0.4,1.3c-0.1,0.1-0.3,0.2-0.5,0.3c-0.2,0.1-0.4,0.1-0.6,0.2c-0.2,0-0.4,0.1-0.5,0.2
		c-0.2,0.1-0.3,0.2-0.4,0.4l0,0c0,0.2,0,0.4,0.1,0.7c-0.6,0.1-1,0.2-1.4,0.4c-0.4,0.2-0.8,0.5-1.1,0.8c-0.3,0.3-0.7,0.7-1,1
		c-0.3,0.4-0.7,0.7-1.1,1h0v-0.1c-0.1-0.1-0.1-0.1-0.2-0.1c-0.1,0-0.1-0.1-0.2-0.1c-0.1,0-0.4,0.1-0.7,0.3C5,37,4.8,37.2,4.7,37.3
		c-0.1,0.3-0.3,0.6-0.6,0.9c-0.2,0.3-0.5,0.6-0.6,0.9c-0.2,0.3-0.2,0.6-0.2,1c0,0.3,0.2,0.7,0.6,1.1c-0.2,0.4-0.3,0.8-0.2,1.3
		C3.9,43,4,43.5,4.1,43.9c0.1,0.4,0.2,0.8,0.3,1.2c0.1,0.4-0.1,0.7-0.3,0.9c0,0.2,0.1,0.4,0.1,0.6c0,0.2,0.2,0.3,0.5,0.5h0.4
		C5,47.5,5,48.2,5,48.9c0,0.8,0,1.5,0,2.3c0,0.8-0.1,1.5-0.2,2.2c-0.1,0.7-0.2,1.2-0.5,1.6c0.2,0.2,0.5,0.4,0.7,0.6
		c0.2,0.2,0.4,0.5,0.4,0.8c0,0.3-0.1,0.6-0.2,1c-0.2,0.3-0.3,0.6-0.5,0.9c-0.2,0.3-0.3,0.6-0.3,0.9c-0.1,0.3,0,0.6,0.2,0.9
		c-0.5,0.3-0.9,0.6-1,1.1c-0.2,0.4-0.3,0.9-0.3,1.5c0,0.4,0,0.9,0,1.5c0,0.6,0,1.1-0.2,1.4c-0.2,0.3-0.4,0.7-0.5,1
		c-0.2,0.3-0.4,0.7-0.5,1c-0.3,0.7-0.7,1.5-0.9,2.2c-0.3,0.7-0.6,1.5-0.8,2.2c-0.1,0.2-0.1,0.4-0.2,0.6C0,72.8,0,73-0.1,73.2
		c-0.4-0.1-0.7-0.1-0.9,0.1c-0.2,0.1-0.3,0.3-0.4,0.5c-0.1,0.2-0.3,0.4-0.4,0.6c-0.2,0.2-0.5,0.3-1,0.3v0.1c-0.1,0.7-0.5,1.3-1,1.8
		c-0.6,0.5-1.2,1-2,1.5c-0.8,0.5-1.5,0.9-2.3,1.4c-0.8,0.5-1.4,0.9-1.8,1.4h0c-0.5-0.1-1,0.1-1.5,0.4c-0.5,0.3-0.9,0.6-1.4,0.9
		c-0.5,0.3-1,0.4-1.5,0.5c-0.5,0.1-1.1-0.2-1.8-0.7v0c-0.1,0-0.2,0-0.3,0c-0.1,0-0.1,0-0.1,0c0,0-0.1,0-0.1,0.1c0,0-0.1,0.1-0.2,0.2
		v0c-0.5-0.3-0.9-0.6-1.3-1.1c-0.3-0.4-0.6-0.9-0.7-1.5c0.1-0.1,0.1-0.1,0.2-0.2c0.1-0.1,0.1-0.1,0.2-0.2c-0.4-0.2-0.7-0.6-0.8-1
		c-0.2-0.4-0.3-0.9-0.3-1.4c0-0.5-0.1-1-0.1-1.5c0-0.5-0.1-0.9-0.2-1.2c0.4-0.1,0.8-0.3,1.1-0.6c0.3-0.3,0.6-0.6,0.8-0.9
		c-0.1-0.1-0.1-0.2-0.2-0.4c0-0.2-0.1-0.4-0.1-0.4c0-0.6,0-1.1,0.2-1.6c0.2-0.5,0.4-1,0.7-1.5c0.3-0.5,0.5-1,0.8-1.4
		c0.3-0.5,0.5-1,0.7-1.5c0.6-0.5,1.1-1,1.4-1.5c0.3-0.5,0.7-1.2,1-1.8c0.1-0.2,0.2-0.5,0.4-0.8c0.2-0.3,0.3-0.6,0.5-1
		c0.2-0.3,0.4-0.6,0.7-0.8c0.2-0.2,0.5-0.4,0.7-0.5c0-0.1,0-0.2,0-0.4c0-0.5,0.2-0.9,0.5-1.2c0.3-0.3,0.7-0.7,1-1
		c0.3-0.3,0.6-0.7,0.7-1c0.2-0.4,0.1-0.9-0.3-1.5c0.8-0.7,1.5-1.5,2-2.4c0.5-0.9,0.9-1.8,1.3-2.7s0.8-1.8,1.2-2.7
		c0.4-0.9,1-1.7,1.7-2.3l0.1-0.1c-0.1-0.6-0.3-0.9-0.4-1.2c-0.2-0.2-0.4-0.4-0.6-0.5c-0.2-0.1-0.5-0.1-0.8-0.1c-0.3,0-0.6-0.1-1-0.1
		c-0.4-0.1-0.8-0.2-1.2-0.5c-0.4-0.2-0.9-0.6-1.4-1.2c-0.4-0.2-0.7-0.5-0.8-0.7c-0.2-0.2-0.3-0.4-0.4-0.7c-0.1-0.2-0.2-0.5-0.3-0.7
		c-0.1-0.2-0.2-0.5-0.5-0.8c0.5-0.3,0.8-0.7,0.7-1.1c0-0.4-0.2-0.8-0.4-1.1c-0.2-0.4-0.4-0.7-0.6-1c-0.2-0.3-0.2-0.6-0.1-0.7
		c0.1-0.3,0.3-0.4,0.7-0.5c0.3-0.1,0.6-0.2,0.8-0.3c-0.1-0.3,0-0.5,0.1-0.7c0.1-0.2,0.2-0.4,0.4-0.6c0.2-0.2,0.4-0.3,0.6-0.5
		c0.2-0.1,0.5-0.2,0.7-0.3c0.3,0.1,0.5,0.1,0.6,0c0.2-0.1,0.3-0.1,0.4-0.2c0.1-0.1,0.2-0.2,0.3-0.3c0.1-0.1,0.2-0.2,0.2-0.2l0-0.3
		c0.5-0.1,0.9-0.1,1.3,0.1c0.4,0.2,0.7,0.5,1.1,0.8c0.4,0.3,0.8,0.6,1.1,0.8c0.3,0.2,0.7,0.2,1.3,0.2h0c0.1,0.1,0.3,0.3,0.5,0.4
		c0.2,0.1,0.3,0.2,0.5,0.3c0.1-0.1,0.3-0.2,0.3-0.3c0.1-0.1,0.2-0.1,0.4,0l-0.3,0.3l1.8,1.4l1.1-1.5l-0.2,0l-0.3-0.3
		c0-0.2,0.1-0.4,0.2-0.6c0.2-0.1,0.2-0.3,0.2-0.6c-0.1-0.1-0.1-0.2-0.2-0.2l0.1-0.1c0.6,0.1,1,0,1.1-0.3C4,29.9,4,29.6,4.1,29.3
		c0-0.3,0.1-0.7,0.2-1c0.1-0.4,0.4-0.6,1-0.8c-0.5-0.4-0.7-0.8-0.6-1c0.1-0.2,0.3-0.4,0.5-0.5c0.3-0.1,0.6-0.3,0.9-0.5
		c0.3-0.2,0.5-0.4,0.5-0.8c0-0.1,0-0.3,0-0.4c0-0.1,0-0.2,0-0.4c0-0.6,0.2-1.2,0.5-1.7c0.3-0.5,0.7-1,1.1-1.5c0.4-0.5,0.7-1,1-1.5
		c0.3-0.5,0.4-1.1,0.3-1.8c0-0.1,0-0.2-0.1-0.4c0.3-0.6,0.6-1.2,1-1.8c0.4-0.6,0.7-1.2,1.1-1.7c0.3-0.6,0.7-1.2,1-1.8
		c0.3-0.6,0.5-1.2,0.7-1.9c0.1,0,0.3-0.1,0.4-0.1c0.2,0,0.3-0.1,0.3-0.3c0-0.1,0-0.3,0-0.4c0-0.1,0-0.2,0-0.3h0c0.2,0,0.4,0,0.5-0.1
		c0.1-0.1,0.2-0.2,0.3-0.3C14.6,8.1,14.7,8,14.7,8c0.1-0.1,0.1-0.1,0.2-0.2c0.1-0.9,0.3-1.7,0.8-2.2c0.5-0.5,1-1.1,1.6-1.7
		c1.4-0.4,2.5-0.3,3.4,0.4C21.5,4.9,22.2,5.9,22.7,7.1z M1.8,55.6c-0.1-0.2-0.1-0.4-0.1-0.6c0-0.2,0.1-0.4,0.3-0.5
		c-0.2-0.2-0.4-0.4-0.4-0.6c-0.1-0.2-0.1-0.3-0.1-0.5c0-0.2,0-0.3,0-0.5c0-0.2,0-0.4-0.1-0.6c0.1-0.5,0.2-1.1,0.2-1.7
		c0-0.6-0.1-1.1-0.1-1.6c-0.1-0.5-0.2-1.1-0.2-1.6C1.1,46.9,1,46.3,1,45.8c-0.5-0.2-0.8-0.2-0.9-0.1C0,45.8,0,45.9,0,46.1
		c0,0.2-0.1,0.4-0.1,0.5c-0.1,0.2-0.3,0.3-0.7,0.3v0.2c0.1,0.3,0.1,0.5-0.1,0.8c-0.2,0.3-0.4,0.6-0.7,0.9c-0.3,0.3-0.6,0.6-0.8,1
		c-0.3,0.3-0.4,0.7-0.4,1.1c-0.4,0.3-0.7,0.6-0.9,1.1c-0.2,0.4-0.3,0.8-0.4,1.3c-0.1,0.4-0.2,0.8-0.4,1.2c-0.2,0.4-0.5,0.6-1,0.8
		c-0.1,0.1-0.1,0.1-0.1,0.1c-0.1,0.5-0.3,0.9-0.4,1.2c-0.1,0.3-0.3,0.6-0.4,0.9c-0.1,0.3-0.3,0.6-0.5,0.9c-0.2,0.3-0.4,0.6-0.7,1
		c-0.6,0.8-1.1,1.5-1.5,2.2C-9.7,62.1-10,63-10,63.9c-0.7,0.1-1.2,0.4-1.5,0.8c-0.3,0.4-0.5,0.9-0.6,1.5c-0.1,0.5-0.2,1.1-0.3,1.7
		c-0.1,0.6-0.3,1.1-0.7,1.5h0c-0.4,0.6-0.8,1.2-1.3,1.8c-0.4,0.6-0.8,1.3-1.2,1.9c-0.3,0.7-0.6,1.3-0.8,2c-0.2,0.7-0.3,1.4-0.3,2.2
		c0.3,0.4,0.8,0.7,1.2,0.9c0.5,0.2,0.9,0.4,1.4,0.6l0,0c0.6-0.1,1.1-0.2,1.5-0.5c0.4-0.2,0.8-0.5,1.2-0.7c0.4-0.3,0.7-0.5,1.1-0.8
		c0.4-0.3,0.8-0.6,1.2-0.8c0.6,0,1.1,0,1.6-0.2c0.4-0.2,0.9-0.4,1.2-0.7c0.4-0.3,0.7-0.7,1-1.1c0.3-0.4,0.6-0.8,0.9-1.3
		c0.3-0.5,0.6-1,1-1.6c0.4-0.6,0.9-1,1.4-1.3c0,0,0.1,0,0.1,0c0,0,0,0,0.1,0c-0.1-0.1-0.2-0.3-0.3-0.5c-0.1-0.2-0.1-0.4-0.1-0.6
		c0-0.7,0.2-1.3,0.5-1.8c0.4-0.5,0.8-1,1.2-1.4C-0.2,65,0,64.5,0.2,64c0.1-0.5,0-1.1-0.5-1.8c0.5-0.4,0.9-0.8,1-1.3
		c0.1-0.5,0.2-1,0.3-1.6c0.1-0.5,0.1-1.1,0.2-1.6c0.1-0.5,0.4-1.1,0.9-1.5l0.1-0.1L1.8,55.6z M-0.7,37.2c-0.3-0.3-0.5-0.6-0.5-0.9
		c-0.1-0.3-0.1-0.6-0.1-0.9c0-0.3-0.1-0.6-0.2-0.8c-0.1-0.2-0.3-0.4-0.7-0.6l0,0c-0.2,0.1-0.5,0.1-0.8,0.2c-0.3,0-0.6,0-1,0
		c-0.3,0-0.7-0.1-1-0.2c-0.3-0.1-0.5-0.2-0.7-0.3l0,0c-0.8,0.5-1.2,1.1-1.5,1.7c-0.2,0.7-0.3,1.4-0.2,2.3c0,0.1,0,0.1,0,0.2
		c0,0.1,0,0.2,0.1,0.3c0,0.1,0.1,0.3,0.1,0.5c0.4,0.5,0.8,0.7,1.2,0.7s0.7-0.1,1.1-0.3c0.3-0.2,0.7-0.5,1-0.8
		c0.3-0.3,0.7-0.5,1.1-0.7h0C-1.9,38.1-1.2,38-0.7,37.2z M20.1,10.9c-0.1-0.1-0.2-0.3-0.3-0.6c-0.1-0.3-0.1-0.7-0.2-1
		c-0.1-0.4-0.2-0.7-0.4-1c-0.2-0.3-0.4-0.5-0.7-0.5l-0.1,0.1c-0.4,0.5-0.8,1.1-1.2,1.7c-0.4,0.6-0.7,1.3-1.1,1.9
		c-0.4,0.7-0.7,1.3-1,2c-0.3,0.7-0.6,1.3-0.9,1.8c-0.1,0.1-0.2,0.5-0.5,1c-0.3,0.5-0.5,1-0.8,1.6c-0.3,0.6-0.6,1.1-0.8,1.5
		c-0.3,0.4-0.4,0.7-0.4,0.7v0c-0.1,0.5-0.2,1.1-0.4,1.7c-0.2,0.6-0.4,1.2-0.7,1.8c-0.3,0.6-0.6,1.1-0.9,1.6
		c-0.3,0.5-0.7,0.9-1.2,1.3c0,0-0.1,0-0.1,0c0,0,0,0-0.1,0l0.1,0.1c0.5,0.6,0.6,1.2,0.5,1.5c-0.1,0.4-0.4,0.7-0.7,1.1
		c-0.3,0.3-0.7,0.7-1,1c-0.3,0.4-0.5,0.9-0.4,1.5c0,0.3,0.1,0.6,0.3,0.9h0.8c0.4-0.4,0.7-0.8,1-1.3c0.2-0.5,0.5-1,0.8-1.4
		c0.3-0.4,0.6-0.8,1-1.1c0.4-0.3,1-0.5,1.7-0.5l-0.1-0.7c0.9-0.9,1.7-2,2.3-3.2c0.6-1.2,0.9-2.4,1-3.7c0.5-0.2,0.8-0.4,0.9-0.7
		c0.2-0.3,0.3-0.6,0.3-1c0.1-0.4,0.2-0.8,0.3-1.1c0.1-0.4,0.4-0.7,0.8-1l0.1-0.1c0-0.1,0-0.3,0-0.4c0-0.1,0-0.3,0-0.4
		c0-0.5,0.1-1,0.2-1.4c0.2-0.4,0.4-0.8,0.6-1.2c0.2-0.4,0.5-0.8,0.8-1.2C19.7,11.7,19.9,11.3,20.1,10.9z"/>
	<path fill="#BA2025" d="M46.3,36.6c-0.7,0.3-1.1,0.7-1.3,1.2c-0.2,0.5-0.4,0.9-0.5,1.4c-0.1,0.5-0.3,1-0.5,1.4
		c-0.2,0.4-0.6,0.8-1.2,1.1c-0.1,0.5-0.4,0.9-0.8,1.1c-0.4,0.2-0.9,0.4-1.3,0.5c-0.5,0.2-0.9,0.4-1.2,0.6c-0.4,0.3-0.5,0.7-0.5,1.3
		c-0.6,0.3-1.2,0.6-1.9,0.9c-0.7,0.3-1.4,0.5-2.1,0.6c-0.7,0.1-1.5,0.2-2.2,0.2c-0.7,0-1.4-0.2-2-0.4c-0.4-0.2-0.9-0.5-1.3-0.8
		c-0.1-0.1-0.3-0.2-0.4-0.3c-0.1-0.1-0.3-0.2-0.4-0.3c-0.3-0.3-0.6-0.8-0.9-1.2c-0.2-0.5-0.4-1-0.6-1.5c-0.1-0.5-0.3-1-0.3-1.6
		c-0.1-0.5-0.2-1-0.2-1.5l1.6-4.3c-0.8-0.7-1.5-1.4-2-2.3c-0.5-0.9-1.2-1.7-1.9-2.5c-0.1,0.2-0.3,0.4-0.6,0.5
		c-0.2,0.1-0.3,0.4-0.3,0.7l0.4,0.4c-1,1-1.9,2.2-2.9,3.5c-1,1.3-1.7,2.6-2.3,4c-0.6,0-1.1,0.1-1.3,0.5c-0.3,0.3-0.5,0.7-0.7,1.1
		c-0.2,0.4-0.4,0.8-0.7,1.2c-0.3,0.3-0.7,0.5-1.3,0.4c-0.1,0.3-0.3,0.7-0.4,1c-0.1,0.4-0.3,0.7-0.5,1c-0.2,0.3-0.4,0.6-0.7,0.8
		c-0.3,0.2-0.7,0.3-1.1,0.3c-0.2-0.2-0.4-0.5-0.4-0.7c0-0.3,0-0.5,0.1-0.8c0.1-0.3,0.2-0.5,0.3-0.8c0.1-0.3,0.2-0.5,0.3-0.8
		c0.2-0.8,0.7-1.6,1.3-2.3c0.6-0.7,1.2-1.4,1.8-2c0.6-0.7,1.1-1.4,1.6-2.2c0.4-0.8,0.6-1.6,0.5-2.6c0.4,0,0.8-0.1,1.2-0.2
		c0.4-0.1,0.8-0.3,1.1-0.5c0.3-0.2,0.6-0.5,0.8-0.8c0.2-0.3,0.3-0.7,0.2-1.2c-0.2-0.1-0.4-0.3-0.4-0.5c0-0.2,0-0.4,0-0.7
		c0.6-0.2,1.2-0.6,1.5-1.1c0.4-0.5,0.7-1.1,1.1-1.6c0.3-0.6,0.6-1.2,0.9-1.8c0.3-0.6,0.7-1.1,1.2-1.5c0.4,0.2,0.8,0.4,1.2,0.6
		c0.4,0.2,0.8,0.4,1.2,0.6c-0.3,0.3-0.4,0.7-0.5,1c-0.1,0.3-0.1,0.6-0.1,1c0,0.3,0,0.7,0,1c0,0.3-0.1,0.7-0.3,1
		c0.5,0.4,0.9,0.9,1.2,1.4c0.3,0.6,0.7,1,1.2,1.4c0.3-0.3,0.7-0.4,1.2-0.4c0.4,0,0.9,0,1.3,0c0.4,0,0.9,0,1.3-0.1
		c0.4-0.1,0.7-0.3,1-0.7c0.1,0.1,0.3,0.2,0.5,0.2c0.2,0,0.5,0,0.7,0c0.2,0,0.4,0,0.6,0.1c0.2,0.1,0.3,0.2,0.3,0.4c0,0.2,0,0.4,0,0.5
		c0,0.1-0.1,0.2-0.2,0.4c-0.1,0.2-0.1,0.3,0,0.3c0,0,0,0.1-0.1,0.3c-0.1,0.4-0.4,0.7-0.7,1c-0.3,0.3-0.7,0.5-1,0.8
		c-0.3,0.2-0.6,0.5-0.9,0.8c-0.3,0.3-0.4,0.7-0.4,1.2c-0.6,0.2-1.1,0.6-1.3,1c-0.3,0.4-0.4,1-0.5,1.5c-0.1,0.6-0.1,1.1-0.2,1.7
		c0,0.6-0.1,1.1-0.3,1.6l0.4,0.4l0.3-0.4c0.4,0.6,0.9,0.9,1.5,1.1c0.6,0.1,1.2,0.2,1.8,0.1c0.3-0.4,0.6-0.8,1-1
		c0.4-0.3,0.8-0.5,1.3-0.7c0.4-0.2,0.9-0.3,1.4-0.5c0.5-0.1,0.9-0.3,1.4-0.5c0.3-0.2,0.6-0.4,0.9-0.6c0.2-0.2,0.5-0.4,0.8-0.7
		c0.9-0.8,1.7-1.6,2.6-2.4c0.9-0.8,1.7-1.6,2.6-2.4c0.2,0,0.3,0.1,0.3,0.3c0.1,0.2,0.1,0.4,0.1,0.6c0,0.2,0,0.4,0,0.7
		C46.4,36.3,46.3,36.5,46.3,36.6z"/>
	<path fill="#BA2025" d="M77,31.9c-0.3,0.3-0.5,0.5-0.6,0.6c-0.1,0.1-0.2,0.3-0.3,0.4c-0.1,0.1-0.2,0.3-0.3,0.4
		c-0.1,0.1-0.3,0.4-0.6,0.7c-0.2,0.2-0.4,0.5-0.7,0.7c-0.2,0.3-0.4,0.5-0.7,0.7c-0.3-0.1-0.6,0-0.8,0.1c-0.2,0.2-0.4,0.4-0.5,0.6
		c-0.2,0.2-0.3,0.4-0.4,0.6c-0.1,0.2-0.3,0.3-0.5,0.2c-0.7,0.4-1.4,0.7-2.1,1c-0.7,0.3-1.4,0.7-2,1.2l-0.3-0.3L62.6,41
		c-0.1,0.1-0.3,0.1-0.4,0.3c-0.1,0.1-0.3,0.2-0.4,0.3c-0.6,0.3-1.3,0.7-2,0.9c-0.7,0.3-1.4,0.5-2,0.8l-0.6,0.2c0.2,0.6,0.2,1,0,1.2
		c-0.2,0.2-0.6,0.4-1,0.5c-0.4,0.1-0.9,0.2-1.4,0.2c-0.5,0-0.9,0.1-1.2,0.3c-0.3-0.1-0.7-0.1-1.1-0.1c-0.4,0-0.7,0.1-1.1,0.1
		c-0.4,0.1-0.8,0.1-1.1,0.1c-0.3,0-0.7,0-1.1-0.1H49c-0.5,0.2-0.9,0.3-1.3,0.2c-0.4-0.1-0.7-0.3-1-0.7c-0.3-0.3-0.6-0.7-0.8-1.1
		c-0.2-0.4-0.5-0.8-0.8-1.2c-0.2-0.2-0.4-0.6-0.7-1c-0.3-0.4-0.5-0.9-0.7-1.4c-0.2-0.5-0.3-1-0.3-1.5c0-0.5,0.1-0.9,0.3-1.3
		c0.3-0.4,0.5-0.8,0.6-1.2c0.2-0.4,0.2-0.9,0.2-1.5c0-0.2,0-0.4,0-0.6c0-0.2,0-0.4,0-0.6c0.1,0,0.3,0,0.5,0c0.2,0,0.3,0,0.5,0
		c0.2,0,0.3-0.1,0.4-0.2c0.1-0.1,0.2-0.3,0.2-0.5c0-0.1-0.1-0.3-0.2-0.3c-0.1-0.1-0.2-0.2-0.2-0.3c0.2-0.3,0.3-0.5,0.5-0.6
		c0.2-0.2,0.3-0.3,0.4-0.5c0.1-0.2,0.2-0.3,0.3-0.6c0.1-0.2,0-0.5,0-0.9c0.3-0.6,0.8-1.2,1.2-1.6c0.5-0.5,1-0.9,1.5-1.3
		c0.5-0.4,1.1-0.8,1.6-1.2c0.5-0.4,1.1-0.8,1.6-1.3c0.5,0.2,1,0.2,1.3,0c0.3-0.2,0.6-0.5,0.9-0.8c0.3-0.3,0.5-0.5,0.8-0.7
		c0.3-0.2,0.6-0.1,1,0.2l0.1,0.1c0.8-0.8,1.6-1.1,2.4-1c0.8,0.1,1.5,0.3,2,0.8c0.6,0.4,0.9,0.9,1.1,1.5c0.2,0.6,0,0.9-0.5,1.2
		c0.3,0.3,0.5,0.7,0.5,1.1c0,0.4-0.1,0.8-0.3,1.1c-0.3,0.3-0.5,0.7-0.7,1.1c-0.2,0.4-0.4,0.7-0.6,1.2c-0.3,0.7-0.6,1.3-1,1.9
		c-0.3,0.6-0.8,1.1-1.5,1.5c-0.5-0.1-0.9-0.1-1.1,0.2C57.2,34,57,34.3,57,34.6c-0.1,0.3-0.2,0.5-0.3,0.7c-0.1,0.2-0.4,0.1-0.7-0.2
		L55.8,35l-0.1,0.1c-0.2,0.2-0.4,0.5-0.5,0.8c-0.1,0.3-0.3,0.5-0.5,0.7c-0.3-0.1-0.5-0.2-0.8-0.2c-0.3-0.1-0.6-0.1-0.8-0.2
		c0,0.6-0.1,1.1-0.3,1.4c-0.2,0.3-0.5,0.6-0.9,0.8c-0.4,0.2-0.8,0.4-1.2,0.5c-0.5,0.1-0.9,0.3-1.4,0.5c-0.4,0.2-0.9,0.4-1.3,0.7
		c-0.4,0.3-0.7,0.7-0.9,1.2c0.3,0.3,0.7,0.5,1.1,0.5c0.4,0,0.9,0,1.3,0c0.5,0,0.9-0.1,1.4-0.1c0.4,0,0.8,0.1,1.2,0.3l0,0l0,0
		c0.7-0.1,1.4-0.3,2-0.5c0.7-0.2,1.3-0.5,1.9-0.8c0.6-0.3,1.3-0.5,1.9-0.8c0.7-0.2,1.3-0.4,2-0.5c0.1,0.2,0.3,0.4,0.6,0.4
		c0.2,0,0.5,0,0.7,0l0-0.1c0.1-0.2,0.1-0.4,0.2-0.5c0.1-0.2,0.1-0.3,0.3-0.5c0.2-0.3,0.4-0.6,0.7-0.7c0.3-0.2,0.6-0.3,0.9-0.4
		c0.3-0.1,0.7-0.1,1.1-0.2c0.4,0,0.8-0.1,1.1-0.1h0.1l0-0.1c0.1-0.3,0.3-0.6,0.5-0.7c0.2-0.1,0.4-0.2,0.6-0.3
		c0.2-0.1,0.4-0.1,0.7-0.1c0.2,0,0.5-0.1,0.7-0.3c0.5,0.2,1,0.1,1.3-0.2c0.3-0.3,0.7-0.6,1-0.9l0.3,0.4l0.1-0.2
		c0.4-0.4,0.8-0.7,1-0.9c0.2-0.2,0.4-0.4,0.6-0.5c0.2-0.2,0.4-0.3,0.7-0.5c0.3-0.2,0.7-0.4,1.2-0.7c0.4-0.3,0.8-0.5,1.2-0.8
		c0.4-0.3,0.8-0.6,1.2-0.9c0.1,0.1,0.2,0.2,0.2,0.3c0,0.2,0,0.3,0,0.5c0,0.1-0.1,0.1-0.1,0.3C76.9,31.8,76.9,31.9,77,31.9z M59,26.5
		C59,26.5,59,26.4,59,26.5c-0.1,0-0.1-0.1-0.1-0.1c-0.6-0.3-1.1-0.5-1.5-0.5c-0.4,0-0.8,0.1-1.1,0.3c-0.3,0.2-0.6,0.5-0.9,0.8
		c-0.3,0.3-0.6,0.6-0.9,0.9c-0.3,0.3-0.7,0.5-1.1,0.6c-0.4,0.1-0.9,0.1-1.5,0c-0.1,0.5-0.2,0.9-0.2,1.4c-0.1,0.4-0.1,0.9-0.2,1.4
		c-0.5,0.2-0.9,0.4-1.2,0.7c-0.3,0.3-0.5,0.7-0.7,1c-0.2,0.4-0.4,0.8-0.5,1.2c-0.2,0.4-0.4,0.8-0.6,1.2l0.2,0.2
		c0.1-0.1,0.2,0,0.4,0.1c0.1,0.1,0.2,0.2,0.3,0.3c0.3-0.5,0.7-0.9,1.3-1.2c0.5-0.3,1.1-0.6,1.7-0.9c0.6-0.3,1.1-0.6,1.6-0.9
		c0.5-0.3,0.9-0.7,1.2-1.3c0.9-0.3,1.6-0.8,2.1-1.6c0.5-0.8,0.9-1.6,1.2-2.4c0.1-0.2,0.2-0.4,0.3-0.8C58.9,26.9,59,26.6,59,26.5z"/>
	<path fill="#BA2025" d="M104.8,31.9c-0.3,0.3-0.5,0.5-0.6,0.6c-0.1,0.1-0.2,0.3-0.3,0.4c-0.1,0.1-0.2,0.3-0.3,0.4
		c-0.1,0.1-0.3,0.4-0.6,0.7c-0.2,0.2-0.4,0.5-0.7,0.7c-0.2,0.3-0.4,0.5-0.7,0.7c-0.3-0.1-0.6,0-0.8,0.1c-0.2,0.2-0.4,0.4-0.5,0.6
		c-0.2,0.2-0.3,0.4-0.4,0.6c-0.1,0.2-0.3,0.3-0.5,0.2c-0.7,0.4-1.4,0.7-2.1,1c-0.7,0.3-1.4,0.7-2,1.2l-0.3-0.3L90.4,41
		c-0.1,0.1-0.3,0.1-0.4,0.3c-0.1,0.1-0.3,0.2-0.4,0.3c-0.6,0.3-1.3,0.7-2,0.9c-0.7,0.3-1.4,0.5-2,0.8l-0.6,0.2c0.2,0.6,0.2,1,0,1.2
		c-0.2,0.2-0.6,0.4-1,0.5c-0.4,0.1-0.9,0.2-1.4,0.2c-0.5,0-0.9,0.1-1.2,0.3c-0.3-0.1-0.7-0.1-1.1-0.1c-0.4,0-0.7,0.1-1.1,0.1
		c-0.4,0.1-0.8,0.1-1.1,0.1c-0.3,0-0.7,0-1.1-0.1h-0.1c-0.5,0.2-0.9,0.3-1.3,0.2c-0.4-0.1-0.7-0.3-1-0.7c-0.3-0.3-0.6-0.7-0.8-1.1
		c-0.2-0.4-0.5-0.8-0.8-1.2c-0.2-0.2-0.4-0.6-0.7-1c-0.3-0.4-0.5-0.9-0.7-1.4c-0.2-0.5-0.3-1-0.3-1.5c0-0.5,0.1-0.9,0.3-1.3
		c0.3-0.4,0.5-0.8,0.6-1.2c0.2-0.4,0.2-0.9,0.2-1.5c0-0.2,0-0.4,0-0.6c0-0.2,0-0.4,0-0.6c0.1,0,0.3,0,0.5,0c0.2,0,0.3,0,0.5,0
		c0.2,0,0.3-0.1,0.4-0.2c0.1-0.1,0.2-0.3,0.2-0.5c0-0.1-0.1-0.3-0.2-0.3c-0.1-0.1-0.2-0.2-0.2-0.3c0.2-0.3,0.3-0.5,0.5-0.6
		c0.2-0.2,0.3-0.3,0.4-0.5c0.1-0.2,0.2-0.3,0.3-0.6c0.1-0.2,0-0.5,0-0.9c0.3-0.6,0.8-1.2,1.2-1.6c0.5-0.5,1-0.9,1.5-1.3
		c0.5-0.4,1.1-0.8,1.6-1.2c0.5-0.4,1.1-0.8,1.6-1.3c0.6,0.2,1,0.2,1.3,0c0.3-0.2,0.6-0.5,0.9-0.8c0.3-0.3,0.5-0.5,0.8-0.7
		c0.3-0.2,0.6-0.1,1,0.2l0.1,0.1c0.8-0.8,1.6-1.1,2.4-1c0.8,0.1,1.5,0.3,2,0.8c0.6,0.4,0.9,0.9,1.1,1.5c0.2,0.6,0,0.9-0.5,1.2
		c0.3,0.3,0.5,0.7,0.5,1.1c0,0.4-0.1,0.8-0.3,1.1c-0.3,0.3-0.5,0.7-0.7,1.1c-0.2,0.4-0.4,0.7-0.6,1.2c-0.3,0.7-0.6,1.3-1,1.9
		c-0.3,0.6-0.8,1.1-1.5,1.5c-0.5-0.1-0.9-0.1-1.1,0.2c-0.2,0.3-0.3,0.5-0.4,0.8c-0.1,0.3-0.2,0.5-0.3,0.7c-0.1,0.2-0.4,0.1-0.7-0.2
		L83.6,35l-0.1,0.1c-0.2,0.2-0.4,0.5-0.5,0.8c-0.1,0.3-0.3,0.5-0.5,0.7c-0.3-0.1-0.5-0.2-0.8-0.2c-0.3-0.1-0.6-0.1-0.8-0.2
		c0,0.6-0.1,1.1-0.3,1.4c-0.2,0.3-0.5,0.6-0.9,0.8c-0.4,0.2-0.8,0.4-1.2,0.5c-0.5,0.1-0.9,0.3-1.4,0.5c-0.5,0.2-0.9,0.4-1.3,0.7
		c-0.4,0.3-0.7,0.7-0.9,1.2c0.3,0.3,0.7,0.5,1.1,0.5c0.4,0,0.9,0,1.3,0c0.5,0,0.9-0.1,1.4-0.1c0.4,0,0.8,0.1,1.2,0.3l0,0l0,0
		c0.7-0.1,1.4-0.3,2-0.5c0.7-0.2,1.3-0.5,1.9-0.8c0.6-0.3,1.3-0.5,1.9-0.8c0.7-0.2,1.3-0.4,2-0.5c0.1,0.2,0.3,0.4,0.6,0.4
		c0.2,0,0.5,0,0.7,0l0-0.1c0.1-0.2,0.1-0.4,0.2-0.5c0.1-0.2,0.1-0.3,0.3-0.5c0.2-0.3,0.4-0.6,0.7-0.7c0.3-0.2,0.6-0.3,0.9-0.4
		c0.3-0.1,0.7-0.1,1.1-0.2c0.4,0,0.8-0.1,1.1-0.1h0.1l0-0.1c0.1-0.3,0.3-0.6,0.5-0.7c0.2-0.1,0.4-0.2,0.6-0.3
		c0.2-0.1,0.4-0.1,0.7-0.1c0.2,0,0.5-0.1,0.7-0.3c0.5,0.2,1,0.1,1.3-0.2c0.3-0.3,0.7-0.6,1-0.9l0.3,0.4l0.1-0.2
		c0.4-0.4,0.8-0.7,1-0.9c0.2-0.2,0.4-0.4,0.6-0.5c0.2-0.2,0.4-0.3,0.7-0.5c0.3-0.2,0.7-0.4,1.2-0.7c0.4-0.3,0.8-0.5,1.2-0.8
		c0.4-0.3,0.8-0.6,1.2-0.9c0.1,0.1,0.2,0.2,0.2,0.3c0,0.2,0,0.3,0,0.5c0,0.1-0.1,0.1-0.1,0.3C104.7,31.8,104.7,31.9,104.8,31.9z
		 M86.8,26.5C86.8,26.5,86.8,26.4,86.8,26.5c-0.1,0-0.1-0.1-0.1-0.1c-0.6-0.3-1.1-0.5-1.5-0.5c-0.4,0-0.8,0.1-1.1,0.3
		c-0.3,0.2-0.6,0.5-0.9,0.8c-0.3,0.3-0.6,0.6-0.9,0.9c-0.3,0.3-0.7,0.5-1.1,0.6c-0.4,0.1-0.9,0.1-1.5,0c-0.1,0.5-0.2,0.9-0.2,1.4
		c-0.1,0.4-0.1,0.9-0.2,1.4c-0.5,0.2-0.9,0.4-1.2,0.7c-0.3,0.3-0.5,0.7-0.7,1c-0.2,0.4-0.4,0.8-0.5,1.2c-0.2,0.4-0.4,0.8-0.6,1.2
		l0.2,0.2c0.1-0.1,0.2,0,0.4,0.1c0.1,0.1,0.2,0.2,0.3,0.3c0.3-0.5,0.7-0.9,1.3-1.2c0.5-0.3,1.1-0.6,1.7-0.9c0.6-0.3,1.1-0.6,1.6-0.9
		c0.5-0.3,0.9-0.7,1.2-1.3c0.9-0.3,1.6-0.8,2.1-1.6c0.5-0.8,0.9-1.6,1.2-2.4c0.1-0.2,0.2-0.4,0.3-0.8C86.7,26.9,86.8,26.6,86.8,26.5
		z"/>
	<path fill="#BA2025" d="M134.3,35.7c-0.6,1.4-1.2,2.6-1.7,3.4c-0.5,0.8-1.1,1.5-1.7,2c-0.6,0.5-1.3,1-2.2,1.5
		c-0.8,0.5-1.8,1.1-3,1.9c-0.5,0-1,0.1-1.6,0.3c-0.6,0.2-1.1,0.4-1.5,0.8c-0.9-0.1-1.7-0.3-2.4-0.6c-0.7-0.3-1.4-0.8-2-1.4
		c-0.1-0.1-0.3-0.3-0.4-0.5c-0.1-0.2-0.2-0.3-0.4-0.5c-0.3-0.4-0.5-0.7-0.6-1c-0.1-0.3-0.2-0.7-0.2-1.1c-0.1-0.7-0.3-1.1-0.5-1.4
		c-0.2-0.3-0.7-0.1-1.3,0.4l-0.4-0.3l-0.1,0.1c-0.3,0.2-0.5,0.4-0.6,0.5c-0.2,0.1-0.3,0.3-0.5,0.5c-0.2,0.2-0.3,0.3-0.5,0.5
		c-0.1,0.2-0.3,0.4-0.5,0.7c-0.3,0.4-0.7,0.9-1.2,1.3c-0.4,0.5-0.9,0.8-1.5,1c-0.1,0.1-0.2,0.2-0.2,0.2c-0.1,0.1-0.2,0.1-0.3,0.2
		c-0.2,0.1-0.4,0-0.6,0c-0.2-0.1-0.4-0.2-0.6-0.3c-0.3,0-0.6,0.1-0.8,0.2c-0.2,0.2-0.5,0.4-0.7,0.6c-0.2,0.2-0.4,0.5-0.6,0.8
		c-0.2,0.3-0.4,0.5-0.6,0.7c-0.5-0.2-0.9-0.2-1.3-0.1c-0.4,0.1-0.8,0.2-1.2,0.3c-0.4,0.1-0.8,0.1-1.1,0.1c-0.4,0-0.8-0.2-1.1-0.7
		c-0.2-0.9-0.3-1.7-0.4-2.4c-0.1-0.6-0.2-1.2-0.3-1.7c-0.1-0.6-0.1-0.9-0.1-1c0.1-0.1,0.2-0.3,0.2-0.6c0-0.2-0.1-0.5-0.1-0.6
		c-0.1,0-0.1-0.1-0.1-0.1c0,0,0-0.1-0.1-0.1c0.1-0.1,0.3-0.3,0.3-0.4c0.1-0.2,0.2-0.3,0.3-0.4c-0.1-0.2-0.2-0.5-0.3-0.8
		c-0.1-0.3-0.2-0.6-0.2-0.9c0.1-0.2,0.2-0.4,0.2-0.4c0.1,0,0.2-0.1,0.5-0.1c0-0.1-0.1-0.3-0.1-0.4c0-0.1-0.1-0.3,0-0.4
		c0-0.3,0.1-0.5,0.2-0.8c0.1-0.2,0.3-0.4,0.4-0.7c0.1-0.2,0.3-0.5,0.4-0.7c0.1-0.3,0.2-0.6,0.2-0.9V32c0.4,0,0.7-0.1,0.9-0.4
		c0.1-0.2,0.2-0.5,0.3-0.8c0-0.3,0-0.6,0-1c0-0.3,0.1-0.6,0.3-0.7c0.1-0.1,0.2-0.2,0.3-0.2c0.1,0,0.2,0,0.4,0
		c0.2-0.2,0.3-0.4,0.3-0.5c0.1-0.1,0-0.3,0-0.6c0.2,0,0.4,0,0.5-0.1c0.1-0.1,0.2-0.2,0.3-0.3c0.1-0.1,0.1-0.3,0.2-0.4
		c0.1-0.1,0.2-0.3,0.3-0.4c0-0.7,0.2-1.2,0.6-1.5c0.4-0.3,0.8-0.5,1.3-0.7c0.5-0.2,1-0.4,1.4-0.7c0.5-0.3,0.8-0.7,1.1-1.4
		c0.4,0.2,0.7,0.3,1,0.1c0.3-0.2,0.5-0.4,0.7-0.6c0.2-0.2,0.5-0.4,0.8-0.4c0.3-0.1,0.7,0.1,1.1,0.6c0.2-0.5,0.5-0.8,1.1-0.9
		c0.5,0,1,0.1,1.5,0.3v0h0c0.5,0.1,0.8,0.3,1,0.7c0.2,0.4,0.4,0.8,0.6,1.2c0.2,0.4,0.3,0.9,0.5,1.3c0.2,0.4,0.5,0.8,0.8,1
		c0.2-0.8,0.3-1.5,0.5-2.3c0.2-0.8,0.4-1.5,0.8-2.2c0.3,0.3,0.5,0.4,0.8,0.2l0-0.1c0-0.5,0.1-0.9,0.3-1.3c0.2-0.4,0.4-0.7,0.6-1.1
		c0.2-0.4,0.3-0.7,0.3-1.1c0-0.4-0.1-0.8-0.4-1.3c0.5-0.1,0.8-0.4,1.1-0.8c0.2-0.4,0.4-0.8,0.5-1.3c0.1-0.5,0.3-1,0.4-1.5
		c0.2-0.5,0.4-0.9,0.8-1.3c0-0.1,0-0.2,0-0.3c0-0.1,0-0.2,0-0.3c0-0.2,0.1-0.4,0.3-0.6c0.1-0.2,0.3-0.3,0.5-0.5
		c0.2-0.2,0.3-0.4,0.5-0.6c0.1-0.2,0.2-0.5,0.2-0.8c0.3-0.4,0.6-0.9,0.8-1.5c0.2-0.6,0.5-1.2,0.7-1.8s0.6-1,0.9-1.2
		c0.3-0.3,0.8-0.3,1.3,0.1c0.1,0.3,0.2,0.7,0.1,0.9c0,0.3-0.2,0.6-0.5,0.8c0.2,0.2,0.3,0.3,0.4,0.4c-0.1,0.9-0.3,1.8-0.5,2.7
		c-0.2,0.9-0.5,1.7-0.7,2.6c0.1,0.1,0.1,0.1,0.2,0.2c0.1,0.1,0.1,0.1,0.2,0.2c-0.5,0.7-0.9,1.4-1.2,2.1c-0.3,0.7-0.6,1.4-0.8,2.3
		c-0.1,0.3-0.2,0.7-0.2,1c-0.1,0.3-0.2,0.7-0.3,1c-0.1,0.3-0.3,0.6-0.5,0.9c-0.2,0.3-0.4,0.7-0.5,1c-0.3,0.7-0.6,1.3-0.8,2
		c-0.2,0.7-0.5,1.4-0.7,2.1c-0.3,0.8-0.6,1.7-0.9,2.5c-0.3,0.8-0.7,1.6-1.1,2.4v0.7c0,0.3-0.1,0.5-0.3,0.7c-0.2,0.1-0.4,0.2-0.6,0.3
		c-0.2,0.1-0.4,0.2-0.6,0.4c-0.2,0.2-0.3,0.5-0.4,0.9v0l0,0c0.3,0.6,0.4,1.2,0.2,1.8c-0.2,0.5-0.3,1.1-0.5,1.6
		c-0.2,0.5-0.3,1-0.4,1.5c-0.1,0.5,0.1,1,0.6,1.5c0,0.6,0.1,1,0.3,1.4c0.3,0.3,0.6,0.6,0.9,0.8c0.3,0.2,0.7,0.4,1.1,0.6
		c0.4,0.2,0.6,0.4,0.8,0.7c0.3-0.3,0.6-0.5,0.9-0.7c0.3-0.2,0.7-0.3,1-0.4c0.3-0.1,0.7-0.2,1-0.2c0.3-0.1,0.7-0.2,1-0.3
		c0.8-0.2,1.3-0.4,1.6-0.7c0.3-0.3,0.4-0.5,0.4-0.6c0-0.4,0.2-0.7,0.5-0.8c0.3-0.1,0.6-0.2,1-0.2c0.4,0,0.7-0.1,1.1-0.2
		c0.4-0.1,0.6-0.3,0.8-0.7c0.3,0,0.6-0.1,0.8-0.3c0.2-0.2,0.5-0.5,0.7-0.8c0.2-0.3,0.4-0.5,0.6-0.7
		C133.8,35.5,134.1,35.5,134.3,35.7z M116.4,29c-0.5-0.3-0.8-0.7-0.9-1.2c-0.2-0.4-0.3-0.9-0.4-1.4c-0.1-0.5-0.2-0.9-0.4-1.3
		c-0.2-0.4-0.5-0.8-0.9-1.1l-0.1,0c0,0-0.2,0-0.5,0.1c-0.3,0.1-0.5,0.1-0.5,0.1c0.2,0.2,0.4,0.4,0.4,0.5c0.1,0.1,0.1,0.3,0,0.4
		c0,0.1-0.1,0.3-0.2,0.5c-0.1,0.2-0.2,0.4-0.2,0.6c-0.1,0.1-0.2,0-0.3-0.1c-0.2-0.1-0.3-0.2-0.4-0.2c-0.4,0.6-1,1-1.7,1.2
		c-0.7,0.2-1.4,0.4-2.1,0.5c0.1,0.1,0.1,0.3,0.2,0.4c0.1,0.1,0.1,0.2,0.2,0.4c-0.9,0.6-1.5,1.3-1.9,2.1c-0.4,0.8-0.7,1.7-1,2.6
		c-0.3,0.9-0.7,1.7-1.1,2.6c-0.4,0.8-1.1,1.5-1.9,2.1c0.1,0.2,0.2,0.5,0.3,0.7c0.1,0.2,0.2,0.4,0.6,0.5c0.1,0.3,0.1,0.6,0.1,1
		c0,0.3-0.1,0.7-0.1,1c-0.1,0.3-0.1,0.6-0.1,1c0,0.3,0,0.7,0.1,1l0.1,0.1c0.9,0.3,1.6,0.3,2.1,0.1c0.5-0.3,1-0.6,1.3-1
		c0.4-0.4,0.8-0.8,1.3-1.1c0.5-0.3,1.1-0.4,2-0.3l0.2-0.3c-0.1-0.1-0.1-0.3-0.1-0.4c0-0.1,0-0.2,0-0.4c0-0.3,0.1-0.6,0.3-0.8
		c0.1-0.2,0.3-0.4,0.6-0.6c0.2-0.2,0.4-0.5,0.6-0.7c0.2-0.3,0.4-0.5,0.5-0.8c0.2-0.3,0.4-0.5,0.6-0.7c0.2-0.2,0.5-0.2,0.9-0.1
		l0.8-3.1c0-0.1,0.2-0.3,0.4-0.4c0.2-0.1,0.5-0.2,0.7-0.4c0.2-0.1,0.3-0.3,0.3-0.6c0-0.2-0.1-0.5-0.5-0.9c0.1-0.1,0.1-0.3,0.1-0.4
		c0-0.2,0.1-0.3,0.1-0.5c0.1-0.1,0.1-0.3,0.2-0.3c0.1-0.1,0.2-0.1,0.4,0L116.4,29z"/>
	<path fill="#BA2025" d="M160.8,31.6c0.1,0.4,0.1,0.8-0.1,1.1c-0.2,0.3-0.5,0.6-0.8,0.8c-0.3,0.2-0.7,0.4-1.1,0.6
		c-0.4,0.2-0.7,0.4-1,0.6c-1.3,0.3-2.5,0.5-3.5,0.6c-1.1,0.1-2.2,0.3-3.5,0.5c-0.4,0.1-0.7,0.1-1.1,0c-0.3-0.1-0.7-0.1-1-0.1
		c-0.2,0-0.4,0-0.6,0c-0.2,0-0.3,0-0.5,0c-0.7,0.1-1.1,0.3-1.3,0.7c-0.2,0.4-0.4,0.8-0.5,1.3c-0.1,0.5-0.3,1-0.5,1.4
		c-0.2,0.4-0.6,0.8-1.2,0.9c-0.1,0.1,0,0.3,0.1,0.4c0.1,0.1,0.2,0.2,0.2,0.3c-0.5,0.1-0.8,0.4-1,0.8c-0.2,0.4-0.3,0.8-0.4,1.1
		c-0.1,0.4-0.3,0.7-0.5,1c-0.2,0.3-0.6,0.3-1.2,0.3c-0.9,1-2,1.7-3.2,2.3c-1.2,0.6-2.5,1-3.8,1.2c-0.2-0.1-0.5-0.3-0.7-0.4
		c-0.2-0.2-0.4-0.3-0.7-0.5c-0.2-0.1-0.4-0.3-0.7-0.3c-0.2-0.1-0.5-0.1-0.8,0c0-0.6-0.2-1.2-0.4-1.7c-0.2-0.5-0.5-1-0.8-1.5
		c-0.1-0.5,0-1,0.2-1.5c0.2-0.4,0.4-0.9,0.6-1.3c0.2-0.4,0.4-0.9,0.5-1.3c0.1-0.4,0.1-1-0.1-1.5c0.3-0.2,0.5-0.4,0.6-0.6
		c0.1-0.2,0.2-0.5,0.2-0.7c0-0.2,0.1-0.5,0.2-0.7c0.1-0.2,0.3-0.4,0.6-0.5c-0.2-0.7-0.2-1.2,0.1-1.5c0.3-0.3,0.7-0.6,1.1-0.9
		c0.4-0.3,0.8-0.6,1.2-0.9c0.4-0.3,0.5-0.8,0.4-1.4c0.2-0.2,0.4-0.3,0.6-0.4c0.2-0.1,0.5-0.2,0.7-0.3c0.2-0.1,0.4-0.2,0.6-0.3
		c0.2-0.1,0.4-0.3,0.6-0.5c-0.2-0.1-0.3-0.3-0.3-0.4c0-0.1,0.1-0.3,0.1-0.5c0.1-0.2,0.1-0.3,0.2-0.5c0.1-0.2,0.1-0.3,0-0.5
		c0.8,0.1,1.5,0,2.1-0.3s1.2-0.7,1.7-1c0.5-0.3,1.1-0.6,1.6-0.7c0.5-0.1,1.2,0,1.9,0.5c0.1,0.2,0.2,0.5,0.3,0.9
		c0.1,0.4,0.3,0.8,0.4,1.2c0.1,0.4,0.3,0.8,0.4,1.2c0.1,0.4,0.2,0.7,0.2,0.8c0,0.1,0,0.4,0,0.7c0,0.3,0,0.7,0,1c0,0.4,0,0.7,0,1
		c0,0.3,0,0.6,0,0.7c0.8,0.5,1.7,0.8,2.5,0.9c0.8,0.1,1.7-0.1,2.5-0.6c0.3,0.3,0.6,0.4,0.9,0.2c0.3-0.1,0.6-0.3,0.8-0.5
		c0.3-0.2,0.6-0.3,0.8-0.3c0.3,0,0.6,0.2,0.9,0.7c0.4-0.4,0.8-0.6,1.3-0.7c0.4-0.1,0.9-0.2,1.3-0.2s0.9-0.1,1.4-0.1
		C159.9,32.1,160.3,31.9,160.8,31.6z M143.8,35.8c-0.6,0-1.1-0.1-1.5-0.4c-0.4-0.3-0.8-0.6-1.3-0.9c-0.4-0.3-0.9-0.7-1.3-1
		c-0.4-0.3-1-0.5-1.6-0.5c-0.3,0.3-0.6,0.7-0.9,1c-0.3,0.3-0.7,0.6-0.9,1c-0.3,0.3-0.4,0.7-0.5,1.1c-0.1,0.4,0,0.9,0.2,1.4
		c-0.7,0.3-1.1,0.8-1.3,1.4c-0.2,0.6-0.4,1.2-0.5,1.9c-0.1,0.7-0.1,1.4-0.2,2.1c-0.1,0.7-0.2,1.3-0.6,1.9l1-0.7
		c0.1,0.1,0.2,0.1,0.3,0.3c0.1,0.1,0.1,0.2,0,0.4c0.2-0.2,0.5-0.4,0.8-0.5c0.3-0.1,0.6-0.2,0.9-0.3c0.3-0.1,0.6-0.1,0.9-0.2
		c0.3-0.1,0.6-0.1,0.9-0.3c0.7,0.4,1.2,0.5,1.6,0.3c0.3-0.2,0.6-0.6,0.8-1c0.2-0.5,0.4-0.9,0.7-1.5c0.2-0.5,0.6-0.8,1.1-0.9
		l-0.3-0.3c0.5-0.6,0.9-1.2,1.3-1.9C143.6,37.3,143.8,36.6,143.8,35.8z M144.1,32.3c0-0.4,0.1-0.9,0.2-1.4c0.1-0.5,0.3-1,0.3-1.5
		c0.1-0.5,0.1-0.9,0-1.4c-0.1-0.4-0.4-0.8-0.8-1.2c-0.3,0.2-0.6,0.4-0.8,0.7c-0.2,0.3-0.4,0.6-0.6,0.9c-0.2,0.3-0.4,0.6-0.7,0.8
		c-0.3,0.2-0.6,0.3-1.1,0.2c-0.1,0.3-0.1,0.6,0,0.8c0.1,0.2,0.3,0.4,0.5,0.6c0.2,0.2,0.4,0.4,0.6,0.6c0.2,0.2,0.3,0.5,0.2,0.8
		c0.1,0.1,0.3,0.2,0.5,0.2c0.2,0.1,0.4,0.1,0.6,0.1c0.2,0,0.4,0,0.6-0.1C143.9,32.6,144,32.5,144.1,32.3z"/>
	<path fill="#BA2025" d="M205.6,37.7c-0.3,0.2-0.6,0.5-1.1,0.9c-0.4,0.4-0.7,0.7-0.9,1c-0.2,0.3-0.3,0.5-0.4,0.8
		c-0.1,0.2-0.2,0.4-0.3,0.6c-0.1,0.2-0.3,0.3-0.5,0.4c-0.2,0.1-0.5,0.1-0.9,0.1c0,0.1-0.2,0.3-0.5,0.5c-0.3,0.3-0.6,0.6-1,0.9
		c-0.3,0.3-0.7,0.6-1,0.9c-0.3,0.3-0.4,0.5-0.4,0.5l-0.4-0.2c-0.1,0-0.2,0-0.5,0c-0.3,0-0.6,0.1-1,0.3c-0.4,0.1-0.7,0.3-1.1,0.5
		c-0.3,0.2-0.6,0.5-0.8,0.9l-0.2,0c-0.4-0.1-0.9-0.1-1.3-0.1c-0.4,0.1-0.9,0.1-1.3,0.1c-0.9,0.1-1.6-0.1-2-0.4
		c-0.4-0.3-0.9-1-1.4-1.9c-0.1-0.2-0.2-0.4-0.3-0.7c-0.1-0.2-0.2-0.5-0.2-0.7v-0.2c0.4-0.2,0.6-0.5,0.7-0.9c0-0.4,0-0.8,0-1.2
		c-0.1-0.4-0.1-0.9-0.1-1.3c0-0.4,0.1-0.7,0.5-1c-0.2-0.5-0.2-0.9,0.1-1.3c0.2-0.4,0.4-0.8,0.6-1.2c0.2-0.4,0.3-0.7,0.3-1.1
		c0-0.3-0.3-0.7-1-1.1c-0.7,0.3-1.3,0.6-1.9,1c-0.6,0.4-1.2,0.8-1.8,1.2c-0.6,0.4-1.2,0.8-1.8,1.2c-0.6,0.4-1.2,0.7-1.9,1
		c-0.6,0.7-1.2,1.2-1.9,1.7c-0.7,0.5-1.3,1-1.9,1.5c-0.6,0.5-1.2,1.1-1.7,1.8c-0.5,0.7-0.9,1.5-1.2,2.4c-0.1-0.2-0.3-0.3-0.4-0.3
		c-0.1-0.1-0.3-0.1-0.6-0.2c-0.3-0.1-0.6-0.2-0.7-0.3c-0.1-0.1-0.3-0.3-0.6-0.5l0-0.1c0.3-0.8,0.6-1.5,0.9-2.3
		c0.3-0.8,0.5-1.6,0.5-2.3c0-0.3,0-0.6-0.1-0.8c-0.1-0.2-0.1-0.5-0.1-0.8c0-0.5,0.1-1,0.3-1.4c0.2-0.4,0.4-0.8,0.6-1.2
		c0.2-0.4,0.4-0.7,0.6-1.1c0.2-0.4,0.3-0.7,0.3-1.2c0-0.3-0.1-0.6-0.2-1c-0.1-0.3-0.3-0.6-0.6-0.8c-0.4,0-0.8,0-1.2,0.2
		c-0.4,0.1-0.8,0.3-1.1,0.5c-0.4,0.2-0.8,0.3-1.2,0.5s-0.8,0.2-1.3,0.2c-0.6,0.6-1.2,1.2-1.9,1.8c-0.6,0.6-1.3,1.2-1.9,1.8
		c-1.3,1.2-2.6,2.4-3.9,3.7c-1.3,1.3-2.3,2.7-3,4.3c-0.1,0.3-0.3,0.6-0.4,1c-0.1,0.3-0.2,0.7-0.4,1c0,0.1,0,0.1-0.1,0.2h-0.2
		c-0.3,0-0.5,0.1-0.6,0.3c-0.1,0.2-0.2,0.4-0.2,0.6c0,0.2-0.1,0.4-0.2,0.6c-0.1,0.2-0.2,0.3-0.4,0.4c-0.2,0.1-0.5,0-0.7-0.1
		c-0.2-0.1-0.4-0.3-0.5-0.4l0,0c-0.3-0.5-0.4-0.9-0.5-1.4c0-0.5,0-1,0.2-1.5c0.1-0.5,0.3-0.9,0.6-1.4c0.2-0.5,0.5-0.9,0.7-1.3
		c0.3-0.6,0.7-1.2,1-1.9c0.3-0.7,0.5-1.3,0.5-2.1c0-0.3,0-0.6-0.1-0.8c-0.1-0.2-0.1-0.5-0.2-0.8l1-0.7c-0.1-0.2-0.2-0.4-0.2-0.5
		c0-0.2,0-0.3,0-0.5c0-0.1,0-0.3,0-0.4c0-0.1,0-0.3-0.1-0.4v-0.1l0.3-0.4c-0.1-1-0.1-1.9-0.1-2.7c0-0.8-0.2-1.7-0.5-2.6
		c0.4-0.4,0.8-0.5,1.2-0.3c0.4,0.2,0.8,0.4,1.1,0.6v0l0,0c0.2,0.3,0.4,0.8,0.6,1.3c0.2,0.5,0.3,1,0.4,1.5c0.1,0.5,0.2,1.1,0.2,1.6
		c0.1,0.5,0.1,1,0.1,1.4c0,0.1,0,0.2,0,0.3c0,0.1,0,0.2,0,0.3l-0.3,0.3c0.1,0.1,0.3,0.3,0.5,0.4c0.2,0.1,0.4,0.2,0.6,0.2
		c0.2-0.5,0.4-0.9,0.8-1c0.4-0.2,0.8-0.3,1.2-0.4c0.4-0.1,0.7-0.2,1-0.4c0.3-0.2,0.5-0.5,0.5-1c0-0.1,0-0.2,0-0.3l0.1-0.1
		c0.8-0.8,1.6-1.5,2.5-2.2c0.9-0.7,1.8-1.1,2.7-1.5c0.9-0.3,1.9-0.4,3-0.4c1,0.1,2.1,0.4,3.3,1l0.1,0l0.5,1.8l-0.3,0.3
		c0.3,0.4,0.4,0.9,0.3,1.4c-0.1,0.5-0.2,1.1-0.4,1.6c-0.2,0.5-0.3,1-0.5,1.5c-0.1,0.4-0.1,0.8,0,1c0.1,0.2,0.4,0.3,0.8,0.3
		c0.4,0,0.7-0.1,0.9-0.1c0.2-0.3,0.6-0.6,1-0.8c0.4-0.2,0.8-0.4,1.3-0.7c0.4-0.2,0.8-0.4,1.1-0.6c0.3-0.2,0.5-0.5,0.5-0.7
		c0.5,0.1,0.8,0.1,1.1-0.1c0.3-0.1,0.5-0.3,0.7-0.6c0.2-0.3,0.3-0.5,0.5-0.8c0.1-0.3,0.3-0.6,0.5-0.9c0.2-0.3,0.4-0.5,0.7-0.6
		c0.3-0.1,0.7-0.2,1.2-0.1c0.7-0.7,1.5-1.2,2.4-1.5c0.9-0.3,1.8-0.5,2.8-0.5c0.7,0,1.1,0.2,1.4,0.6c0.3,0.4,0.4,0.9,0.4,1.5
		c0,0.8-0.2,1.5-0.5,2.2c-0.3,0.7-0.7,1.4-1.2,2.1c-0.4,0.7-0.8,1.5-1.2,2.3c-0.3,0.8-0.5,1.7-0.5,2.6c0,0.1,0,0.2,0,0.5
		c0,0.2,0,0.4,0,0.7c0,0.2,0.1,0.4,0.1,0.6c0,0.2,0.1,0.3,0.2,0.4c0.1,0.1,0.2,0.1,0.3,0.1l-0.2,0.2c0.7,0.1,1.3,0.2,1.8,0.4
		c0.5,0.2,1.1,0.1,1.7-0.2c0.2-0.1,0.4-0.1,0.5-0.1c0.2,0,0.4-0.1,0.5-0.1c0.3,0,0.4-0.1,0.5-0.3c0.1-0.2,0.2-0.4,0.3-0.6
		c0.2-0.2,0.4-0.4,0.8-0.5c0.4-0.2,1-0.2,1.8-0.2v-0.7c0.6-0.2,1.1-0.4,1.5-0.7c0.4-0.3,0.8-0.5,1.2-0.8c0.4-0.2,0.8-0.4,1.3-0.5
		C204.3,37.5,204.9,37.5,205.6,37.7z"/>
	<path fill="#BA2025" d="M249.9,13.8c-0.4,0.4-0.9,0.7-1.3,0.7c-0.5,0-1,0-1.5-0.1c-0.5-0.1-0.9-0.1-1.4-0.1c-0.4,0-0.8,0.3-1.2,0.7
		c-0.5-0.1-0.9-0.1-1.4-0.1c-0.5,0.1-1,0.2-1.5,0.3c-0.5,0.1-1,0.3-1.6,0.4c-0.5,0.1-1,0.2-1.6,0.1l-0.7-0.7
		c-0.2,0.3-0.5,0.5-0.8,0.6c-0.4,0.1-0.7,0-1.1-0.2c-0.6,0.4-1.2,0.6-1.8,0.6c-0.6,0-1.2-0.1-1.8-0.1c-0.6,0-1.1,0.1-1.6,0.3
		c-0.5,0.2-0.9,0.8-1.3,1.8c-0.3,0.7-0.5,1.3-0.7,2c-0.2,0.7-0.5,1.4-0.7,2c-0.6,1.7-1.3,3.5-1.9,5.1c-0.7,1.7-1.4,3.4-2.2,5
		c-0.1,1.3,0,2.6,0.1,4c0.1,1.3,0.2,2.7,0.4,4c-0.1,0.3-0.2,0.7-0.1,1.1c0,0.4,0.1,0.8,0.3,1.1c0.1,0.4,0.3,0.7,0.5,1.1
		c0.2,0.3,0.4,0.6,0.7,0.9l0.8-0.7l1.1,1.5c0.3-0.4,0.6-0.8,1-1.2c0.4-0.4,0.8-0.8,1.2-1.2c0.4-0.4,0.9-0.7,1.4-0.9
		c0.5-0.2,1-0.4,1.5-0.5c0.2-0.2,0.4-0.4,0.6-0.7c0.2-0.2,0.4-0.4,0.6-0.6c0.2-0.2,0.4-0.3,0.7-0.3c0.3-0.1,0.5-0.1,0.9,0.1
		c0.9-0.5,1.8-1.2,2.5-2c0.7-0.8,1.4-1.6,2.2-2.4c0.7-0.8,1.5-1.5,2.3-2.2c0.8-0.7,1.7-1.1,2.8-1.4c-0.7,1.7-1.6,3.3-2.7,4.9
		c-1.1,1.6-2.3,3-3.6,4.2c-0.3,0.4-0.8,0.8-1.3,1.1c-0.2,0.1-0.5,0.3-0.7,0.5c-0.3,0.2-0.5,0.3-0.7,0.5c-0.8,0.5-1.5,1.1-2.3,1.7
		c-0.7,0.6-1.4,1.3-2.1,2c-0.1-0.2-0.2-0.3-0.3-0.3c-0.1-0.1-0.3-0.1-0.5-0.1c-0.2,0-0.4,0-0.6,0c-0.2,0-0.4,0-0.5,0
		c-0.5,0.4-1.3,0.7-2.2,1c-0.9,0.2-1.7,0.3-2.4,0.2c-0.2-0.1-0.5-0.2-0.8-0.3c-0.3-0.2-0.6-0.3-0.8-0.4c-1.1-0.8-2-1.7-2.5-2.8
		c-0.6-1.1-0.9-2.3-0.9-3.7l-0.3-0.3c0.4-0.3,0.6-0.7,0.7-1c0.1-0.3,0.1-0.7,0.1-1.1c0-0.4-0.1-0.7-0.2-1.1
		c-0.1-0.4-0.2-0.8-0.2-1.2c0-0.3,0-0.5,0-0.7c0-0.2,0.1-0.4,0.2-0.6c0.2-0.9,0.4-1.8,0.7-2.7c0.2-0.9,0.4-1.8,0.7-2.7
		c0.6-2.2,1.3-4.4,2-6.5c0.8-2.2,1.6-4.3,2.4-6.4c-0.5-0.2-0.9-0.3-1.4-0.3c-0.5,0-0.9-0.1-1.4-0.1c-0.5,0-1,0-1.4,0
		c-0.5,0-0.9-0.1-1.4-0.3c-0.2-0.1-0.3-0.1-0.3-0.2c0,0-0.1,0-0.3,0c-0.1,0-0.3,0-0.6,0.1c-0.3,0-0.5,0.1-0.8,0.1
		c-0.3,0-0.5,0-0.7-0.1c-0.2-0.1-0.3-0.2-0.4-0.4V14c0-0.5,0.1-0.8,0.3-0.9c0.2-0.2,0.4-0.3,0.7-0.3c0.3,0,0.6-0.1,0.9-0.1
		c0.3,0,0.6-0.1,0.9-0.3c0.8,0.2,1.6,0.3,2.3,0.4c0.7,0.1,1.4,0.1,2.1,0c0.7-0.1,1.3-0.3,2-0.6c0.7-0.3,1.3-0.7,1.9-1.3
		c0.5-0.9,0.8-1.9,1-2.9c0.2-1,0.5-2,0.8-3c0.3-1,0.7-1.9,1.2-2.8c0.5-0.9,1.2-1.6,2.3-2.2c0.5-0.1,0.9,0,1.2,0.2
		c0.3,0.2,0.7,0.4,1,0.6c-0.1,0.4-0.3,0.8-0.3,1.3c-0.1,0.4-0.2,0.9-0.3,1.3c-0.1,0.4-0.2,0.9-0.4,1.3c-0.1,0.4-0.4,0.8-0.7,1.1
		c0.4,0.1,0.6,0.3,0.7,0.5c0.1,0.2,0,0.4-0.1,0.7c-0.1,0.2-0.3,0.5-0.4,0.7c-0.2,0.3-0.3,0.5-0.3,0.7c-0.3,0-0.6,0.2-0.8,0.6
		c-0.2,0.4-0.4,0.7-0.7,0.9c-0.2,0.5-0.2,0.9,0.1,1.3c0.3,0.3,0.6,0.7,0.9,1c0.3,0.1,0.5,0.1,0.8,0c0.3-0.1,0.5-0.2,0.7-0.2
		c0.2-0.1,0.4-0.1,0.6-0.1s0.4,0.1,0.6,0.3c0.3-0.3,0.6-0.5,0.9-0.4c0.3,0,0.6,0.1,0.9,0.2c0.3,0.1,0.6,0.1,0.9,0.1
		c0.3,0,0.6-0.2,0.8-0.7c0.4-0.2,0.7-0.2,1-0.1c0.3,0.1,0.6,0.2,0.9,0.3c0.3,0.1,0.5,0.2,0.8,0.3c0.2,0.1,0.5,0,0.8-0.2
		c0.4,0.1,0.9,0.1,1.5,0c0.5,0,1.1-0.1,1.6-0.2c0.5-0.1,1.1-0.2,1.6-0.3c0.5-0.1,1-0.2,1.5-0.3c0.4,0.3,0.7,0.5,0.8,0.7
		c0.1,0.2,0.1,0.4,0.1,0.6c0,0.2-0.1,0.4-0.2,0.7C249.7,13.1,249.8,13.4,249.9,13.8z"/>
	<path fill="#BA2025" d="M270.3,31.6c0.1,0.4,0.1,0.8-0.1,1.1c-0.2,0.3-0.5,0.6-0.8,0.8c-0.3,0.2-0.7,0.4-1.1,0.6
		c-0.4,0.2-0.7,0.4-1,0.6c-1.3,0.3-2.5,0.5-3.5,0.6c-1.1,0.1-2.2,0.3-3.5,0.5c-0.4,0.1-0.7,0.1-1.1,0c-0.3-0.1-0.7-0.1-1-0.1
		c-0.2,0-0.4,0-0.6,0c-0.2,0-0.3,0-0.5,0c-0.7,0.1-1.1,0.3-1.3,0.7c-0.2,0.4-0.4,0.8-0.5,1.3c-0.1,0.5-0.3,1-0.5,1.4
		c-0.2,0.4-0.6,0.8-1.2,0.9c-0.1,0.1,0,0.3,0.1,0.4c0.1,0.1,0.2,0.2,0.2,0.3c-0.5,0.1-0.8,0.4-1,0.8c-0.2,0.4-0.3,0.8-0.4,1.1
		c-0.1,0.4-0.3,0.7-0.5,1c-0.2,0.3-0.6,0.3-1.2,0.3c-0.9,1-2,1.7-3.2,2.3c-1.2,0.6-2.5,1-3.8,1.2c-0.2-0.1-0.5-0.3-0.7-0.4
		c-0.2-0.2-0.4-0.3-0.6-0.5c-0.2-0.1-0.5-0.3-0.7-0.3c-0.2-0.1-0.5-0.1-0.8,0c0-0.6-0.2-1.2-0.4-1.7c-0.2-0.5-0.5-1-0.8-1.5
		c-0.1-0.5,0-1,0.2-1.5c0.2-0.4,0.4-0.9,0.6-1.3c0.2-0.4,0.4-0.9,0.5-1.3c0.1-0.4,0.1-1-0.1-1.5c0.3-0.2,0.5-0.4,0.6-0.6
		c0.1-0.2,0.2-0.5,0.2-0.7c0-0.2,0.1-0.5,0.2-0.7c0.1-0.2,0.3-0.4,0.6-0.5c-0.2-0.7-0.2-1.2,0.1-1.5c0.3-0.3,0.7-0.6,1.1-0.9
		c0.4-0.3,0.8-0.6,1.2-0.9c0.4-0.3,0.5-0.8,0.4-1.4c0.2-0.2,0.4-0.3,0.6-0.4c0.2-0.1,0.5-0.2,0.7-0.3c0.2-0.1,0.4-0.2,0.6-0.3
		c0.2-0.1,0.4-0.3,0.6-0.5c-0.2-0.1-0.3-0.3-0.3-0.4c0-0.1,0.1-0.3,0.1-0.5c0.1-0.2,0.1-0.3,0.2-0.5c0.1-0.2,0.1-0.3,0-0.5
		c0.8,0.1,1.5,0,2.1-0.3c0.6-0.3,1.2-0.7,1.7-1c0.5-0.3,1.1-0.6,1.6-0.7c0.6-0.1,1.2,0,1.9,0.5c0.1,0.2,0.2,0.5,0.3,0.9
		c0.1,0.4,0.3,0.8,0.4,1.2c0.1,0.4,0.3,0.8,0.4,1.2c0.1,0.4,0.2,0.7,0.2,0.8c0,0.1,0,0.4,0,0.7c0,0.3,0,0.7,0,1c0,0.4,0,0.7,0,1
		c0,0.3,0,0.6,0,0.7c0.8,0.5,1.7,0.8,2.5,0.9c0.8,0.1,1.7-0.1,2.5-0.6c0.3,0.3,0.6,0.4,0.9,0.2c0.3-0.1,0.6-0.3,0.8-0.5
		c0.3-0.2,0.6-0.3,0.8-0.3c0.3,0,0.6,0.2,0.9,0.7c0.4-0.4,0.8-0.6,1.3-0.7c0.4-0.1,0.9-0.2,1.3-0.2c0.5,0,0.9-0.1,1.4-0.1
		C269.5,32.1,269.9,31.9,270.3,31.6z M253.4,35.8c-0.6,0-1.1-0.1-1.5-0.4c-0.4-0.3-0.8-0.6-1.3-0.9c-0.4-0.3-0.9-0.7-1.3-1
		c-0.5-0.3-1-0.5-1.6-0.5c-0.3,0.3-0.6,0.7-0.9,1c-0.3,0.3-0.6,0.6-0.9,1c-0.3,0.3-0.4,0.7-0.5,1.1c-0.1,0.4,0,0.9,0.2,1.4
		c-0.7,0.3-1.1,0.8-1.4,1.4c-0.2,0.6-0.4,1.2-0.5,1.9c-0.1,0.7-0.1,1.4-0.2,2.1c-0.1,0.7-0.2,1.3-0.6,1.9l1-0.7
		c0.1,0.1,0.2,0.1,0.3,0.3c0.1,0.1,0.1,0.2,0,0.4c0.2-0.2,0.5-0.4,0.8-0.5c0.3-0.1,0.6-0.2,0.9-0.3c0.3-0.1,0.6-0.1,0.9-0.2
		c0.3-0.1,0.6-0.1,0.9-0.3c0.7,0.4,1.2,0.5,1.6,0.3c0.3-0.2,0.6-0.6,0.8-1c0.2-0.5,0.4-0.9,0.7-1.5c0.2-0.5,0.6-0.8,1.1-0.9
		l-0.3-0.3c0.5-0.6,0.9-1.2,1.3-1.9C253.2,37.3,253.4,36.6,253.4,35.8z M253.7,32.3c0-0.4,0.1-0.9,0.2-1.4c0.1-0.5,0.3-1,0.3-1.5
		c0.1-0.5,0.1-0.9,0-1.4c-0.1-0.4-0.4-0.8-0.8-1.2c-0.3,0.2-0.6,0.4-0.8,0.7c-0.2,0.3-0.4,0.6-0.6,0.9c-0.2,0.3-0.4,0.6-0.7,0.8
		c-0.3,0.2-0.6,0.3-1.1,0.2c-0.1,0.3-0.1,0.6,0,0.8c0.1,0.2,0.3,0.4,0.5,0.6c0.2,0.2,0.4,0.4,0.6,0.6c0.2,0.2,0.3,0.5,0.2,0.8
		c0.1,0.1,0.3,0.2,0.5,0.2c0.2,0.1,0.4,0.1,0.6,0.1c0.2,0,0.4,0,0.6-0.1C253.4,32.6,253.6,32.5,253.7,32.3z"/>
	<path fill="#BA2025" d="M300.5,37.6c0,0.6,0,1.1-0.2,1.3c-0.1,0.3-0.3,0.5-0.5,0.6c-0.2,0.2-0.3,0.3-0.5,0.5
		c-0.1,0.2-0.2,0.5-0.2,1c-0.7,0.7-1.2,1.3-1.6,1.6c-0.4,0.3-0.8,0.6-1.2,0.8c-0.4,0.2-0.8,0.5-1.3,0.7c-0.5,0.3-1.1,0.7-1.9,1.2
		l-0.3,0c-0.1,0.4-0.2,0.7-0.5,0.8c-0.2,0.1-0.5,0.1-0.7,0.1c-0.3,0-0.5,0-0.8,0.1c-0.3,0.1-0.5,0.3-0.7,0.7
		c-0.5,0.1-0.9,0.2-1.3,0.2c-0.4,0-0.8,0-1.4,0c-0.2,0-0.4,0-0.7,0c-0.3,0-0.5,0-0.7,0c-0.1,0-0.2,0.1-0.4,0.2
		c-0.1,0.1-0.3,0.2-0.4,0.3c-0.1,0.1-0.3,0.1-0.4,0.1c-0.1,0-0.3-0.1-0.4-0.4c-0.3,0.1-0.7,0.1-1,0c-0.3-0.1-0.6-0.2-0.8-0.4
		c-0.3-0.2-0.5-0.4-0.7-0.7c-0.2-0.3-0.4-0.5-0.6-0.8c-0.1-0.2-0.3-0.3-0.5-0.5c-0.2-0.1-0.3-0.3-0.5-0.4c-0.3-0.3-0.6-0.7-0.7-1.2
		c-0.1-0.5-0.2-1-0.3-1.5c0-0.5,0-1,0-1.6c0.1-0.5,0.1-1,0.3-1.4c0.3-0.3,0.4-0.6,0.5-0.9c0.1-0.3,0.2-0.7,0.3-1
		c0.1-0.3,0.2-0.7,0.3-1c0.1-0.3,0.3-0.6,0.5-0.9c0-0.4,0.1-0.7,0.2-1c0.1-0.3,0.3-0.6,0.5-0.9c0.2-0.3,0.5-0.6,0.7-0.8
		c0.3-0.2,0.5-0.5,0.8-0.7c0.2,0,0.5,0,0.7,0c0.2,0,0.5,0,0.7,0c0.2,0,0.4,0.1,0.5,0.3c0.1,0.1,0.3,0.3,0.3,0.6
		c0.2,0.8,0.2,1.4-0.1,1.9c-0.3,0.5-0.6,0.9-1,1.4c-0.4,0.4-0.7,0.9-0.9,1.3c-0.2,0.5-0.2,1.1,0.2,1.8c-0.3,0-0.5,0.1-0.6,0.3
		c-0.1,0.2-0.2,0.4-0.2,0.6c0,0.2-0.1,0.4-0.2,0.6c-0.1,0.2-0.3,0.3-0.5,0.4c0.2,0.2,0.3,0.5,0.3,0.9c0,0.4,0.1,0.8,0.1,1.2
		c0.1,0.4,0.2,0.7,0.4,0.9c0.2,0.2,0.5,0.2,1.1,0c0.4,0.3,0.8,0.4,1.4,0.4c0.5-0.1,1-0.1,1.5,0c0.4-0.3,0.8-0.4,1-0.4
		c0.3,0,0.6,0,0.8,0.1c0.3,0.1,0.5,0.1,0.8,0.2c0.3,0.1,0.6,0,1-0.1c0.1-0.5,0.3-0.8,0.6-0.9c0.3-0.1,0.6-0.1,0.9-0.2
		c0.3,0,0.6-0.1,0.8-0.2c0.2-0.1,0.4-0.4,0.5-0.9c0.2-0.3,0.5-0.5,0.8-0.5c0.3,0,0.6-0.1,1-0.2c0.3-0.1,0.6-0.2,0.9-0.4
		c0.3-0.2,0.5-0.6,0.6-1.1c0.5-0.4,0.8-0.7,1.1-0.8c0.2-0.2,0.4-0.3,0.5-0.5c0.1-0.1,0.3-0.2,0.6-0.4
		C299.6,38.2,300,37.9,300.5,37.6z M292.1,18.1c-0.5,0.2-0.8,0.5-0.9,0.9c-0.1,0.4-0.1,0.8-0.1,1.3c0,0.4,0,0.8-0.1,1.2
		c-0.1,0.4-0.3,0.6-0.9,0.7c-0.2-0.3-0.5-0.7-0.8-1c-0.3-0.3-0.6-0.6-0.9-0.9c-0.3-0.3-0.5-0.6-0.7-1c-0.2-0.3-0.2-0.8-0.2-1.3
		l2.2-2.5c0.4,0.1,0.6,0.3,0.8,0.4c0.2,0.2,0.4,0.4,0.5,0.6c0.1,0.2,0.3,0.5,0.4,0.7C291.8,17.6,291.9,17.8,292.1,18.1z"/>
	<path fill="#BA2025" d="M322.4,43.6c0,0.3,0,0.6-0.2,0.8c-0.1,0.2-0.3,0.3-0.6,0.4c-0.2,0.1-0.5,0.2-0.8,0.2
		c-0.3,0-0.5,0.1-0.7,0.2c-0.8-0.1-1.7-0.2-2.4-0.4c-0.8-0.2-1.5-0.4-2.2-0.7c-0.7-0.3-1.3-0.8-1.8-1.3c-0.5-0.5-1-1.2-1.4-2.1
		c0.4-0.6,0.5-1.3,0.4-2c-0.1-0.7-0.2-1.5-0.3-2.2c-0.1-0.7-0.1-1.3,0-1.9c0.1-0.6,0.6-1,1.5-1.4c-0.1-0.3-0.1-0.7,0-1
		c0.1-0.4,0-0.7-0.3-1c-1,0.3-1.9,0.8-2.7,1.5c-0.8,0.6-1.5,1.3-2.2,2.1c-0.7,0.8-1.4,1.5-2,2.3c-0.7,0.8-1.4,1.4-2.2,2
		c-0.4,0-0.8,0-1.2-0.1c-0.4-0.1-0.8,0.1-1.1,0.4c0,0.2,0.1,0.4,0.2,0.5c0.1,0.1,0.2,0.3,0.3,0.4c0.1,0.1,0.1,0.3,0.1,0.5
		c0,0.2-0.1,0.3-0.3,0.5c-0.3,0.3-0.6,0.5-0.9,0.7c-0.3,0.2-0.7,0.4-1,0.6c-0.3,0.2-0.6,0.5-0.8,0.8c-0.2,0.3-0.3,0.7-0.3,1.2
		c-0.2-0.1-0.3-0.1-0.5-0.1c-0.1,0-0.3,0.1-0.4,0.2c-0.1,0.1-0.3,0.2-0.4,0.4c-0.1,0.1-0.2,0.3-0.3,0.3c-0.1,0.1,0,0.3,0,0.4
		c0.1,0.1,0.2,0.2,0.3,0.3c-0.1,0.3-0.3,0.5-0.5,0.6c-0.2,0.1-0.4,0.1-0.6,0c-0.2-0.1-0.4-0.2-0.6-0.3c-0.2-0.1-0.4-0.2-0.6-0.3
		c-0.1-0.4-0.1-0.8-0.2-1.3c0-0.5,0-1,0-1.5c0.1-0.5,0.2-0.9,0.3-1.4c0.2-0.4,0.4-0.8,0.8-1.1c0.1-0.1,0.2-0.1,0.3-0.2
		c0.1,0,0.1-0.1,0.2-0.2c0.2-0.3,0.4-0.5,0.5-0.8c0.1-0.3,0.2-0.6,0.2-0.9c0.1-0.3,0.1-0.6,0.2-0.9c0.1-0.3,0.3-0.6,0.5-0.8
		c-0.1-0.5-0.1-0.9,0-1.2c0.1-0.4,0.3-0.7,0.5-1c0.2-0.3,0.4-0.7,0.7-1c0.2-0.3,0.4-0.7,0.4-1.1c0-0.1,0-0.3,0-0.4
		c0-0.1,0-0.3,0-0.4c-0.1-0.5,0-0.8,0.2-1.1c0.2-0.2,0.4-0.4,0.6-0.6c0.2-0.2,0.5-0.3,0.8-0.5c0.3-0.2,0.5-0.4,0.7-0.8
		c0.8,0.4,1.3,0.9,1.5,1.6c0.2,0.7,0.2,1.4,0.2,2.3c-0.5,0.3-0.9,0.8-1.1,1.3c-0.3,0.6-0.4,1.1-0.5,1.6c0.1,0.2,0.1,0.3,0.2,0.3
		c0.1,0,0.2,0,0.3,0c0.1,0,0.3-0.1,0.4-0.2c0.1-0.1,0.2-0.1,0.3-0.1c1-0.7,2.1-1.5,3.1-2.4c1-0.9,1.8-1.9,2.4-3.1
		c0.8-0.4,1.6-0.9,2.4-1.4c0.8-0.5,1.6-0.9,2.5-1.2l1-1c0.1,0.2,0.3,0.3,0.5,0.2c0.2-0.1,0.4-0.3,0.6-0.5c0.2-0.2,0.4-0.3,0.6-0.3
		c0.2,0,0.4,0.2,0.5,0.6c0.3,0.8,0.4,1.5,0.2,2.2c-0.1,0.7-0.4,1.4-0.7,2.1c-0.3,0.7-0.6,1.4-0.9,2.1c-0.3,0.7-0.5,1.4-0.6,2.1
		c0,0.2,0,0.4,0,0.5c0,0.2,0,0.4,0,0.6c-0.1,0.6-0.1,1.3-0.2,2c-0.1,0.7-0.1,1.4,0.1,1.9c0.1,0.5,0.4,1,0.9,1.4
		c0.5,0.4,0.9,0.8,1.2,1.2c0.2,0,0.4,0,0.6,0c0.2,0.1,0.4,0.1,0.6,0.2c0.2,0.1,0.4,0.1,0.5,0.1c0.2,0,0.4-0.1,0.5-0.3
		c0.2-0.1,0.4-0.1,0.6,0c0.2,0.1,0.4,0.2,0.5,0.4c0.2,0.1,0.4,0.3,0.5,0.4C322,43.7,322.2,43.7,322.4,43.6z"/>
	<path fill="#BA2025" d="M346.7,43.6c0,0.3,0,0.6-0.2,0.8c-0.1,0.2-0.3,0.3-0.6,0.4c-0.2,0.1-0.5,0.2-0.8,0.2
		c-0.3,0-0.5,0.1-0.7,0.2c-0.8-0.1-1.7-0.2-2.4-0.4c-0.8-0.2-1.5-0.4-2.2-0.7c-0.7-0.3-1.3-0.8-1.8-1.3c-0.5-0.5-1-1.2-1.4-2.1
		c0.4-0.6,0.5-1.3,0.4-2c-0.1-0.7-0.2-1.5-0.3-2.2c-0.1-0.7-0.1-1.3,0-1.9c0.1-0.6,0.6-1,1.5-1.4c-0.1-0.3-0.1-0.7,0-1
		c0.1-0.4,0-0.7-0.3-1c-1,0.3-1.9,0.8-2.7,1.5c-0.8,0.6-1.5,1.3-2.2,2.1c-0.7,0.8-1.4,1.5-2,2.3c-0.7,0.8-1.4,1.4-2.2,2
		c-0.4,0-0.8,0-1.2-0.1c-0.4-0.1-0.8,0.1-1.1,0.4c0,0.2,0.1,0.4,0.2,0.5c0.1,0.1,0.2,0.3,0.3,0.4c0.1,0.1,0.1,0.3,0.1,0.5
		c0,0.2-0.1,0.3-0.3,0.5c-0.3,0.3-0.6,0.5-0.9,0.7c-0.3,0.2-0.7,0.4-1,0.6c-0.3,0.2-0.6,0.5-0.8,0.8c-0.2,0.3-0.3,0.7-0.3,1.2
		c-0.2-0.1-0.3-0.1-0.5-0.1c-0.1,0-0.3,0.1-0.4,0.2c-0.1,0.1-0.3,0.2-0.4,0.4c-0.1,0.1-0.2,0.3-0.4,0.3c-0.1,0.1,0,0.3,0,0.4
		c0.1,0.1,0.2,0.2,0.3,0.3c-0.1,0.3-0.3,0.5-0.5,0.6c-0.2,0.1-0.4,0.1-0.6,0c-0.2-0.1-0.4-0.2-0.7-0.3c-0.2-0.1-0.4-0.2-0.6-0.3
		c-0.1-0.4-0.1-0.8-0.2-1.3c0-0.5,0-1,0-1.5c0.1-0.5,0.2-0.9,0.3-1.4c0.2-0.4,0.4-0.8,0.8-1.1c0.1-0.1,0.2-0.1,0.3-0.2
		c0.1,0,0.1-0.1,0.2-0.2c0.2-0.3,0.4-0.5,0.5-0.8c0.1-0.3,0.2-0.6,0.2-0.9c0.1-0.3,0.1-0.6,0.2-0.9c0.1-0.3,0.3-0.6,0.5-0.8
		c-0.1-0.5-0.1-0.9,0-1.2c0.1-0.4,0.3-0.7,0.5-1c0.2-0.3,0.4-0.7,0.7-1c0.2-0.3,0.4-0.7,0.4-1.1c0-0.1,0-0.3,0-0.4
		c0-0.1,0-0.3,0-0.4c-0.1-0.5,0-0.8,0.2-1.1c0.2-0.2,0.4-0.4,0.6-0.6c0.2-0.2,0.5-0.3,0.8-0.5c0.3-0.2,0.5-0.4,0.7-0.8
		c0.8,0.4,1.3,0.9,1.5,1.6c0.2,0.7,0.2,1.4,0.2,2.3c-0.5,0.3-0.9,0.8-1.1,1.3c-0.3,0.6-0.4,1.1-0.5,1.6c0.1,0.2,0.1,0.3,0.2,0.3
		c0.1,0,0.2,0,0.3,0c0.1,0,0.3-0.1,0.4-0.2c0.1-0.1,0.2-0.1,0.3-0.1c1-0.7,2.1-1.5,3.1-2.4c1-0.9,1.8-1.9,2.4-3.1
		c0.8-0.4,1.6-0.9,2.4-1.4c0.8-0.5,1.6-0.9,2.5-1.2l1-1c0.1,0.2,0.3,0.3,0.5,0.2c0.2-0.1,0.4-0.3,0.6-0.5c0.2-0.2,0.4-0.3,0.6-0.3
		c0.2,0,0.4,0.2,0.5,0.6c0.3,0.8,0.4,1.5,0.2,2.2c-0.1,0.7-0.4,1.4-0.7,2.1c-0.3,0.7-0.6,1.4-0.9,2.1c-0.3,0.7-0.5,1.4-0.6,2.1
		c0,0.2,0,0.4,0,0.5c0,0.2,0,0.4,0,0.6c-0.1,0.6-0.1,1.3-0.2,2c-0.1,0.7-0.1,1.4,0.1,1.9c0.1,0.5,0.4,1,0.9,1.4
		c0.5,0.4,0.9,0.8,1.2,1.2c0.2,0,0.4,0,0.6,0c0.2,0.1,0.4,0.1,0.6,0.2c0.2,0.1,0.4,0.1,0.5,0.1c0.2,0,0.3-0.1,0.5-0.3
		c0.2-0.1,0.4-0.1,0.6,0c0.2,0.1,0.4,0.2,0.5,0.4c0.2,0.1,0.4,0.3,0.5,0.4C346.3,43.7,346.5,43.7,346.7,43.6z"/>
	<path fill="#BA2025" d="M376,31.6c0.1,0.4,0.1,0.8-0.1,1.1c-0.2,0.3-0.5,0.6-0.8,0.8c-0.3,0.2-0.7,0.4-1.1,0.6
		c-0.4,0.2-0.7,0.4-1,0.6c-1.3,0.3-2.5,0.5-3.5,0.6c-1.1,0.1-2.2,0.3-3.5,0.5c-0.4,0.1-0.7,0.1-1.1,0c-0.3-0.1-0.7-0.1-1-0.1
		c-0.2,0-0.4,0-0.6,0c-0.2,0-0.4,0-0.5,0c-0.7,0.1-1.1,0.3-1.3,0.7c-0.2,0.4-0.4,0.8-0.5,1.3c-0.1,0.5-0.3,1-0.5,1.4
		c-0.2,0.4-0.6,0.8-1.2,0.9c-0.1,0.1,0,0.3,0.1,0.4c0.1,0.1,0.2,0.2,0.2,0.3c-0.5,0.1-0.8,0.4-1,0.8c-0.2,0.4-0.3,0.8-0.4,1.1
		c-0.1,0.4-0.3,0.7-0.5,1c-0.2,0.3-0.6,0.3-1.2,0.3c-0.9,1-2,1.7-3.2,2.3c-1.2,0.6-2.5,1-3.8,1.2c-0.2-0.1-0.5-0.3-0.7-0.4
		c-0.2-0.2-0.4-0.3-0.6-0.5c-0.2-0.1-0.5-0.3-0.7-0.3c-0.2-0.1-0.5-0.1-0.8,0c0-0.6-0.2-1.2-0.4-1.7c-0.2-0.5-0.5-1-0.9-1.5
		c-0.1-0.5,0-1,0.2-1.5c0.2-0.4,0.4-0.9,0.6-1.3c0.2-0.4,0.4-0.9,0.5-1.3c0.1-0.4,0.1-1-0.1-1.5c0.3-0.2,0.5-0.4,0.6-0.6
		c0.1-0.2,0.2-0.5,0.2-0.7c0-0.2,0.1-0.5,0.2-0.7c0.1-0.2,0.3-0.4,0.6-0.5c-0.2-0.7-0.2-1.2,0.1-1.5c0.3-0.3,0.7-0.6,1.1-0.9
		c0.4-0.3,0.8-0.6,1.2-0.9c0.4-0.3,0.5-0.8,0.4-1.4c0.2-0.2,0.4-0.3,0.6-0.4c0.2-0.1,0.5-0.2,0.7-0.3c0.2-0.1,0.4-0.2,0.6-0.3
		c0.2-0.1,0.4-0.3,0.6-0.5c-0.2-0.1-0.3-0.3-0.3-0.4c0-0.1,0.1-0.3,0.1-0.5c0.1-0.2,0.1-0.3,0.2-0.5c0.1-0.2,0.1-0.3,0-0.5
		c0.8,0.1,1.5,0,2.1-0.3c0.6-0.3,1.2-0.7,1.7-1c0.5-0.3,1.1-0.6,1.6-0.7c0.6-0.1,1.2,0,1.9,0.5c0.1,0.2,0.2,0.5,0.3,0.9
		s0.3,0.8,0.4,1.2c0.1,0.4,0.3,0.8,0.4,1.2c0.1,0.4,0.2,0.7,0.2,0.8c0,0.1,0,0.4,0,0.7c0,0.3,0,0.7,0,1c0,0.4,0,0.7,0,1
		c0,0.3,0,0.6,0,0.7c0.8,0.5,1.7,0.8,2.5,0.9c0.8,0.1,1.7-0.1,2.5-0.6c0.3,0.3,0.6,0.4,0.9,0.2c0.3-0.1,0.6-0.3,0.8-0.5
		c0.3-0.2,0.6-0.3,0.8-0.3c0.3,0,0.6,0.2,0.9,0.7c0.4-0.4,0.8-0.6,1.3-0.7c0.4-0.1,0.9-0.2,1.3-0.2c0.5,0,0.9-0.1,1.4-0.1
		C375.1,32.1,375.6,31.9,376,31.6z M359,35.8c-0.6,0-1.1-0.1-1.5-0.4s-0.8-0.6-1.3-0.9c-0.4-0.3-0.9-0.7-1.3-1
		c-0.5-0.3-1-0.5-1.6-0.5c-0.3,0.3-0.6,0.7-0.9,1c-0.3,0.3-0.7,0.6-0.9,1c-0.3,0.3-0.4,0.7-0.5,1.1c-0.1,0.4,0,0.9,0.2,1.4
		c-0.7,0.3-1.1,0.8-1.3,1.4c-0.2,0.6-0.4,1.2-0.5,1.9c-0.1,0.7-0.1,1.4-0.2,2.1c-0.1,0.7-0.2,1.3-0.6,1.9l1-0.7
		c0.1,0.1,0.2,0.1,0.3,0.3c0.1,0.1,0.1,0.2,0,0.4c0.2-0.2,0.5-0.4,0.8-0.5c0.3-0.1,0.6-0.2,0.9-0.3c0.3-0.1,0.6-0.1,0.9-0.2
		c0.3-0.1,0.6-0.1,0.9-0.3c0.7,0.4,1.2,0.5,1.6,0.3c0.3-0.2,0.6-0.6,0.8-1c0.2-0.5,0.4-0.9,0.7-1.5c0.2-0.5,0.6-0.8,1.1-0.9
		l-0.3-0.3c0.5-0.6,0.9-1.2,1.3-1.9C358.9,37.3,359.1,36.6,359,35.8z M359.3,32.3c0-0.4,0.1-0.9,0.2-1.4c0.1-0.5,0.3-1,0.3-1.5
		c0.1-0.5,0.1-0.9,0-1.4c-0.1-0.4-0.4-0.8-0.8-1.2c-0.3,0.2-0.6,0.4-0.8,0.7c-0.2,0.3-0.4,0.6-0.6,0.9c-0.2,0.3-0.4,0.6-0.7,0.8
		c-0.3,0.2-0.6,0.3-1.1,0.2c-0.1,0.3-0.1,0.6,0,0.8c0.1,0.2,0.3,0.4,0.5,0.6c0.2,0.2,0.4,0.4,0.6,0.6c0.2,0.2,0.2,0.5,0.2,0.8
		c0.1,0.1,0.3,0.2,0.5,0.2c0.2,0.1,0.4,0.1,0.6,0.1c0.2,0,0.4,0,0.6-0.1C359.1,32.6,359.2,32.5,359.3,32.3z"/>
	<path fill="#BA2025" d="M404.9,28.5c-0.1,0.6-0.4,1.2-0.7,1.7c-0.4,0.5-0.8,1-1.3,1.4c-0.5,0.4-1.1,0.7-1.6,1
		c-0.6,0.3-1.2,0.5-1.7,0.6c-0.9,0.4-1.7,0.7-2.4,0.8c-0.7,0.2-1.5,0.3-2.2,0.4c-0.8,0.1-1.5,0.1-2.3,0c-0.8,0-1.7-0.1-2.7-0.1
		c-0.3,0.1-0.4,0.2-0.5,0.4c-0.1,0.2-0.2,0.4-0.2,0.7c0,0.2,0,0.5,0,0.7c0,0.2,0,0.5,0,0.7c-0.3,0-0.5,0.1-0.6,0.3
		c-0.2,0.2-0.3,0.4-0.5,0.5c0,0.6-0.1,1.1-0.3,1.4c-0.2,0.3-0.4,0.6-0.7,0.8c-0.3,0.2-0.6,0.4-0.9,0.7c-0.3,0.2-0.6,0.6-0.8,1.1
		c-0.1,0.2-0.2,0.3-0.2,0.5c0,0.2-0.1,0.4-0.1,0.6c-0.1,0.4-0.3,0.7-0.6,0.7c-0.3,0.1-0.6,0.2-0.9,0.2c-0.3,0-0.6,0.1-0.9,0.3
		c-0.3,0.1-0.4,0.4-0.4,0.9c-0.6,0.2-1.3,0.5-1.9,0.8c-0.6,0.4-1.2,0.8-1.8,1.2c-0.6,0.4-1.2,0.7-1.8,0.8c-0.6,0.2-1.3,0.2-2-0.1
		c-0.1-0.1-0.3-0.1-0.6-0.3c-0.2-0.1-0.4-0.2-0.5-0.3c-0.1-0.1-0.1-0.2-0.2-0.3c-0.1-0.2-0.2-0.3-0.2-0.3c-0.3-0.5-0.5-1-0.7-1.5
		c-0.1-0.5-0.2-1.1-0.3-1.7c-0.1-0.6-0.1-1.1-0.1-1.7c0-0.6,0-1.1,0-1.7c0.1,0.1,0.3,0,0.4-0.1c0.1-0.1,0.2-0.2,0.3-0.3l-0.4-1.1
		c0.2,0.1,0.3,0,0.4,0c0.1-0.1,0.2-0.2,0.3-0.3c-0.4-0.2-0.7-0.5-0.7-0.7c0-0.2,0.1-0.5,0.2-0.8c0.1-0.3,0.3-0.6,0.5-0.8
		c0.2-0.3,0.3-0.6,0.3-0.9c0-0.7,0.1-1.4,0.2-2c0.1-0.6,0.3-1.2,0.5-1.8c0.2-0.6,0.4-1.2,0.6-1.8c0.2-0.6,0.4-1.2,0.5-1.9
		c0.5-0.1,0.9-0.3,1.3-0.7c0.4-0.4,0.8-0.8,1.2-1.1c0.4-0.3,0.8-0.6,1.3-0.7c0.5-0.1,1,0.1,1.5,0.7c0.1,0.7,0.1,1.3-0.2,1.9
		c-0.2,0.6-0.5,1.1-0.8,1.7c-0.3,0.5-0.5,1.1-0.8,1.7c-0.2,0.6-0.3,1.2-0.1,1.9c-1.1,0.5-1.8,1.2-2.2,2.1c-0.3,0.9-0.6,1.9-0.7,3
		c0,0.3-0.1,0.7-0.1,1c-0.1,0.4-0.2,0.7-0.3,1c0.2,0.4,0.2,0.8,0.1,1.2c-0.1,0.4-0.2,0.8-0.3,1.2c-0.1,0.4-0.1,0.7-0.1,1
		c0,0.3,0.3,0.6,0.7,0.9c1.9-0.6,3.6-1.4,4.9-2.4c1.4-1.1,2.6-2.4,3.7-4c0.6-0.9,1.2-1.8,1.8-2.7c0.5-0.9,1-1.8,1.3-2.7
		c0.3-0.9,0.6-1.9,0.7-2.9c0.1-1,0.1-2.1-0.2-3.2c0.3,0,0.6-0.2,0.8-0.4c0.2-0.3,0.5-0.5,0.7-0.7c0.2-0.2,0.5-0.3,0.7-0.3
		c0.2,0,0.5,0.2,0.7,0.7c0.4,0.2,0.7,0.4,0.7,0.7c0,0.3,0,0.6-0.1,0.8c-0.1,0.3-0.2,0.6-0.2,0.9c-0.1,0.3,0.1,0.6,0.4,0.8
		c-0.1,0.1-0.2,0.2-0.3,0.4c-0.1,0.2-0.2,0.4-0.3,0.7c-0.1,0.2-0.2,0.5-0.2,0.7c-0.1,0.2-0.1,0.4,0,0.5c0.3,0.5,0.6,0.7,0.9,0.7
		c0.3,0,0.7,0,1-0.2c0.3-0.1,0.7-0.2,1.1-0.2c0.4,0,0.7,0.1,1,0.4c0.7-0.1,1.4-0.2,2-0.3c0.6-0.1,1.1-0.2,1.7-0.3
		c0.5-0.1,1.1-0.3,1.7-0.4c0.6-0.2,1.2-0.3,1.9-0.5c0.4-0.5,0.8-0.8,1.3-1C403.8,28.8,404.3,28.7,404.9,28.5z"/>
	<path fill="#BA2025" d="M429.2,40.6c-0.4,0.7-0.7,1.3-0.9,1.7c-0.2,0.4-0.4,0.8-0.7,1c-0.2,0.3-0.5,0.5-0.7,0.7
		c-0.3,0.2-0.7,0.5-1.2,0.8c-0.3,0.3-0.6,0.5-1,0.7c-0.3,0.2-0.5,0.4-0.8,0.5c-0.2,0.1-0.4,0.2-0.6,0.2c-0.1,0-0.1,0-0.2,0
		s-0.1,0-0.2,0c-0.2,0-0.3,0-0.5,0c-0.2,0-0.3-0.1-0.4-0.3c-0.1,0.1-0.2,0.2-0.2,0.3c-0.1,0.1-0.1,0.2-0.2,0.3
		c-0.1,0.1-0.1,0.2-0.2,0.2c-0.1,0.1-0.2,0.1-0.4,0l-0.2-0.3l-0.7,0.6c-0.8-0.4-1.6-0.7-2.3-1c-0.7-0.3-1.4-0.6-2-1
		c-0.6-0.4-1.1-0.9-1.5-1.5c-0.4-0.6-0.7-1.4-0.9-2.5c-0.1-0.2-0.3-0.3-0.5-0.5c-0.2-0.1-0.4-0.2-0.6-0.1c-0.3,0.5-0.6,0.9-1,1.3
		c-0.4,0.3-0.8,0.7-1.2,1.1c-0.1,0.1-0.3,0.3-0.3,0.5c-0.1,0.2-0.2,0.3-0.3,0.5c-0.2,0.3-0.5,0.4-0.8,0.5c-0.3,0.1-0.6,0.2-1,0.3
		c-0.3,0.1-0.6,0.2-0.9,0.4c-0.3,0.2-0.5,0.6-0.6,1c-0.3-0.2-0.7-0.3-1-0.2c-0.3,0.1-0.5,0.1-0.8,0.2c-0.3,0.1-0.6,0.1-0.8,0.1
		c-0.3,0-0.5,0-0.8-0.1c-0.3-0.1-0.5-0.3-0.7-0.6c-0.4,0.2-0.8,0.2-1.1,0c-0.3-0.2-0.7-0.4-1-0.8c-0.3-0.3-0.6-0.7-0.9-1.1
		c-0.3-0.4-0.6-0.7-0.8-0.8c-0.2-0.5-0.2-0.9,0-1.2c0.2-0.3,0.4-0.7,0.6-1c0.2-0.3,0.4-0.6,0.5-0.9c0.1-0.3,0-0.7-0.4-1.1
		c0.3-0.4,0.6-0.9,0.8-1.4c0.2-0.5,0.5-1,0.7-1.4c0.2-0.5,0.5-0.9,0.8-1.4c0.3-0.4,0.6-0.8,1-1.2c-0.2-0.2-0.3-0.4-0.3-0.6
		c0-0.2,0-0.4,0.1-0.6c0.1-0.2,0.2-0.4,0.3-0.6c0.1-0.2,0.2-0.4,0.3-0.5l1.3-0.6l-0.3-1c0.3,0.1,0.6,0,0.7,0
		c0.2-0.1,0.3-0.2,0.3-0.4c0.1-0.2,0.1-0.4,0.2-0.6c0-0.2,0.1-0.4,0.2-0.6c0.1-0.3,0.4-0.4,0.7-0.6c0.6-0.5,1.2-1,1.8-1.5
		c0.6-0.5,1.2-1,1.8-1.5c0.6-0.5,1.2-1,1.8-1.4c0.6-0.4,1.3-0.8,2.1-1.2c0.5,0.1,0.9,0.2,1.2,0.5c0.3,0.2,0.5,0.5,0.7,0.8
		c0.2,0.3,0.3,0.7,0.4,1.1c0.1,0.4,0.2,0.8,0.3,1.2c0.1,0.5,0.3,0.9,0.5,1.3c0.2,0.3,0.6,0.6,1,0.9c-0.4,0.7-0.6,1.4-0.5,2.1
		c0.1,0.7,0.2,1.4,0.3,2.2c0.1,0.7,0.1,1.4,0,2c-0.1,0.7-0.5,1.3-1.3,1.8c-0.1,0.2-0.1,0.4,0,0.7c0,0.2,0,0.5,0,0.7
		c0,0.2,0,0.5-0.1,0.7c-0.1,0.2-0.2,0.4-0.5,0.5c0.3,0.3,0.4,0.6,0.4,1c0,0.3,0,0.6,0,0.9c0,0.3,0.1,0.6,0.2,0.8
		c0.1,0.2,0.4,0.4,0.9,0.5c0.1,0.4,0.2,0.7,0.2,0.8c0.1,0.2,0.2,0.3,0.3,0.5c0.1,0.1,0.2,0.2,0.4,0.3c0.2,0.1,0.4,0.3,0.7,0.5
		c0.2,0.1,0.5,0.1,0.8,0c0.3-0.1,0.5,0,0.7,0.3c0.1-0.1,0.3-0.2,0.5-0.2c0.2,0,0.4,0,0.6,0l0.6,1c0.3-0.2,0.7-0.4,1.1-0.6
		c0.4-0.2,0.8-0.3,1.2-0.4c0.4-0.1,0.9-0.2,1.3-0.3L429.2,40.6z M412.5,25.8c-0.3,0.2-0.6,0.5-1,0.7c-0.4,0.2-0.7,0.5-1.1,0.7
		c-0.4,0.3-0.7,0.5-0.9,0.8c-0.3,0.3-0.4,0.7-0.5,1.1c-0.7,0.1-1.1,0.4-1.4,0.8c-0.3,0.4-0.5,0.9-0.7,1.4c-0.2,0.5-0.4,1-0.6,1.5
		c-0.2,0.5-0.6,0.9-1.1,1.2c-0.2,0.1-0.3,0.2-0.5,0.2c0,0-0.1,0.1-0.3,0.2c-0.3,0.2-0.6,0.5-0.8,0.9c-0.2,0.3-0.4,0.7-0.6,1.1
		c-0.2,0.4-0.3,0.8-0.4,1.2c-0.1,0.4-0.3,0.8-0.4,1.2c-0.4,0.1-0.7,0.1-0.9,0.3c-0.2,0.1-0.3,0.2-0.4,0.4c0,0.1,0,0.3,0,0.5
		c0.1,0.2,0.1,0.4,0.3,0.6c0.1,0.2,0.2,0.4,0.4,0.6c0.1,0.2,0.2,0.5,0.3,0.7c0.1,0.2,0.1,0.5,0.2,0.7c0,0.2-0.1,0.4-0.2,0.7
		c0.4,0.3,0.8,0.4,1.2,0.2c0.4-0.2,0.7-0.4,1-0.6c0.1-0.1,0.2-0.2,0.4-0.3c0.1-0.1,0.3-0.2,0.4-0.2c0.7,0.1,1.3,0.1,1.8-0.1
		c0.6-0.2,1.1-0.6,1.5-1c0.5-0.4,0.9-0.8,1.3-1.3c0.4-0.5,0.9-0.9,1.3-1.2l-0.3-0.3c0.5-0.1,0.9-0.3,1.1-0.6
		c0.2-0.2,0.4-0.5,0.4-0.8c0.1-0.3,0.1-0.7,0-1c-0.1-0.4-0.1-0.7-0.1-1.2c0-0.2,0-0.5,0-0.7c0-0.2,0.1-0.4,0.2-0.7
		c-0.2-0.7-0.3-1.3-0.1-1.9c0.2-0.6,0.4-1.2,0.6-1.8c0.3-0.6,0.5-1.1,0.8-1.7c0.3-0.6,0.4-1.2,0.4-1.8L412.5,25.8z"/>
	<path fill="#BA2025" d="M456.6,13.8c-0.4,0.4-0.9,0.7-1.3,0.7c-0.5,0-1,0-1.5-0.1c-0.5-0.1-0.9-0.1-1.4-0.1c-0.4,0-0.8,0.3-1.2,0.7
		c-0.5-0.1-0.9-0.1-1.4-0.1c-0.5,0.1-1,0.2-1.5,0.3c-0.5,0.1-1,0.3-1.6,0.4c-0.5,0.1-1,0.2-1.6,0.1l-0.7-0.7
		c-0.2,0.3-0.5,0.5-0.8,0.6c-0.4,0.1-0.7,0-1.1-0.2c-0.6,0.4-1.2,0.6-1.8,0.6c-0.6,0-1.2-0.1-1.8-0.1c-0.6,0-1.1,0.1-1.6,0.3
		c-0.5,0.2-0.9,0.8-1.3,1.8c-0.3,0.7-0.5,1.3-0.7,2c-0.2,0.7-0.5,1.4-0.7,2c-0.6,1.7-1.3,3.5-1.9,5.1c-0.6,1.7-1.4,3.4-2.2,5
		c-0.1,1.3,0,2.6,0.1,4c0.1,1.3,0.2,2.7,0.4,4c-0.1,0.3-0.2,0.7-0.1,1.1c0,0.4,0.1,0.8,0.3,1.1c0.1,0.4,0.3,0.7,0.5,1.1
		c0.2,0.3,0.4,0.6,0.6,0.9l0.8-0.7l1.1,1.5c0.3-0.4,0.6-0.8,1-1.2c0.4-0.4,0.8-0.8,1.2-1.2c0.4-0.4,0.9-0.7,1.4-0.9
		c0.5-0.2,1-0.4,1.5-0.5c0.2-0.2,0.4-0.4,0.6-0.7c0.2-0.2,0.4-0.4,0.6-0.6c0.2-0.2,0.4-0.3,0.7-0.3c0.2-0.1,0.5-0.1,0.9,0.1
		c0.9-0.5,1.8-1.2,2.5-2c0.7-0.8,1.4-1.6,2.2-2.4c0.7-0.8,1.5-1.5,2.3-2.2c0.8-0.7,1.7-1.1,2.8-1.4c-0.7,1.7-1.6,3.3-2.7,4.9
		c-1.1,1.6-2.3,3-3.6,4.2c-0.3,0.4-0.8,0.8-1.3,1.1c-0.2,0.1-0.5,0.3-0.7,0.5c-0.3,0.2-0.5,0.3-0.7,0.5c-0.8,0.5-1.5,1.1-2.3,1.7
		c-0.7,0.6-1.4,1.3-2.1,2c-0.1-0.2-0.2-0.3-0.4-0.3c-0.1-0.1-0.3-0.1-0.5-0.1c-0.2,0-0.4,0-0.6,0c-0.2,0-0.4,0-0.5,0
		c-0.6,0.4-1.3,0.7-2.2,1c-0.9,0.2-1.7,0.3-2.4,0.2c-0.2-0.1-0.5-0.2-0.8-0.3c-0.3-0.2-0.6-0.3-0.8-0.4c-1.1-0.8-2-1.7-2.5-2.8
		c-0.6-1.1-0.9-2.3-0.9-3.7l-0.3-0.3c0.4-0.3,0.6-0.7,0.7-1c0.1-0.3,0.1-0.7,0.1-1.1c0-0.4-0.1-0.7-0.2-1.1
		c-0.1-0.4-0.2-0.8-0.2-1.2c0-0.3,0-0.5,0-0.7c0-0.2,0.1-0.4,0.2-0.6c0.2-0.9,0.4-1.8,0.7-2.7c0.2-0.9,0.4-1.8,0.6-2.7
		c0.6-2.2,1.3-4.4,2-6.5c0.8-2.2,1.6-4.3,2.4-6.4c-0.5-0.2-0.9-0.3-1.4-0.3c-0.5,0-0.9-0.1-1.4-0.1c-0.5,0-1,0-1.4,0
		c-0.5,0-1-0.1-1.4-0.3c-0.2-0.1-0.3-0.1-0.3-0.2c0,0-0.1,0-0.3,0c-0.1,0-0.4,0-0.6,0.1c-0.3,0-0.5,0.1-0.8,0.1
		c-0.3,0-0.5,0-0.7-0.1c-0.2-0.1-0.3-0.2-0.4-0.4V14c0-0.5,0.1-0.8,0.3-0.9c0.2-0.2,0.4-0.3,0.7-0.3c0.3,0,0.6-0.1,0.9-0.1
		c0.3,0,0.6-0.1,0.9-0.3c0.8,0.2,1.6,0.3,2.3,0.4c0.7,0.1,1.4,0.1,2.1,0c0.7-0.1,1.3-0.3,2-0.6c0.7-0.3,1.3-0.7,1.9-1.3
		c0.5-0.9,0.8-1.9,1-2.9c0.2-1,0.5-2,0.8-3c0.3-1,0.7-1.9,1.2-2.8c0.5-0.9,1.2-1.6,2.3-2.2c0.5-0.1,0.9,0,1.2,0.2
		c0.4,0.2,0.7,0.4,1,0.6c-0.1,0.4-0.3,0.8-0.3,1.3c-0.1,0.4-0.2,0.9-0.3,1.3c-0.1,0.4-0.2,0.9-0.4,1.3c-0.1,0.4-0.4,0.8-0.7,1.1
		c0.4,0.1,0.6,0.3,0.7,0.5c0.1,0.2,0,0.4-0.1,0.7c-0.1,0.2-0.3,0.5-0.4,0.7c-0.2,0.3-0.3,0.5-0.3,0.7c-0.3,0-0.6,0.2-0.8,0.6
		c-0.2,0.4-0.4,0.7-0.7,0.9c-0.2,0.5-0.2,0.9,0.1,1.3c0.3,0.3,0.6,0.7,0.9,1c0.3,0.1,0.5,0.1,0.8,0c0.3-0.1,0.5-0.2,0.7-0.2
		c0.2-0.1,0.4-0.1,0.6-0.1c0.2,0,0.4,0.1,0.6,0.3c0.3-0.3,0.6-0.5,0.9-0.4c0.3,0,0.6,0.1,0.9,0.2c0.3,0.1,0.6,0.1,0.9,0.1
		c0.3,0,0.6-0.2,0.8-0.7c0.3-0.2,0.7-0.2,1-0.1c0.3,0.1,0.6,0.2,0.9,0.3c0.3,0.1,0.5,0.2,0.8,0.3c0.2,0.1,0.5,0,0.8-0.2
		c0.4,0.1,0.9,0.1,1.5,0c0.5,0,1.1-0.1,1.6-0.2c0.5-0.1,1.1-0.2,1.6-0.3c0.5-0.1,1-0.2,1.5-0.3c0.4,0.3,0.7,0.5,0.8,0.7
		c0.1,0.2,0.1,0.4,0.1,0.6c0,0.2-0.1,0.4-0.2,0.7C456.4,13.1,456.5,13.4,456.6,13.8z"/>
	<path fill="#BA2025" d="M480,31.9c-0.3,0.3-0.5,0.5-0.6,0.6c-0.1,0.1-0.2,0.3-0.3,0.4c-0.1,0.1-0.2,0.3-0.4,0.4
		c-0.1,0.1-0.3,0.4-0.6,0.7c-0.2,0.2-0.4,0.5-0.7,0.7c-0.2,0.3-0.4,0.5-0.7,0.7c-0.3-0.1-0.6,0-0.8,0.1c-0.2,0.2-0.4,0.4-0.5,0.6
		c-0.2,0.2-0.3,0.4-0.4,0.6c-0.1,0.2-0.3,0.3-0.5,0.2c-0.7,0.4-1.4,0.7-2.1,1c-0.7,0.3-1.4,0.7-2,1.2l-0.3-0.3l-4.5,2.2
		c-0.1,0.1-0.3,0.1-0.4,0.3c-0.1,0.1-0.3,0.2-0.4,0.3c-0.6,0.3-1.3,0.7-2,0.9c-0.7,0.3-1.4,0.5-2,0.8l-0.6,0.2c0.2,0.6,0.2,1,0,1.2
		c-0.2,0.2-0.6,0.4-1,0.5c-0.4,0.1-0.9,0.2-1.4,0.2c-0.5,0-0.9,0.1-1.2,0.3c-0.3-0.1-0.7-0.1-1.1-0.1c-0.4,0-0.7,0.1-1.1,0.1
		c-0.4,0.1-0.8,0.1-1.1,0.1c-0.3,0-0.7,0-1.1-0.1H452c-0.5,0.2-0.9,0.3-1.3,0.2c-0.4-0.1-0.7-0.3-1-0.7c-0.3-0.3-0.6-0.7-0.8-1.1
		c-0.2-0.4-0.5-0.8-0.8-1.2c-0.2-0.2-0.4-0.6-0.6-1c-0.3-0.4-0.5-0.9-0.7-1.4c-0.2-0.5-0.3-1-0.3-1.5c0-0.5,0.1-0.9,0.3-1.3
		c0.3-0.4,0.5-0.8,0.6-1.2c0.2-0.4,0.2-0.9,0.2-1.5c0-0.2,0-0.4,0-0.6c0-0.2,0-0.4,0-0.6c0.1,0,0.3,0,0.5,0c0.2,0,0.3,0,0.5,0
		c0.2,0,0.3-0.1,0.4-0.2c0.1-0.1,0.2-0.3,0.2-0.5c0-0.1-0.1-0.3-0.2-0.3c-0.1-0.1-0.2-0.2-0.2-0.3c0.2-0.3,0.3-0.5,0.5-0.6
		c0.2-0.2,0.3-0.3,0.4-0.5c0.1-0.2,0.2-0.3,0.3-0.6c0.1-0.2,0-0.5,0-0.9c0.3-0.6,0.8-1.2,1.2-1.6c0.5-0.5,1-0.9,1.5-1.3
		c0.5-0.4,1.1-0.8,1.6-1.2c0.5-0.4,1.1-0.8,1.6-1.3c0.6,0.2,1,0.2,1.3,0c0.3-0.2,0.6-0.5,0.9-0.8c0.3-0.3,0.5-0.5,0.8-0.7
		c0.3-0.2,0.6-0.1,1,0.2l0.1,0.1c0.8-0.8,1.6-1.1,2.4-1c0.8,0.1,1.5,0.3,2,0.8c0.6,0.4,0.9,0.9,1.1,1.5c0.2,0.6,0,0.9-0.5,1.2
		c0.3,0.3,0.5,0.7,0.5,1.1c0,0.4-0.1,0.8-0.3,1.1c-0.3,0.3-0.5,0.7-0.7,1.1c-0.2,0.4-0.4,0.7-0.6,1.2c-0.3,0.7-0.6,1.3-1,1.9
		c-0.3,0.6-0.8,1.1-1.5,1.5c-0.5-0.1-0.9-0.1-1.1,0.2c-0.2,0.3-0.3,0.5-0.4,0.8c-0.1,0.3-0.2,0.5-0.3,0.7c-0.1,0.2-0.4,0.1-0.7-0.2
		l-0.1-0.1l-0.1,0.1c-0.2,0.2-0.4,0.5-0.5,0.8c-0.1,0.3-0.3,0.5-0.5,0.7c-0.3-0.1-0.5-0.2-0.8-0.2c-0.3-0.1-0.6-0.1-0.8-0.2
		c0,0.6-0.1,1.1-0.4,1.4c-0.2,0.3-0.5,0.6-0.9,0.8c-0.4,0.2-0.8,0.4-1.2,0.5c-0.5,0.1-0.9,0.3-1.4,0.5c-0.4,0.2-0.9,0.4-1.3,0.7
		c-0.4,0.3-0.7,0.7-0.9,1.2c0.3,0.3,0.7,0.5,1.1,0.5c0.4,0,0.9,0,1.4,0c0.5,0,0.9-0.1,1.4-0.1c0.5,0,0.9,0.1,1.2,0.3l0,0l0,0
		c0.7-0.1,1.4-0.3,2-0.5c0.6-0.2,1.3-0.5,1.9-0.8c0.6-0.3,1.3-0.5,1.9-0.8c0.6-0.2,1.3-0.4,2-0.5c0.1,0.2,0.3,0.4,0.6,0.4
		c0.2,0,0.5,0,0.7,0l0-0.1c0.1-0.2,0.1-0.4,0.2-0.5c0.1-0.2,0.1-0.3,0.3-0.5c0.2-0.3,0.5-0.6,0.7-0.7c0.3-0.2,0.6-0.3,0.9-0.4
		c0.3-0.1,0.7-0.1,1.1-0.2c0.4,0,0.8-0.1,1.1-0.1h0.1l0-0.1c0.1-0.3,0.3-0.6,0.5-0.7c0.2-0.1,0.4-0.2,0.6-0.3
		c0.2-0.1,0.5-0.1,0.7-0.1c0.2,0,0.5-0.1,0.7-0.3c0.5,0.2,1,0.1,1.3-0.2c0.3-0.3,0.7-0.6,1-0.9l0.3,0.4l0.1-0.2
		c0.4-0.4,0.8-0.7,1-0.9c0.2-0.2,0.4-0.4,0.6-0.5c0.2-0.2,0.4-0.3,0.7-0.5c0.3-0.2,0.7-0.4,1.2-0.7c0.4-0.3,0.8-0.5,1.2-0.8
		c0.4-0.3,0.8-0.6,1.2-0.9c0.1,0.1,0.2,0.2,0.2,0.3c0,0.2,0,0.3,0,0.5c0,0.1-0.1,0.1-0.1,0.3C479.9,31.8,479.9,31.9,480,31.9z
		 M462,26.5C462,26.5,462,26.4,462,26.5c-0.1,0-0.1-0.1-0.1-0.1c-0.6-0.3-1.1-0.5-1.5-0.5c-0.4,0-0.8,0.1-1.1,0.3
		c-0.3,0.2-0.6,0.5-0.9,0.8c-0.3,0.3-0.6,0.6-0.9,0.9c-0.3,0.3-0.7,0.5-1.1,0.6c-0.4,0.1-0.9,0.1-1.5,0c-0.1,0.5-0.2,0.9-0.2,1.4
		c-0.1,0.4-0.1,0.9-0.2,1.4c-0.5,0.2-0.9,0.4-1.2,0.7c-0.3,0.3-0.5,0.7-0.7,1c-0.2,0.4-0.4,0.8-0.5,1.2c-0.2,0.4-0.4,0.8-0.6,1.2
		l0.2,0.2c0.1-0.1,0.2,0,0.4,0.1c0.1,0.1,0.2,0.2,0.3,0.3c0.3-0.5,0.7-0.9,1.3-1.2c0.5-0.3,1.1-0.6,1.7-0.9c0.6-0.3,1.1-0.6,1.6-0.9
		c0.5-0.3,0.9-0.7,1.2-1.3c0.9-0.3,1.6-0.8,2.1-1.6c0.5-0.8,0.9-1.6,1.2-2.4c0.1-0.2,0.2-0.4,0.3-0.8C461.9,26.9,462,26.6,462,26.5z
		"/>
</g>
</svg>
